<?xml version="1.0" encoding="UTF-8"?>
<!DOCTYPE svg PUBLIC "-//W3C//DTD SVG 1.1//EN" "http://www.w3.org/Graphics/SVG/1.1/DTD/svg11.dtd">
<!-- Creator: CorelDRAW 2020 (64-Bit) -->
<svg xmlns="http://www.w3.org/2000/svg" xml:space="preserve" width="181.675mm" height="107.651mm" version="1.1" style="shape-rendering:geometricPrecision; text-rendering:geometricPrecision; image-rendering:optimizeQuality; fill-rule:evenodd; clip-rule:evenodd"
viewBox="0 0 18150.8 10755.28"
 xmlns:xlink="http://www.w3.org/1999/xlink"
 xmlns:xodm="http://www.corel.com/coreldraw/odm/2003">
 <defs>
  <style type="text/css">
   <![CDATA[
    .str1 {stroke:#D2AE6D;stroke-width:35.25;stroke-miterlimit:22.9256}
    .str2 {stroke:#D2AE6D;stroke-width:19.98;stroke-miterlimit:22.9256}
    .str0 {stroke:#E8D4B4;stroke-width:19.98;stroke-miterlimit:22.9256}
    .fil3 {fill:none}
    .fil0 {fill:#F2E5D2}
    .fil2 {fill:#E8CAB4}
    .fil1 {fill:#E8D4B4}
   ]]>
  </style>
   <clipPath id="id0">
    <path d="M18150.8 10755.28l0 -10755.28 -18150.8 0 0 10755.28 18150.8 0z"/>
   </clipPath>
 </defs>
 <g id="Layer_x0020_1">
  <metadata id="CorelCorpID_0Corel-Layer"/>
  <polygon class="fil0" points="18150.8,10755.28 18150.8,0 -0,0 -0,10755.28 "/>
  <g style="clip-path:url(#id0)">
   <g id="_1960445473792">
    <path id="1" class="fil1 str0" d="M18922.07 1715.45c70.75,642.6 -15.59,1409.07 -577.51,1865.46 -444.67,361.19 -1222.67,427.58 -1682.81,200.03 -189.97,-93.92 -320.47,-307.19 -430.34,-561.18 -559.35,-1292.9 -194.93,-1371.07 -2000.96,-1764.25 -1882.52,-409.86 -1352.49,-3102.79 540.27,-3102.79 90.73,-130.25 1603,244.14 1934.64,532.8 55.29,48.12 744.1,387.95 883.53,462.91 -198.37,-427.47 1418.22,1949.39 1333.19,2367.03z"/>
    <path class="fil2 str0" d="M1646.88 7125.29c3558.06,-114.24 3977.75,2126.39 3063.02,2949.35 -1308.74,1177.46 -3246.01,-96.23 -3961.53,2783.67 -268.64,1081.08 -424.83,1841.45 -3774.64,1814.37 -538.9,-4.35 -2146.56,-885.57 -2209.57,-1978.33 -253.38,-103.56 346.08,-2039.58 868.92,-2481.18 87.16,-73.6 680.99,-969.38 812.9,-1151.21 -596.26,213.7 2965.44,-1864.83 5200.9,-1936.67z"/>
    <path class="fil3 str1" d="M18547.74 1430.43c90.93,825.82 -117.01,1377.94 -443.91,1727.07 -463.41,494.93 -1173.28,577.37 -1657.13,410.52 -566.27,-195.28 -581.22,-733.11 -776.39,-1162.15 -314.05,-690.44 -371.18,-901.28 -1287.71,-1122.21 -1011.34,-243.81 -1782.23,-133.74 -1628.7,-2112.76 22,-283.59 775.08,-1103.22 1642.48,-1103.22 90.73,-130.25 1602.99,244.13 1934.64,532.79 55.28,48.13 744.1,387.95 883.53,462.92 -198.37,-427.48 1418.22,1949.39 1333.19,2367.03z"/>
    <path class="fil3 str2" d="M1646.88 6649.47c3558.06,-114.24 3977.75,2126.39 3063.02,2949.35 -1308.74,1177.46 -3246.01,-96.23 -3961.53,2783.67 -268.64,1081.08 -424.83,1841.45 -3774.64,1814.37 -538.9,-4.35 -2146.56,-885.57 -2209.57,-1978.33 -253.38,-103.56 346.08,-2039.58 868.92,-2481.18 87.16,-73.6 680.99,-969.38 812.9,-1151.21 -596.26,213.7 2965.44,-1864.83 5200.9,-1936.67z"/>
   </g>
  </g>
  <polygon class="fil3" points="18150.8,10755.28 18150.8,0 -0,0 -0,10755.28 "/>
 </g>
</svg>
