<?xml version="1.0" encoding="UTF-8"?>
<!DOCTYPE svg PUBLIC "-//W3C//DTD SVG 1.1//EN" "http://www.w3.org/Graphics/SVG/1.1/DTD/svg11.dtd">
<!-- Creator: CorelDRAW 2020 (64-Bit) -->
<svg xmlns="http://www.w3.org/2000/svg" xml:space="preserve" width="320.123mm" height="259.08mm" version="1.1" style="shape-rendering:geometricPrecision; text-rendering:geometricPrecision; image-rendering:optimizeQuality; fill-rule:evenodd; clip-rule:evenodd"
viewBox="0 0 8884.25 7190.15"
 xmlns:xlink="http://www.w3.org/1999/xlink"
 xmlns:xodm="http://www.corel.com/coreldraw/odm/2003">
 <defs>
  <style type="text/css">
   <![CDATA[
    .fil4 {fill:none}
    .fil3 {fill:#A98F71}
    .fil2 {fill:#A98F71}
    .fil0 {fill:#E8D4B4}
    .fil1 {fill:#E3C9A3}
   ]]>
  </style>
 </defs>
 <g id="Layer_x0020_1">
  <metadata id="CorelCorpID_0Corel-Layer"/>
  <g id="_2331065322160">
   <path class="fil0" d="M3357.07 4085.97c42.79,257.17 51.85,580.59 411.73,580.59l2078.68 0c340.65,0 354.31,-282.86 413.99,-521.92l436.47 -1745.85 -3622.13 0 281.26 1687.17z"/>
   <path class="fil1" d="M4879.85 3136.05c-290.69,503.39 -473.91,1028.39 -553.6,1530.51l1521.23 0c340.65,0 354.31,-282.86 413.99,-521.92l436.47 -1745.85 -1293.38 0c-191.6,220.11 -368.6,466.75 -524.72,737.25z"/>
   <path class="fil2" d="M5474.01 5316.5c-202.69,0 -367.18,164.38 -367.18,367.08 0,202.7 164.49,367.22 367.18,367.22 202.65,0 367.08,-164.52 367.08,-367.22 0.1,-202.7 -164.48,-367.08 -367.08,-367.08z"/>
   <path class="fil2" d="M4067.55 5316.5c-202.65,0 -367.18,164.38 -367.18,367.08 0.06,202.7 164.49,367.22 367.18,367.22 202.7,0 367.12,-164.52 367.12,-367.22 0.06,-202.7 -164.42,-367.08 -367.12,-367.08z"/>
   <path class="fil3" d="M6530.07 2895.59l-2498.9 0c-101,0 -183.54,82.54 -183.54,183.61l0 0c0,101.07 82.54,183.61 183.54,183.61l2407.11 0 -104.78 419.16 -1853.44 0c-100.92,0 -183.5,82.54 -183.5,183.61l0 0.14c0,100.93 82.58,183.47 183.5,183.47l1761.6 0 -19.47 77.91c-58,232.32 -71.27,507.03 -402.16,507.03l-2019.29 0c-349.56,0 -358.38,-314.16 -399.97,-563.89l-273.17 -1639.02 3518.58 0 -116.11 464.36zm366.41 -831.44l-3835.56 0 -103.19 -766.17c-14.91,-110.9 -76.79,-158.63 -186.59,-158.63l-756.24 0c-101.47,0 -183.59,82.4 -183.59,183.75 0,101.35 82.08,183.61 183.59,183.61l598.68 -0.14 428.96 2610.42c71.5,449.34 174.38,884.36 758.2,884.36l2019.34 0c591.26,0 656.24,-421.97 762.35,-846.6l450.44 -1801.85c34.84,-139.25 43.4,-288.75 -136.39,-288.75z"/>
  </g>
  <rect class="fil4" y="-0" width="8884.26" height="7190.15"/>
 </g>
</svg>
