<?xml version="1.0" encoding="UTF-8"?>
<!DOCTYPE svg PUBLIC "-//W3C//DTD SVG 1.1//EN" "http://www.w3.org/Graphics/SVG/1.1/DTD/svg11.dtd">
<!-- Creator: CorelDRAW 2020 (64-Bit) -->
<svg xmlns="http://www.w3.org/2000/svg" xml:space="preserve" width="57.0426mm" height="9.8106mm" version="1.1" style="shape-rendering:geometricPrecision; text-rendering:geometricPrecision; image-rendering:optimizeQuality; fill-rule:evenodd; clip-rule:evenodd"
viewBox="0 0 736.42 126.65"
 xmlns:xlink="http://www.w3.org/1999/xlink"
 xmlns:xodm="http://www.corel.com/coreldraw/odm/2003">
 <defs>
  <style type="text/css">
   <![CDATA[
    .fil1 {fill:#AD9D88}
    .fil2 {fill:#FEFEFE;fill-rule:nonzero}
    .fil0 {fill:#E3D4BF;fill-rule:nonzero}
   ]]>
  </style>
 </defs>
 <g id="Desktop">
  <metadata id="CorelCorpID_0Corel-Layer"/>
  <path class="fil0" d="M22.92 126.65c-2.62,0 -4.83,-0.47 -6.95,-1.32 -4.22,-1.69 -7.51,-3.73 -11.6,-5.47 -2,-0.85 -2.19,-2.12 -2.26,-3.27 -0.14,-2.59 -0.52,-5.17 -0.91,-7.75l-1.2 0 0 -12.65 0 -0.07 0 -0.07 0 -0.07 0 -0.07 0 -0.07 0 -0.07 0 -0.07 0 -0.07c0.01,-3.61 3.21,-5.57 11.41,-6.7 9.88,-1.37 20.17,-1.95 30.45,-2.48 24.28,-2.56 7.4,-6.87 -6.38,-6.87 -2.27,0 -4.04,-0.3 -5.93,-0.85 -4.7,-1.37 -7.76,-3.44 -12.27,-4.89 -1.99,-0.64 -2.2,-1.8 -2.53,-2.81 -1.29,-3.9 -2.98,-7.77 -4.3,-11.66l-2.5 0 0 -7.23 0 -10.69c25.66,0 40.68,-2.01 53.49,-2.69 18.3,-0.98 12.98,-0.69 31.27,-1.69 1.09,-0.06 2.19,-0.16 3.61,-0.27 -2.01,-0.37 -2.54,-0.51 -4.15,-0.51 -0.57,0 -1.27,0.02 -2.23,0.05 -17.68,0.56 -11.81,-0.96 -29.5,-0.96 -2.53,0 -5.05,0.01 -7.57,0.02 -20.54,0.1 77.71,-0.04 8.19,-0.04 -5.46,0 -10.92,0.07 -16.37,0.09 -0.12,0 -0.24,0 -0.35,0 -6.99,0 -9.56,-0.85 -11.39,-3.78 -1.18,-1.9 -2.03,-3.85 -2.84,-5.79 -0.57,-1.36 -0.11,-1.69 2.99,-2.13 2.75,-0.39 5.63,-0.62 8.45,-0.9 2.11,-0.21 4.02,-0.52 5.17,-1.37 0.98,-0.72 2.6,-0.94 4.44,-1.07 16.11,-1.15 32.29,-2.09 48.53,-2.86 15.75,-0.74 31.52,-1.39 47.3,-1.98 10.31,-0.39 20.65,-0.61 30.96,-0.94 10.48,-0.33 20.95,-0.71 31.42,-1.08 5.16,-0.18 10.33,-0.35 15.48,-0.44 18.74,-0.31 37.46,-0.87 56.23,-1.04 25.39,-0.24 50.78,-0.52 76.17,-0.8 19.09,-0.21 38.18,-0.68 57.28,-0.68 2.73,0 5.46,0.01 8.19,0.03 22.81,0.17 45.62,0.41 68.39,0.84 20.2,0.38 40.37,0.97 60.51,1.61 21.44,0.68 42.86,1.55 64.29,2.28 14.19,0.49 28.39,0.87 42.58,1.33 7.41,0.25 14.83,0.52 22.21,0.88 6.08,0.29 7.37,0.94 8.1,3.47 1.82,6.34 3.72,12.68 5.51,19.02 0.5,1.75 0.86,3.52 1.09,5.28 0.21,1.65 -0.99,2.22 -4.98,2.35 -6.33,0.21 -12.65,0.48 -19.02,0.48 -0.11,0 -0.23,0 -0.35,0l-8.65 -0.01 0 4.03 0.19 0.02c8.72,0.75 17.19,1.94 25.99,2.57 7.49,0.54 14.93,1.22 22.41,1.79 2.88,0.22 5.76,0.38 8.7,0.38 1.11,0 2.23,-0.02 3.36,-0.07 0.46,-0.02 0.89,-0.03 1.31,-0.03 3.97,0 6.22,0.93 6.7,2.74 1.8,6.89 4.58,13.73 5.3,20.67 0.03,0.27 0.06,0.54 0.06,0.82 0,1.92 -0.47,2.22 -4.8,2.75 -6.23,0.76 -12.57,1.31 -18.95,1.78 -32.59,2.34 -60.77,10.65 -88.95,11.43l-0.32 1.71 48.84 0.95 3.76 9.2c0.2,1.03 0.39,2.06 0.57,3.09 0.47,2.62 0.91,5.25 1.35,7.88 0.1,0.54 0.08,1.09 -0.12,1.63 -0.54,1.51 -1.74,2.13 -4.77,2.13 -0.43,0 -0.9,-0.01 -1.41,-0.03 -9.04,-0.43 -18.12,-0.24 -27.16,-0.35 -20.38,-0.26 -40.78,-0.35 -61.11,-0.88 -20.67,-0.54 -41.34,-0.9 -62.03,-1.22 -18.08,-0.29 -36.15,-0.39 -54.22,-0.39 -19.31,0 -38.62,0.12 -57.92,0.25 -25.25,0.18 -50.5,0.02 -75.72,0.35 -29.29,0.39 -58.59,0.16 -87.87,0.45 -13.43,0.14 -26.88,0.05 -40.27,0.38 -11.17,0.27 -22.33,0.19 -33.48,0.38 -21.33,0.37 -42.67,0.69 -63.97,1.26 -15.5,0.41 -31.02,0.66 -46.49,1.18 -12.08,0.41 -24.26,0.5 -36.17,1.61 -0.79,0.07 -1.55,0.11 -2.28,0.11z"/>
  <g id="_2354819681920">
   <path class="fil1" d="M339.04 102.74c0.33,-0.59 0.72,-1.16 1.14,-1.71 2.04,-2.62 4.87,-4 8.2,-4 2.84,0 5.44,0.95 7.42,3.01 1.85,1.92 2.8,4.35 2.8,7.02 0,1.62 -0.48,3.23 -1.09,4.72 -0.11,0.27 -0.27,0.68 -0.37,0.98 0.85,0.33 2.38,0.39 3.12,0.39 2.42,0 4.93,-0.48 6.68,-2.27 1.57,-1.6 2.23,-3.43 2.23,-5.67 0,-3.25 -3.89,-8.89 -5.73,-11.37 -5.08,-6.87 -11.41,-16.78 -11.41,-25.64 0,-6.64 2.65,-12.4 7.02,-17.34 4.69,-5.29 10.65,-8.14 17.74,-8.14 4.85,0 9.38,1.36 13.29,4.24 3.62,2.67 6.38,6.32 6.38,10.99 0,2.85 -1,5.43 -3,7.61 -1.99,2.08 -4.5,3.27 -7.4,3.27 -5.64,0 -9.02,-3.69 -9.02,-9.25l0 -0.16 0.14 -3.79c-0.79,-0.42 -1.61,-0.68 -2.52,-0.68 -1.66,0 -3.04,0.62 -4.33,1.65 -1.31,1.05 -1.64,2.55 -1.64,4.18 0,3.34 6.54,11.94 8.53,14.47 4.6,5.85 9.98,14.01 9.98,21.74 0,7.78 -2.84,14.53 -8.29,20.07 -5.39,5.49 -11.99,8.49 -19.7,8.49 -5.85,0 -11.52,-1.49 -15.84,-5.62 -3.12,-2.99 -5.93,-6.87 -5.93,-11.37 0,-0.53 0.04,-1.05 0.11,-1.56 -2.34,3.63 -6.91,7.31 -9.23,9.27 -5.24,4.44 -11.95,8.76 -19.07,8.76 -6.34,0 -9.08,-4.93 -9.16,-10.67 -6.16,5.69 -13.59,9.81 -22.31,9.81 -5.24,0 -9.76,-1.96 -12.68,-6.39 -2.48,-3.76 -3.66,-7.95 -3.66,-12.46 0,-0.69 0.02,-1.38 0.06,-2.07 -2.32,4.13 -6.73,8.6 -8.97,10.94 -5.58,5.81 -12.8,11.01 -21.19,11.01 -2.88,0 -5.43,-1.07 -7.57,-2.99 -2.55,-2.29 -3.52,-5.46 -3.52,-8.81 0,-4.57 0.74,-9.13 1.92,-13.54 1.48,-5.55 3.28,-11.14 4.97,-16.63 3.72,-12.11 7.51,-24.21 11.31,-36.3 2.45,-7.8 4.89,-15.63 7.07,-23.51 0.57,-2.07 2.07,-7 2.25,-9.37 -1.2,-0.68 -4.56,-0.9 -5.6,-0.93 -3.72,-0.12 -7.86,-1.54 -7.86,-5.99 0,-4.5 4.1,-6.03 7.91,-6.05l30.28 -1.06 -1.6 5.68c-4.46,15.84 -9.7,31.8 -14.59,47.49l-15.54 51.5c-0.31,1.17 -0.76,2.78 -1.2,4.45 0.86,-0.68 1.59,-1.29 2.01,-1.64 3.15,-2.64 6.82,-6 9.06,-9.48 1.51,-2.35 3.54,-5.09 6.65,-5.09 2.43,0 4.35,1.29 5.22,3.27 2.55,-11.18 9.28,-21.87 15.99,-30.56 7.94,-10.3 19.84,-22.58 33.89,-22.58 3.6,0 6.8,1.27 9.17,3.98 0.21,-0.39 0.41,-0.78 0.61,-1.17l1.44 -2.74 3.05 0.49c1.72,0.28 3.45,0.54 5.17,0.84l0.18 0.04c0.65,0.14 1.37,0.33 2.03,0.43l5.7 0.81 -2.38 5.24c-1.3,2.86 -2.37,6.15 -3.38,9.12 -2.05,6 -3.98,12.05 -5.89,18.1l-7.4 23.38 -0.04 0.1c-0.79,2.11 -1.54,4.53 -1.88,6.92 0.57,-0.36 1.11,-0.74 1.4,-0.95 2.43,-1.75 4.58,-3.9 6.52,-6.18 1.66,-1.95 3.81,-4.26 6.57,-4.26 3.26,0 5.64,2.32 5.74,5.54zm-115.21 -91.77l-1.49 5.55c-2.35,8.74 -4.8,18.26 -5.79,27.26 -0.37,3.39 -2.62,6.01 -6.17,6.01 -2.37,0 -4.39,-1.35 -5.15,-3.51 -0.54,-1.44 -0.61,-3.92 -0.7,-5.48 -0.36,-6.45 -1.76,-14.9 -6.87,-19.43 -3.76,-3.34 -8.07,-5.51 -13.16,-5.51 -6.57,0 -12.2,2.71 -17.11,6.97 -6.74,5.85 -11.44,14.84 -14.7,23.01 -4.36,10.95 -6.32,22.46 -6.32,34.22 0,8.02 1.37,16.74 6.43,23.23 4.01,5.14 9.02,7.79 15.56,7.79 6.14,0 11.91,-2.22 17.11,-5.35 6.18,-3.72 11.08,-8.73 14.95,-14.92 1.43,-2.19 3.37,-4.29 6.21,-4.29 3.38,0 5.83,2.44 5.83,5.82 0,3.77 -4.58,9.28 -6.84,12.08 -4.95,6.12 -11.88,10.82 -18.78,14.49 -8.35,4.44 -17.33,6.62 -26.79,6.62 -12.15,0 -22.58,-4.3 -30.08,-13.98 -7.27,-9.37 -10.44,-20.27 -10.44,-32.09 0,-12.93 3.37,-25.25 9.07,-36.81 5.85,-11.86 14.17,-21.69 25.4,-28.71 9.14,-5.71 19.65,-10.14 30.59,-10.14 6.2,0 12.37,1.91 17.96,4.48 1.22,0.56 4.64,2.12 5.91,2.21 1.22,0 3.34,-2.17 4.06,-2.98 1.46,-1.64 3.3,-2.85 5.56,-2.85 3.33,0 5.74,2.41 5.74,5.74l0 0.57zm105.14 -3.74c2.22,0 4.26,0.81 6.01,2.14 2.12,1.62 3.32,3.96 3.32,6.63 0,4.08 -2.42,7.39 -5.4,9.94 -4.62,3.94 -10.99,7.69 -16.19,10.83 -2.72,1.64 -12.16,7.7 -15.31,7.7 -3.18,0 -5.65,-2.24 -5.65,-5.48 0,-3.44 7.43,-11.04 9.6,-13.49 4.02,-4.52 8.31,-9.42 12.75,-13.53 3.01,-2.78 6.68,-4.74 10.87,-4.74zm110.04 -4.8c2.94,0 5.57,1.13 7.65,3.2 2.08,2.08 3.21,4.71 3.21,7.65 0,2.98 -1.1,5.65 -3.21,7.76 -2.08,2.08 -4.71,3.21 -7.65,3.21 -2.98,0 -5.65,-1.1 -7.76,-3.21 -2.11,-2.11 -3.2,-4.78 -3.2,-7.76 0,-3 1.13,-5.7 3.3,-7.77 2.11,-2.02 4.75,-3.08 7.66,-3.08zm-22.01 109.18c0.9,-0.47 1.75,-0.98 2.2,-1.27 2.95,-1.86 5.63,-4.15 8.06,-6.64 1.62,-1.67 3.57,-3.25 6.03,-3.25 3.3,0 5.82,2.3 5.82,5.65 0,5.09 -6.6,9.87 -10.31,12.53 -5.29,3.8 -11.57,6.89 -18.22,6.89 -3.41,0 -6.95,-0.65 -9.69,-2.81 -2.48,-1.95 -4.05,-4.59 -4.05,-7.79 0,-5.5 7.43,-22.75 9.61,-28.01 2.96,-7.15 5.92,-14.36 8.59,-21.63 0.48,-1.3 1.51,-3.97 2.2,-6.19 -2.27,1.61 -4.98,4.1 -5.92,5 -1.93,1.85 -4.52,4.2 -7.35,4.2 -3.25,0 -5.45,-2.47 -5.45,-5.65 0,-4.63 7.2,-9.8 10.49,-12.31 5.18,-3.95 11.62,-7.62 18.32,-7.62 3.11,0 5.85,1.23 7.99,3.47 2,2.09 3.26,4.63 3.26,7.55 0,2.53 -0.43,5.03 -1.28,7.42 -1.09,3.06 -2.49,6.2 -3.74,9.21 -2.93,7.06 -5.89,14.1 -8.82,21.05 -2.15,5.49 -4.3,10.99 -6.36,16.52 -0.39,1.05 -0.93,2.38 -1.41,3.69zm67.4 -54.78c-2.67,0.3 -6.66,4.34 -8.24,6.04 -4.85,5.27 -8.1,12.42 -10.37,19.14 -2.18,6.45 -4.23,14.04 -4.23,20.9 0,2.29 0.23,5.86 1.57,7.83 0.82,1.2 1.87,1.54 3.29,1.54 2.87,0 5.99,-2.14 8.1,-3.89 3.39,-2.81 6.44,-6.02 8.93,-9.66 1.61,-2.34 3.81,-4.79 6.9,-4.79 3.35,0 5.65,2.53 5.65,5.82 0,4.82 -7.19,11.94 -10.34,15.16 -6.64,6.78 -14.75,10.61 -24.27,10.61 -5.88,0 -11.38,-1.72 -15.59,-5.95 -4.15,-4.17 -5.91,-9.49 -5.91,-15.32 0,-10.44 3.52,-20.27 8.8,-29.16 5.09,-8.57 11.4,-16.72 19.32,-22.86 6.08,-4.71 13.41,-8.67 21.29,-8.67 4,0 7.61,1.43 10.6,4.08 3.11,2.76 4.85,6.33 4.85,10.51 0,2.93 -0.89,5.67 -3.02,7.74 -1.83,1.79 -4.13,2.91 -6.72,2.91 -2.65,0 -5.1,-0.9 -6.88,-3.01 -1.47,-1.8 -2.39,-4.43 -3.05,-6.64l-0.05 -0.19c-0.13,-0.5 -0.36,-1.44 -0.63,-2.14zm71.89 51.76c0.57,-0.36 1.11,-0.74 1.4,-0.95 2.43,-1.75 4.58,-3.9 6.52,-6.18 1.66,-1.95 3.81,-4.26 6.57,-4.26 3.33,0 5.74,2.41 5.74,5.74 0,4.63 -7.49,10.6 -10.69,13.31 -5.24,4.44 -11.95,8.76 -19.07,8.76 -6.34,0 -9.08,-4.93 -9.16,-10.67 -6.16,5.69 -13.59,9.81 -22.31,9.81 -5.24,0 -9.76,-1.96 -12.68,-6.39 -2.48,-3.76 -3.66,-7.95 -3.66,-12.46 0,-14.39 8.55,-28.65 17.06,-39.68 7.94,-10.3 19.84,-22.58 33.89,-22.58 3.6,0 6.8,1.27 9.17,3.98 0.21,-0.39 0.41,-0.78 0.61,-1.17l1.44 -2.74 3.05 0.49c1.72,0.28 3.45,0.54 5.17,0.84l0.18 0.04c0.65,0.14 1.37,0.33 2.03,0.43l5.7 0.81 -2.38 5.24c-1.3,2.86 -2.37,6.15 -3.38,9.12 -2.05,6 -3.98,12.05 -5.89,18.1l-7.4 23.38 -0.04 0.1c-0.79,2.11 -1.54,4.53 -1.88,6.92zm-248.56 -52.29c-2.8,0 -7.11,3.92 -8.94,5.72 -5.15,5.09 -8.89,12.43 -11.57,19.08 -2.53,6.27 -5.14,14.12 -5.14,20.95 0,1.62 0.17,4.18 1.15,5.56 0.53,0.75 1.31,0.89 2.19,0.89 6.65,0 13.21,-10.63 15.98,-15.54 5.03,-8.93 9.41,-19.54 9.41,-29.96 0,-1.89 -0.32,-3.89 -1.36,-5.51 -0.43,-0.66 -0.9,-1.2 -1.72,-1.2zm237.49 0c-2.8,0 -7.11,3.92 -8.94,5.72 -5.15,5.09 -8.89,12.43 -11.57,19.08 -2.53,6.27 -5.14,14.12 -5.14,20.95 0,1.62 0.17,4.18 1.15,5.56 0.53,0.75 1.31,0.89 2.19,0.89 6.65,0 13.21,-10.63 15.98,-15.54 5.03,-8.93 9.41,-19.54 9.41,-29.96 0,-1.89 -0.32,-3.89 -1.36,-5.51 -0.43,-0.66 -0.9,-1.2 -1.72,-1.2z"/>
  </g>
  <path class="fil2" d="M219.51 10.4l-1.34 5c-3.17,11.54 -5.14,20.82 -5.91,27.9 -0.17,1.46 -0.8,2.17 -1.88,2.17 -0.57,0 -0.94,-0.23 -1.11,-0.71 -0.17,-0.46 -0.32,-1.86 -0.43,-4.2 -0.6,-10.57 -3.37,-18.05 -8.31,-22.42 -4.94,-4.4 -10.28,-6.6 -16.02,-6.6 -7.11,0 -13.77,2.69 -19.94,8.03 -6.14,5.34 -11.45,13.57 -15.88,24.68 -4.43,11.11 -6.63,23.05 -6.63,35.82 0,10.97 2.43,19.59 7.34,25.88 4.91,6.31 11.23,9.45 18.96,9.45 6.31,0 12.74,-2 19.34,-5.97 6.63,-4 12.05,-9.4 16.34,-16.25 1.03,-1.57 1.88,-2.34 2.6,-2.34 1,0 1.51,0.51 1.51,1.51 0,1.4 -1.97,4.51 -5.88,9.37 -3.94,4.86 -9.77,9.31 -17.45,13.39 -7.68,4.08 -15.94,6.11 -24.76,6.11 -11.42,0 -20.34,-4.11 -26.68,-12.31 -6.37,-8.2 -9.54,-17.99 -9.54,-29.45 0,-11.65 2.88,-23.28 8.63,-34.9 5.74,-11.65 13.68,-20.62 23.82,-26.96 10.11,-6.31 19.56,-9.48 28.3,-9.48 4.86,0 10.25,1.37 16.17,4.08 3.8,1.74 6.37,2.6 7.71,2.6 2.23,0 4.66,-1.48 7.28,-4.43 0.83,-0.94 1.6,-1.4 2.34,-1.4 0.94,0 1.43,0.49 1.43,1.43zm47.27 -5.88c-1.09,3.86 -5.91,19.65 -14.57,47.41l-15.57 51.58c-1.74,6.74 -2.6,10.65 -2.6,11.74 0,0.89 0.37,1.34 1.08,1.34 1.57,0 4.66,-1.94 9.25,-5.8 4.6,-3.86 7.91,-7.34 9.91,-10.45 1.34,-2.08 2.34,-3.11 3.03,-3.11 0.94,0 1.4,0.49 1.4,1.43 0,1.89 -3.08,6.06 -9.28,12.54 -6.23,6.45 -12.25,9.68 -18.08,9.68 -1.74,0 -3.28,-0.63 -4.68,-1.88 -1.4,-1.26 -2.08,-3.11 -2.08,-5.6 0,-3.91 0.6,-8.05 1.77,-12.42 1.17,-4.4 6.57,-21.96 16.22,-52.75 6.37,-20.19 9.54,-31.7 9.54,-34.53 0,-3.03 -3.26,-4.66 -9.8,-4.89 -2.46,-0.06 -3.68,-0.6 -3.68,-1.68 0,-1.17 1.23,-1.74 3.68,-1.74l24.45 -0.86zm66.69 44.67c-1.57,3.46 -4.71,12.68 -9.45,27.7l-7.37 23.28c-1.57,4.23 -2.34,7.83 -2.34,10.85 0,1.88 0.91,2.83 2.77,2.83 1.28,0 3.17,-0.91 5.65,-2.71 2.51,-1.8 4.91,-4.08 7.28,-6.88 1.57,-1.83 2.66,-2.74 3.29,-2.74 0.94,0 1.43,0.49 1.43,1.43 0,1.51 -3.06,4.86 -9.17,10.02 -6.08,5.17 -11.51,7.74 -16.28,7.74 -3.23,0 -4.86,-2.2 -4.86,-6.63 0,-3.08 0.2,-7 0.57,-11.74 -8.65,11.68 -17.74,17.51 -27.19,17.51 -4.11,0 -7.11,-1.48 -9.08,-4.46 -1.97,-3 -2.94,-6.34 -2.94,-10.08 0,-10.74 5.4,-23.08 16.17,-37.04 10.77,-13.94 20.91,-20.91 30.47,-20.91 2.54,0 4.54,0.86 6,2.6 1.49,1.74 2.43,4.37 2.83,7.91 1,-2.54 2.6,-5.88 4.77,-10 1.77,0.29 3.48,0.54 5.11,0.83 1.17,0.26 1.94,0.43 2.34,0.49zm-25.73 2.8c-3.26,0 -7.25,2.31 -11.97,6.97 -4.71,4.66 -8.88,11.51 -12.54,20.54 -3.63,9.03 -5.45,16.54 -5.45,22.56 0,3.54 0.66,6.23 1.94,8.05 1.29,1.8 3.2,2.71 5.71,2.71 6.51,0 13.08,-5.91 19.74,-17.74 6.66,-11.8 9.97,-22.51 9.97,-32.07 0,-3.11 -0.69,-5.74 -2.06,-7.85 -1.37,-2.11 -3.17,-3.17 -5.34,-3.17zm21.22 -40.44c1.17,0 2.31,0.43 3.4,1.26 1.08,0.83 1.63,1.91 1.63,3.2 0,2.23 -1.29,4.46 -3.88,6.65 -2.6,2.23 -7.8,5.68 -15.62,10.42 -7.82,4.71 -12.19,7.08 -13.08,7.08 -0.89,0 -1.34,-0.4 -1.34,-1.17 0,-0.69 2.83,-4.23 8.51,-10.62 5.68,-6.4 9.85,-10.8 12.45,-13.22 2.63,-2.4 5.28,-3.6 7.94,-3.6zm53.95 85.43c0,6.57 -2.34,12.25 -7.06,17.05 -4.71,4.8 -10.25,7.2 -16.62,7.2 -5.48,0 -9.77,-1.49 -12.85,-4.43 -3.06,-2.94 -4.6,-5.71 -4.6,-8.25 0,-1.68 0.6,-3.31 1.8,-4.86 1.23,-1.57 2.8,-2.34 4.8,-2.34 1.8,0 3.23,0.57 4.31,1.68 1.06,1.11 1.6,2.46 1.6,4.03 0,0.83 -0.26,1.86 -0.77,3.08 -0.52,1.29 -0.77,2.26 -0.77,2.86 0,1.46 0.63,2.57 1.88,3.31 1.26,0.77 3.14,1.14 5.63,1.14 4.2,0 7.45,-1.2 9.77,-3.57 2.31,-2.37 3.46,-5.26 3.46,-8.68 0,-3.34 -2.2,-8 -6.57,-13.94 -7.05,-9.51 -10.57,-17.22 -10.57,-23.08 0,-5.2 1.97,-10 5.94,-14.48 3.94,-4.46 8.77,-6.68 14.51,-6.68 4.06,0 7.65,1.14 10.74,3.4 3.09,2.29 4.63,4.8 4.63,7.51 0,1.77 -0.6,3.31 -1.8,4.63 -1.23,1.28 -2.63,1.94 -4.28,1.94 -3.14,0 -4.71,-1.66 -4.71,-4.94l0.17 -4.51c0,-1.23 -0.71,-2.29 -2.17,-3.17 -1.51,-0.83 -3.06,-1.26 -4.68,-1.26 -2.51,0 -4.86,0.86 -7.03,2.6 -2.17,1.74 -3.26,4.26 -3.26,7.54 0,3.43 3.14,9.14 9.45,17.14 6.03,7.68 9.06,14.05 9.06,19.08zm56.09 -90.22c1.77,0 3.31,0.66 4.6,1.94 1.29,1.28 1.94,2.83 1.94,4.6 0,1.86 -0.66,3.43 -1.94,4.71 -1.28,1.29 -2.83,1.94 -4.6,1.94 -1.86,0 -3.43,-0.66 -4.71,-1.94 -1.28,-1.28 -1.94,-2.86 -1.94,-4.71 0,-1.83 0.66,-3.4 1.97,-4.66 1.31,-1.26 2.89,-1.88 4.68,-1.88zm-27.22 107.33c0,0.97 0.2,1.68 0.63,2.14 0.43,0.49 1.03,0.71 1.83,0.71 1.74,0 4.14,-0.97 7.25,-2.94 3.08,-1.94 6.03,-4.4 8.85,-7.28 1.23,-1.28 2.2,-1.94 2.94,-1.94 1,0 1.51,0.46 1.51,1.34 0,1.97 -2.86,4.97 -8.51,9.03 -5.66,4.06 -10.91,6.08 -15.71,6.08 -3.09,0 -5.43,-0.63 -7.03,-1.88 -1.6,-1.26 -2.4,-2.71 -2.4,-4.4 0,-2.51 3.08,-11.31 9.28,-26.36 7.88,-18.96 11.8,-29.73 11.8,-32.27 0,-1.03 -0.17,-1.77 -0.54,-2.23 -0.37,-0.49 -0.94,-0.71 -1.71,-0.71 -2.43,0 -6.28,2.54 -11.62,7.63 -2.06,2 -3.51,3 -4.37,3 -0.77,0 -1.14,-0.46 -1.14,-1.34 0,-1.46 2.91,-4.4 8.8,-8.88 5.88,-4.48 11.11,-6.74 15.71,-6.74 1.88,0 3.51,0.72 4.88,2.14 1.37,1.43 2.06,2.94 2.06,4.57 0,2.03 -0.34,4.03 -1.03,5.97 -0.71,1.97 -4.88,12 -12.51,30.13 -5.97,15.22 -8.97,23.31 -8.97,24.25zm77.51 -66.21c2.89,0 5.48,1 7.74,3 2.26,2 3.4,4.43 3.4,7.28 0,2 -0.57,3.54 -1.71,4.66 -1.14,1.11 -2.4,1.68 -3.71,1.68 -1.57,0 -2.74,-0.49 -3.54,-1.43 -0.77,-0.94 -1.51,-2.66 -2.26,-5.14 -0.66,-2.63 -1.34,-4.17 -2,-4.69 -0.68,-0.49 -1.51,-0.74 -2.51,-0.74 -3.26,0 -7.14,2.49 -11.71,7.45 -4.57,4.97 -8.31,11.88 -11.28,20.68 -2.97,8.8 -4.46,16.22 -4.46,22.28 0,4.57 0.77,8 2.31,10.25 1.54,2.29 3.83,3.43 6.86,3.43 3.31,0 6.91,-1.63 10.85,-4.88 3.91,-3.26 7.17,-6.77 9.74,-10.54 1.34,-1.94 2.46,-2.91 3.34,-2.91 0.89,0 1.34,0.51 1.34,1.51 0,1.88 -3.03,5.94 -9.11,12.14 -6.06,6.2 -13.14,9.31 -21.19,9.31 -5.26,0 -9.45,-1.57 -12.54,-4.68 -3.11,-3.11 -4.66,-7.2 -4.66,-12.28 0,-8.74 2.71,-17.74 8.2,-26.96 5.48,-9.25 11.57,-16.48 18.25,-21.65 6.66,-5.17 12.88,-7.77 18.65,-7.77zm81.66 1.31c-1.57,3.46 -4.71,12.68 -9.45,27.7l-7.37 23.28c-1.57,4.23 -2.34,7.83 -2.34,10.85 0,1.88 0.91,2.83 2.77,2.83 1.28,0 3.17,-0.91 5.65,-2.71 2.51,-1.8 4.91,-4.08 7.28,-6.88 1.57,-1.83 2.66,-2.74 3.29,-2.74 0.94,0 1.43,0.49 1.43,1.43 0,1.51 -3.06,4.86 -9.17,10.02 -6.08,5.17 -11.51,7.74 -16.28,7.74 -3.23,0 -4.86,-2.2 -4.86,-6.63 0,-3.08 0.2,-7 0.57,-11.74 -8.65,11.68 -17.74,17.51 -27.19,17.51 -4.11,0 -7.11,-1.48 -9.08,-4.46 -1.97,-3 -2.94,-6.34 -2.94,-10.08 0,-10.74 5.4,-23.08 16.17,-37.04 10.77,-13.94 20.91,-20.91 30.47,-20.91 2.54,0 4.54,0.86 6,2.6 1.49,1.74 2.43,4.37 2.83,7.91 1,-2.54 2.6,-5.88 4.77,-10 1.77,0.29 3.48,0.54 5.11,0.83 1.17,0.26 1.94,0.43 2.34,0.49zm-25.73 2.8c-3.26,0 -7.25,2.31 -11.97,6.97 -4.71,4.66 -8.88,11.51 -12.54,20.54 -3.63,9.03 -5.45,16.54 -5.45,22.56 0,3.54 0.66,6.23 1.94,8.05 1.29,1.8 3.2,2.71 5.71,2.71 6.51,0 13.08,-5.91 19.74,-17.74 6.66,-11.8 9.97,-22.51 9.97,-32.07 0,-3.11 -0.69,-5.74 -2.06,-7.85 -1.37,-2.11 -3.17,-3.17 -5.34,-3.17z"/>
 </g>
</svg>
