<?xml version="1.0" encoding="UTF-8"?>
<!DOCTYPE svg PUBLIC "-//W3C//DTD SVG 1.1//EN" "http://www.w3.org/Graphics/SVG/1.1/DTD/svg11.dtd">
<!-- Creator: CorelDRAW 2020 (64-Bit) -->
<svg xmlns="http://www.w3.org/2000/svg" xml:space="preserve" width="77.2457mm" height="17.6733mm" version="1.1" style="shape-rendering:geometricPrecision; text-rendering:geometricPrecision; image-rendering:optimizeQuality; fill-rule:evenodd; clip-rule:evenodd"
viewBox="0 0 1306.54 298.93"
 xmlns:xlink="http://www.w3.org/1999/xlink"
 xmlns:xodm="http://www.corel.com/coreldraw/odm/2003">
 <defs>
  <style type="text/css">
   <![CDATA[
    .fil2 {fill:#FEFEFE;fill-rule:nonzero}
    .fil1 {fill:#84716B;fill-rule:nonzero}
    .fil0 {fill:#AD9D88;fill-rule:nonzero}
   ]]>
  </style>
 </defs>
 <g id="Desktop">
  <metadata id="CorelCorpID_0Corel-Layer"/>
  <path class="fil0" d="M40.67 298.93c-4.65,0 -8.57,-1.2 -12.34,-3.4 -7.49,-4.36 -13.32,-9.6 -20.59,-14.09 -3.55,-2.19 -3.89,-5.45 -4,-8.41 -0.32,-8.93 -1.43,-17.85 -2.3,-26.75 -0.29,-2.95 -0.54,-5.89 -0.76,-8.84l1196.18 0c0.8,5.21 1.8,10.41 2.49,15.63 1.23,9.41 2.32,18.84 3.4,28.25 0.17,1.39 0.14,2.82 -0.22,4.19 -0.97,3.9 -3.08,5.48 -8.46,5.48 -0.76,0 -1.6,-0.03 -2.5,-0.09 -16.04,-1.11 -32.14,-0.62 -48.19,-0.91 -36.15,-0.68 -72.35,-0.91 -108.42,-2.28 -36.67,-1.4 -73.35,-2.31 -110.06,-3.15 -32.07,-0.73 -64.14,-1 -96.2,-1 -34.26,0 -68.52,0.3 -102.76,0.64 -44.79,0.45 -89.59,0.06 -134.35,0.89 -51.97,0.99 -103.94,0.4 -155.89,1.16 -23.82,0.35 -47.68,0.13 -71.45,0.97 -19.81,0.69 -39.61,0.49 -59.4,0.99 -37.84,0.96 -75.7,1.77 -113.5,3.24 -27.5,1.06 -55.03,1.69 -82.48,3.04 -21.44,1.05 -43.03,1.29 -64.17,4.14 -1.4,0.19 -2.75,0.28 -4.04,0.28zm1155.18 -68.27l-1195.56 0c-0.19,-3.87 -0.29,-7.74 -0.28,-11.63 0.01,-9.31 5.69,-14.34 20.25,-17.27 17.53,-3.52 35.78,-5.03 54.03,-6.4 28.49,-2.15 57.15,-3.1 85.75,-4.46 40.11,-1.89 79.86,-5.4 119.44,-9.74 20.34,-2.23 40.67,-4.53 60.99,-6.83 2.11,-0.24 4.54,-0.08 6.18,-1.32 -28.76,0.53 -57.44,0.64 -86.02,1.7 -24.98,0.92 -49.94,0.59 -74.9,0.89 -29.56,0.38 -59.13,0.55 -88.68,1.2 -11.17,0.24 -22.34,0.69 -33.54,0.87 -0.18,0.01 -0.37,0.01 -0.54,0.01 -4.02,0 -7.17,-0.77 -10.53,-2.18 -8.34,-3.54 -13.77,-8.86 -21.78,-12.6 -3.53,-1.65 -3.9,-4.64 -4.49,-7.23 -2.93,-12.82 -6.99,-25.54 -9.39,-38.42 -0.63,-3.43 -2.07,-6.79 -2.66,-10.24l1160.49 0c0.32,0.04 0.65,0.08 0.97,0.13 15.47,1.93 30.49,5 46.1,6.62 13.29,1.38 26.49,3.13 39.76,4.6 5.11,0.56 10.22,0.97 15.43,0.97 1.97,0 3.96,-0.06 5.96,-0.19 0.81,-0.05 1.58,-0.07 2.32,-0.07 7.04,0 11.04,2.38 11.88,7.06 3.19,17.74 8.13,35.36 9.41,53.22 0.05,0.71 0.1,1.4 0.1,2.11 0,4.94 -0.84,5.73 -8.52,7.08 -11.05,1.95 -22.3,3.38 -33.62,4.57 -20.37,2.12 -40.7,4.4 -61.26,5.76 -10.02,0.67 -11.23,1.4 -10.56,7.69 0.84,8.04 2.07,16.07 3.27,24.1zm-297.38 -130.42l-884.12 0c1.03,-3.14 3.97,-4.56 10.95,-6.07 2.17,-0.47 4.53,-0.76 6.45,-1.48 18.47,-7 39.43,-8.16 60.23,-9.75 44.71,-3.38 89.42,-6.77 134.12,-10.21 32.46,-2.51 64.89,-5.11 97.34,-7.68 1.94,-0.16 3.89,-0.41 6.4,-0.69 -3.57,-0.96 -4.52,-1.32 -7.37,-1.32 -1.01,0 -2.26,0.04 -3.95,0.12 -17.05,0.79 -34.11,0.96 -51.18,0.96 -7.18,0.01 -14.35,-0.03 -21.53,-0.06 -7.16,-0.03 -14.33,-0.06 -21.49,-0.06 -4.48,0 -8.95,0.01 -13.43,0.04 -14.58,0.11 -29.17,0.19 -43.75,0.19 -16.14,0 -32.29,-0.09 -48.41,-0.37 -3.47,-0.05 -6.94,-0.08 -10.4,-0.08 -9.69,0 -19.36,0.18 -29.05,0.23 -0.21,0.01 -0.42,0.01 -0.62,0.01 -12.39,0 -16.96,-2.2 -20.2,-9.73 -2.1,-4.9 -3.6,-9.91 -5.04,-14.91 -1,-3.5 -0.2,-4.36 5.3,-5.5 4.88,-1 9.98,-1.6 15,-2.33 3.74,-0.53 7.13,-1.34 9.17,-3.52 1.73,-1.87 4.61,-2.43 7.87,-2.77 28.58,-2.97 57.3,-5.39 86.1,-7.36 27.94,-1.9 55.92,-3.57 83.92,-5.11 18.29,-1.01 36.63,-1.57 54.93,-2.42 18.59,-0.86 37.17,-1.83 55.75,-2.77 9.15,-0.45 18.33,-0.9 27.47,-1.12 33.25,-0.81 66.46,-2.23 99.76,-2.68 45.05,-0.63 90.09,-1.34 135.14,-2.06 33.87,-0.54 67.75,-1.74 101.63,-1.74 4.85,0 9.69,0.03 14.54,0.08 40.47,0.45 80.93,1.07 121.34,2.17 35.83,0.98 71.62,2.51 107.37,4.15 38.04,1.75 76.03,3.98 114.05,5.88 25.17,1.25 50.37,2.23 75.54,3.43 13.15,0.63 26.3,1.33 39.41,2.25 10.78,0.75 13.07,2.42 14.36,8.94 3.22,16.33 6.59,32.65 9.77,48.99 0.88,4.51 1.53,9.05 1.93,13.59 0.38,4.25 -1.76,5.71 -8.83,6.05 -11.23,0.54 -22.43,1.23 -33.74,1.23 -0.2,0 -0.41,0 -0.62,0 -10.24,-0.03 -20.46,-0.04 -30.7,-0.04 -22.21,0 -44.43,0.06 -66.64,0.17 -43.32,0.23 -86.66,0.37 -129.96,1.05 -21.61,0.35 -43.21,1.41 -64.8,2.29z"/>
  <path class="fil1" d="M425.99 67.1l-1.76 6.55c-4.15,15.12 -6.74,27.28 -7.75,36.56 -0.22,1.91 -1.05,2.84 -2.47,2.84 -0.75,0 -1.23,-0.3 -1.46,-0.94 -0.22,-0.6 -0.41,-2.43 -0.56,-5.5 -0.79,-13.85 -4.42,-23.65 -10.89,-29.37 -6.47,-5.76 -13.47,-8.64 -20.99,-8.64 -9.32,0 -18.04,3.52 -26.12,10.52 -8.05,7 -15.01,17.77 -20.81,32.33 -5.8,14.56 -8.68,30.2 -8.68,46.92 0,14.37 3.18,25.67 9.62,33.9 6.44,8.27 14.71,12.39 24.85,12.39 8.27,0 16.69,-2.62 25.33,-7.82 8.68,-5.24 15.79,-12.31 21.4,-21.29 1.35,-2.06 2.47,-3.07 3.4,-3.07 1.31,0 1.98,0.67 1.98,1.98 0,1.83 -2.58,5.91 -7.71,12.27 -5.16,6.36 -12.8,12.2 -22.86,17.55 -10.07,5.35 -20.88,8.01 -32.44,8.01 -14.97,0 -26.64,-5.39 -34.95,-16.13 -8.35,-10.74 -12.5,-23.57 -12.5,-38.58 0,-15.27 3.78,-30.5 11.3,-45.73 7.52,-15.27 17.92,-27.02 31.21,-35.32 13.25,-8.27 25.63,-12.42 37.08,-12.42 6.36,0 13.43,1.8 21.18,5.35 4.98,2.28 8.34,3.4 10.1,3.4 2.92,0 6.1,-1.95 9.54,-5.8 1.08,-1.23 2.09,-1.83 3.07,-1.83 1.23,0 1.87,0.64 1.87,1.87zm61.93 -7.71c-1.42,5.05 -7.75,25.74 -19.08,62.12l-20.39 67.58c-2.28,8.83 -3.4,13.96 -3.4,15.38 0,1.16 0.49,1.76 1.42,1.76 2.06,0 6.1,-2.54 12.12,-7.6 6.02,-5.05 10.36,-9.62 12.98,-13.7 1.76,-2.73 3.07,-4.08 3.97,-4.08 1.23,0 1.83,0.64 1.83,1.87 0,2.47 -4.04,7.93 -12.16,16.43 -8.16,8.46 -16.05,12.68 -23.69,12.68 -2.28,0 -4.3,-0.82 -6.14,-2.47 -1.83,-1.65 -2.73,-4.08 -2.73,-7.33 0,-5.13 0.78,-10.55 2.32,-16.28 1.54,-5.76 8.61,-28.77 21.26,-69.11 8.34,-26.46 12.5,-41.54 12.5,-45.24 0,-3.97 -4.27,-6.1 -12.84,-6.4 -3.22,-0.07 -4.83,-0.78 -4.83,-2.21 0,-1.53 1.61,-2.28 4.83,-2.28l32.03 -1.12zm87.37 58.52c-2.06,4.53 -6.17,16.61 -12.39,36.3l-9.65 30.5c-2.06,5.54 -3.07,10.25 -3.07,14.22 0,2.47 1.2,3.7 3.63,3.7 1.68,0 4.15,-1.2 7.41,-3.56 3.29,-2.36 6.44,-5.35 9.54,-9.02 2.06,-2.4 3.48,-3.59 4.3,-3.59 1.23,0 1.87,0.64 1.87,1.87 0,1.98 -4,6.36 -12.01,13.13 -7.97,6.77 -15.08,10.14 -21.33,10.14 -4.23,0 -6.36,-2.88 -6.36,-8.68 0,-4.04 0.26,-9.17 0.75,-15.38 -11.34,15.31 -23.24,22.94 -35.62,22.94 -5.39,0 -9.32,-1.95 -11.9,-5.84 -2.58,-3.93 -3.85,-8.31 -3.85,-13.21 0,-14.07 7.07,-30.23 21.18,-48.53 14.11,-18.26 27.39,-27.39 39.93,-27.39 3.33,0 5.95,1.12 7.86,3.4 1.95,2.28 3.18,5.73 3.71,10.36 1.31,-3.33 3.4,-7.71 6.25,-13.1 2.32,0.37 4.57,0.71 6.7,1.09 1.53,0.34 2.55,0.56 3.07,0.64zm-33.71 3.67c-4.27,0 -9.5,3.03 -15.68,9.13 -6.18,6.1 -11.64,15.08 -16.43,26.91 -4.75,11.82 -7.15,21.67 -7.15,29.56 0,4.64 0.86,8.16 2.54,10.55 1.68,2.36 4.19,3.56 7.48,3.56 8.53,0 17.14,-7.75 25.86,-23.24 8.72,-15.45 13.06,-29.49 13.06,-42.02 0,-4.08 -0.9,-7.52 -2.69,-10.29 -1.8,-2.77 -4.15,-4.15 -7,-4.15zm27.8 -52.99c1.53,0 3.03,0.56 4.45,1.65 1.42,1.08 2.13,2.51 2.13,4.19 0,2.92 -1.68,5.84 -5.09,8.72 -3.4,2.92 -10.22,7.45 -20.47,13.66 -10.25,6.18 -15.98,9.28 -17.14,9.28 -1.16,0 -1.76,-0.52 -1.76,-1.53 0,-0.9 3.7,-5.54 11.15,-13.92 7.45,-8.38 12.91,-14.15 16.32,-17.33 3.44,-3.14 6.92,-4.72 10.4,-4.72zm70.69 111.92c0,8.61 -3.07,16.05 -9.24,22.34 -6.17,6.29 -13.43,9.43 -21.78,9.43 -7.18,0 -12.8,-1.95 -16.84,-5.8 -4,-3.85 -6.02,-7.48 -6.02,-10.81 0,-2.21 0.79,-4.34 2.36,-6.36 1.61,-2.06 3.67,-3.07 6.29,-3.07 2.36,0 4.23,0.75 5.65,2.21 1.39,1.46 2.1,3.22 2.1,5.28 0,1.08 -0.34,2.43 -1.01,4.04 -0.67,1.68 -1.01,2.96 -1.01,3.74 0,1.91 0.82,3.37 2.47,4.34 1.65,1.01 4.12,1.5 7.37,1.5 5.5,0 9.77,-1.57 12.8,-4.68 3.03,-3.11 4.53,-6.89 4.53,-11.37 0,-4.38 -2.88,-10.48 -8.61,-18.26 -9.24,-12.46 -13.84,-22.57 -13.84,-30.24 0,-6.81 2.58,-13.1 7.78,-18.97 5.16,-5.84 11.49,-8.76 19.01,-8.76 5.31,0 10.03,1.5 14.07,4.45 4.04,2.99 6.06,6.29 6.06,9.84 0,2.32 -0.78,4.34 -2.36,6.06 -1.61,1.68 -3.44,2.54 -5.61,2.54 -4.12,0 -6.17,-2.17 -6.17,-6.47l0.22 -5.91c0,-1.61 -0.94,-2.99 -2.84,-4.15 -1.98,-1.08 -4,-1.65 -6.14,-1.65 -3.29,0 -6.36,1.12 -9.2,3.4 -2.84,2.28 -4.27,5.58 -4.27,9.88 0,4.49 4.12,11.97 12.38,22.45 7.9,10.07 11.86,18.41 11.86,25zm73.49 -118.21c2.32,0 4.34,0.86 6.02,2.54 1.68,1.68 2.55,3.7 2.55,6.02 0,2.43 -0.86,4.49 -2.55,6.17 -1.68,1.68 -3.7,2.55 -6.02,2.55 -2.43,0 -4.49,-0.86 -6.17,-2.55 -1.68,-1.68 -2.54,-3.74 -2.54,-6.17 0,-2.4 0.86,-4.45 2.58,-6.1 1.72,-1.65 3.78,-2.47 6.14,-2.47zm-35.66 140.62c0,1.27 0.26,2.21 0.82,2.81 0.56,0.64 1.35,0.94 2.4,0.94 2.28,0 5.42,-1.27 9.5,-3.85 4.04,-2.55 7.9,-5.76 11.6,-9.54 1.61,-1.68 2.88,-2.54 3.85,-2.54 1.31,0 1.98,0.6 1.98,1.76 0,2.58 -3.74,6.51 -11.15,11.82 -7.41,5.31 -14.3,7.97 -20.58,7.97 -4.04,0 -7.11,-0.82 -9.21,-2.47 -2.09,-1.65 -3.14,-3.56 -3.14,-5.76 0,-3.29 4.04,-14.82 12.16,-34.54 10.33,-24.85 15.45,-38.95 15.45,-42.28 0,-1.35 -0.22,-2.32 -0.71,-2.92 -0.49,-0.64 -1.23,-0.94 -2.25,-0.94 -3.18,0 -8.23,3.33 -15.23,9.99 -2.69,2.62 -4.6,3.93 -5.73,3.93 -1.01,0 -1.5,-0.6 -1.5,-1.76 0,-1.91 3.82,-5.76 11.53,-11.64 7.71,-5.88 14.56,-8.83 20.58,-8.83 2.47,0 4.6,0.94 6.4,2.81 1.8,1.87 2.69,3.85 2.69,5.99 0,2.66 -0.45,5.28 -1.35,7.82 -0.94,2.58 -6.4,15.72 -16.39,39.48 -7.82,19.95 -11.75,30.53 -11.75,31.77zm101.56 -86.74c3.78,0 7.19,1.31 10.14,3.93 2.96,2.62 4.45,5.8 4.45,9.54 0,2.62 -0.75,4.64 -2.25,6.1 -1.5,1.46 -3.14,2.21 -4.86,2.21 -2.06,0 -3.59,-0.64 -4.64,-1.87 -1.01,-1.23 -1.98,-3.48 -2.96,-6.74 -0.86,-3.44 -1.76,-5.46 -2.62,-6.14 -0.9,-0.64 -1.98,-0.97 -3.29,-0.97 -4.27,0 -9.36,3.26 -15.34,9.77 -5.99,6.51 -10.89,15.57 -14.78,27.09 -3.89,11.53 -5.84,21.25 -5.84,29.19 0,5.99 1.01,10.48 3.03,13.43 2.02,2.99 5.02,4.49 8.98,4.49 4.34,0 9.06,-2.13 14.22,-6.4 5.12,-4.27 9.39,-8.87 12.76,-13.81 1.76,-2.54 3.22,-3.82 4.38,-3.82 1.16,0 1.76,0.67 1.76,1.98 0,2.47 -3.97,7.78 -11.94,15.9 -7.93,8.12 -17.21,12.2 -27.77,12.2 -6.89,0 -12.39,-2.06 -16.43,-6.14 -4.08,-4.08 -6.1,-9.43 -6.1,-16.09 0,-11.45 3.55,-23.24 10.74,-35.32 7.19,-12.12 15.15,-21.59 23.91,-28.36 8.72,-6.77 16.88,-10.18 24.43,-10.18zm106.98 1.72c-2.06,4.53 -6.17,16.61 -12.39,36.3l-9.65 30.5c-2.06,5.54 -3.07,10.25 -3.07,14.22 0,2.47 1.2,3.7 3.63,3.7 1.68,0 4.15,-1.2 7.41,-3.56 3.29,-2.36 6.44,-5.35 9.54,-9.02 2.06,-2.4 3.48,-3.59 4.3,-3.59 1.23,0 1.87,0.64 1.87,1.87 0,1.98 -4,6.36 -12.01,13.13 -7.97,6.77 -15.08,10.14 -21.33,10.14 -4.23,0 -6.36,-2.88 -6.36,-8.68 0,-4.04 0.26,-9.17 0.75,-15.38 -11.34,15.31 -23.24,22.94 -35.62,22.94 -5.39,0 -9.32,-1.95 -11.9,-5.84 -2.58,-3.93 -3.85,-8.31 -3.85,-13.21 0,-14.07 7.07,-30.23 21.18,-48.53 14.11,-18.26 27.39,-27.39 39.93,-27.39 3.33,0 5.95,1.12 7.86,3.4 1.95,2.28 3.18,5.73 3.71,10.36 1.31,-3.33 3.4,-7.71 6.25,-13.1 2.32,0.37 4.57,0.71 6.7,1.09 1.53,0.34 2.55,0.56 3.07,0.64zm-33.71 3.67c-4.27,0 -9.5,3.03 -15.68,9.13 -6.18,6.1 -11.64,15.08 -16.43,26.91 -4.75,11.82 -7.15,21.67 -7.15,29.56 0,4.64 0.86,8.16 2.54,10.55 1.68,2.36 4.19,3.56 7.48,3.56 8.53,0 17.14,-7.75 25.86,-23.24 8.72,-15.45 13.06,-29.49 13.06,-42.02 0,-4.08 -0.9,-7.52 -2.69,-10.29 -1.8,-2.77 -4.15,-4.15 -7,-4.15z"/>
  <path class="fil2" d="M413.15 67.1l-1.76 6.55c-4.15,15.12 -6.74,27.28 -7.75,36.56 -0.22,1.91 -1.05,2.84 -2.47,2.84 -0.75,0 -1.23,-0.3 -1.46,-0.94 -0.22,-0.6 -0.41,-2.43 -0.56,-5.5 -0.79,-13.85 -4.42,-23.65 -10.89,-29.37 -6.47,-5.76 -13.47,-8.64 -20.99,-8.64 -9.32,0 -18.04,3.52 -26.12,10.52 -8.05,7 -15.01,17.77 -20.81,32.33 -5.8,14.56 -8.68,30.2 -8.68,46.92 0,14.37 3.18,25.67 9.62,33.9 6.44,8.27 14.71,12.39 24.85,12.39 8.27,0 16.69,-2.62 25.33,-7.82 8.68,-5.24 15.79,-12.31 21.4,-21.29 1.35,-2.06 2.47,-3.07 3.4,-3.07 1.31,0 1.98,0.67 1.98,1.98 0,1.83 -2.58,5.91 -7.71,12.27 -5.16,6.36 -12.8,12.2 -22.86,17.55 -10.07,5.35 -20.88,8.01 -32.44,8.01 -14.97,0 -26.64,-5.39 -34.95,-16.13 -8.35,-10.74 -12.5,-23.57 -12.5,-38.58 0,-15.27 3.78,-30.5 11.3,-45.73 7.52,-15.27 17.92,-27.02 31.21,-35.32 13.25,-8.27 25.63,-12.42 37.08,-12.42 6.36,0 13.43,1.8 21.18,5.35 4.98,2.28 8.34,3.4 10.1,3.4 2.92,0 6.1,-1.95 9.54,-5.8 1.08,-1.23 2.09,-1.83 3.07,-1.83 1.23,0 1.87,0.64 1.87,1.87zm61.93 -7.71c-1.42,5.05 -7.75,25.74 -19.08,62.12l-20.39 67.58c-2.28,8.83 -3.4,13.96 -3.4,15.38 0,1.16 0.49,1.76 1.42,1.76 2.06,0 6.1,-2.54 12.12,-7.6 6.02,-5.05 10.36,-9.62 12.98,-13.7 1.76,-2.73 3.07,-4.08 3.97,-4.08 1.23,0 1.83,0.64 1.83,1.87 0,2.47 -4.04,7.93 -12.16,16.43 -8.16,8.46 -16.05,12.68 -23.69,12.68 -2.28,0 -4.3,-0.82 -6.14,-2.47 -1.83,-1.65 -2.73,-4.08 -2.73,-7.33 0,-5.13 0.78,-10.55 2.32,-16.28 1.54,-5.76 8.61,-28.77 21.26,-69.11 8.34,-26.46 12.5,-41.54 12.5,-45.24 0,-3.97 -4.27,-6.1 -12.84,-6.4 -3.22,-0.07 -4.83,-0.78 -4.83,-2.21 0,-1.53 1.61,-2.28 4.83,-2.28l32.03 -1.12zm87.37 58.52c-2.06,4.53 -6.17,16.61 -12.39,36.3l-9.65 30.5c-2.06,5.54 -3.07,10.25 -3.07,14.22 0,2.47 1.2,3.7 3.63,3.7 1.68,0 4.15,-1.2 7.41,-3.56 3.29,-2.36 6.44,-5.35 9.54,-9.02 2.06,-2.4 3.48,-3.59 4.3,-3.59 1.23,0 1.87,0.64 1.87,1.87 0,1.98 -4,6.36 -12.01,13.13 -7.97,6.77 -15.08,10.14 -21.33,10.14 -4.23,0 -6.36,-2.88 -6.36,-8.68 0,-4.04 0.26,-9.17 0.75,-15.38 -11.34,15.31 -23.24,22.94 -35.62,22.94 -5.39,0 -9.32,-1.95 -11.9,-5.84 -2.58,-3.93 -3.85,-8.31 -3.85,-13.21 0,-14.07 7.07,-30.23 21.18,-48.53 14.11,-18.26 27.39,-27.39 39.93,-27.39 3.33,0 5.95,1.12 7.86,3.4 1.95,2.28 3.18,5.73 3.71,10.36 1.31,-3.33 3.4,-7.71 6.25,-13.1 2.32,0.37 4.57,0.71 6.7,1.09 1.53,0.34 2.55,0.56 3.07,0.64zm-33.71 3.67c-4.27,0 -9.5,3.03 -15.68,9.13 -6.18,6.1 -11.64,15.08 -16.43,26.91 -4.75,11.82 -7.15,21.67 -7.15,29.56 0,4.64 0.86,8.16 2.54,10.55 1.68,2.36 4.19,3.56 7.48,3.56 8.53,0 17.14,-7.75 25.86,-23.24 8.72,-15.45 13.06,-29.49 13.06,-42.02 0,-4.08 -0.9,-7.52 -2.69,-10.29 -1.8,-2.77 -4.15,-4.15 -7,-4.15zm27.8 -52.99c1.53,0 3.03,0.56 4.45,1.65 1.42,1.08 2.13,2.51 2.13,4.19 0,2.92 -1.68,5.84 -5.09,8.72 -3.4,2.92 -10.22,7.45 -20.47,13.66 -10.25,6.18 -15.98,9.28 -17.14,9.28 -1.16,0 -1.76,-0.52 -1.76,-1.53 0,-0.9 3.7,-5.54 11.15,-13.92 7.45,-8.38 12.91,-14.15 16.32,-17.33 3.44,-3.14 6.92,-4.72 10.4,-4.72zm70.69 111.92c0,8.61 -3.07,16.05 -9.24,22.34 -6.17,6.29 -13.43,9.43 -21.78,9.43 -7.18,0 -12.8,-1.95 -16.84,-5.8 -4,-3.85 -6.02,-7.48 -6.02,-10.81 0,-2.21 0.79,-4.34 2.36,-6.36 1.61,-2.06 3.67,-3.07 6.29,-3.07 2.36,0 4.23,0.75 5.65,2.21 1.39,1.46 2.1,3.22 2.1,5.28 0,1.08 -0.34,2.43 -1.01,4.04 -0.67,1.68 -1.01,2.96 -1.01,3.74 0,1.91 0.82,3.37 2.47,4.34 1.65,1.01 4.12,1.5 7.37,1.5 5.5,0 9.77,-1.57 12.8,-4.68 3.03,-3.11 4.53,-6.89 4.53,-11.37 0,-4.38 -2.88,-10.48 -8.61,-18.26 -9.24,-12.46 -13.84,-22.57 -13.84,-30.24 0,-6.81 2.58,-13.1 7.78,-18.97 5.16,-5.84 11.49,-8.76 19.01,-8.76 5.31,0 10.03,1.5 14.07,4.45 4.04,2.99 6.06,6.29 6.06,9.84 0,2.32 -0.78,4.34 -2.36,6.06 -1.61,1.68 -3.44,2.54 -5.61,2.54 -4.12,0 -6.17,-2.17 -6.17,-6.47l0.22 -5.91c0,-1.61 -0.94,-2.99 -2.84,-4.15 -1.98,-1.08 -4,-1.65 -6.14,-1.65 -3.29,0 -6.36,1.12 -9.2,3.4 -2.84,2.28 -4.27,5.58 -4.27,9.88 0,4.49 4.12,11.97 12.38,22.45 7.9,10.07 11.86,18.41 11.86,25zm73.49 -118.21c2.32,0 4.34,0.86 6.02,2.54 1.68,1.68 2.55,3.7 2.55,6.02 0,2.43 -0.86,4.49 -2.55,6.17 -1.68,1.68 -3.7,2.55 -6.02,2.55 -2.43,0 -4.49,-0.86 -6.17,-2.55 -1.68,-1.68 -2.54,-3.74 -2.54,-6.17 0,-2.4 0.86,-4.45 2.58,-6.1 1.72,-1.65 3.78,-2.47 6.14,-2.47zm-35.66 140.62c0,1.27 0.26,2.21 0.82,2.81 0.56,0.64 1.35,0.94 2.4,0.94 2.28,0 5.42,-1.27 9.5,-3.85 4.04,-2.55 7.9,-5.76 11.6,-9.54 1.61,-1.68 2.88,-2.54 3.85,-2.54 1.31,0 1.98,0.6 1.98,1.76 0,2.58 -3.74,6.51 -11.15,11.82 -7.41,5.31 -14.3,7.97 -20.58,7.97 -4.04,0 -7.11,-0.82 -9.21,-2.47 -2.09,-1.65 -3.14,-3.56 -3.14,-5.76 0,-3.29 4.04,-14.82 12.16,-34.54 10.33,-24.85 15.45,-38.95 15.45,-42.28 0,-1.35 -0.22,-2.32 -0.71,-2.92 -0.49,-0.64 -1.23,-0.94 -2.25,-0.94 -3.18,0 -8.23,3.33 -15.23,9.99 -2.69,2.62 -4.6,3.93 -5.73,3.93 -1.01,0 -1.5,-0.6 -1.5,-1.76 0,-1.91 3.82,-5.76 11.53,-11.64 7.71,-5.88 14.56,-8.83 20.58,-8.83 2.47,0 4.6,0.94 6.4,2.81 1.8,1.87 2.69,3.85 2.69,5.99 0,2.66 -0.45,5.28 -1.35,7.82 -0.94,2.58 -6.4,15.72 -16.39,39.48 -7.82,19.95 -11.75,30.53 -11.75,31.77zm101.56 -86.74c3.78,0 7.19,1.31 10.14,3.93 2.96,2.62 4.45,5.8 4.45,9.54 0,2.62 -0.75,4.64 -2.25,6.1 -1.5,1.46 -3.14,2.21 -4.86,2.21 -2.06,0 -3.59,-0.64 -4.64,-1.87 -1.01,-1.23 -1.98,-3.48 -2.96,-6.74 -0.86,-3.44 -1.76,-5.46 -2.62,-6.14 -0.9,-0.64 -1.98,-0.97 -3.29,-0.97 -4.27,0 -9.36,3.26 -15.34,9.77 -5.99,6.51 -10.89,15.57 -14.78,27.09 -3.89,11.53 -5.84,21.25 -5.84,29.19 0,5.99 1.01,10.48 3.03,13.43 2.02,2.99 5.02,4.49 8.98,4.49 4.34,0 9.06,-2.13 14.22,-6.4 5.12,-4.27 9.39,-8.87 12.76,-13.81 1.76,-2.54 3.22,-3.82 4.38,-3.82 1.16,0 1.76,0.67 1.76,1.98 0,2.47 -3.97,7.78 -11.94,15.9 -7.93,8.12 -17.21,12.2 -27.77,12.2 -6.89,0 -12.39,-2.06 -16.43,-6.14 -4.08,-4.08 -6.1,-9.43 -6.1,-16.09 0,-11.45 3.55,-23.24 10.74,-35.32 7.19,-12.12 15.15,-21.59 23.91,-28.36 8.72,-6.77 16.88,-10.18 24.43,-10.18zm106.98 1.72c-2.06,4.53 -6.17,16.61 -12.39,36.3l-9.65 30.5c-2.06,5.54 -3.07,10.25 -3.07,14.22 0,2.47 1.2,3.7 3.63,3.7 1.68,0 4.15,-1.2 7.41,-3.56 3.29,-2.36 6.44,-5.35 9.54,-9.02 2.06,-2.4 3.48,-3.59 4.3,-3.59 1.23,0 1.87,0.64 1.87,1.87 0,1.98 -4,6.36 -12.01,13.13 -7.97,6.77 -15.08,10.14 -21.33,10.14 -4.23,0 -6.36,-2.88 -6.36,-8.68 0,-4.04 0.26,-9.17 0.75,-15.38 -11.34,15.31 -23.24,22.94 -35.62,22.94 -5.39,0 -9.32,-1.95 -11.9,-5.84 -2.58,-3.93 -3.85,-8.31 -3.85,-13.21 0,-14.07 7.07,-30.23 21.18,-48.53 14.11,-18.26 27.39,-27.39 39.93,-27.39 3.33,0 5.95,1.12 7.86,3.4 1.95,2.28 3.18,5.73 3.71,10.36 1.31,-3.33 3.4,-7.71 6.25,-13.1 2.32,0.37 4.57,0.71 6.7,1.09 1.53,0.34 2.55,0.56 3.07,0.64zm-33.71 3.67c-4.27,0 -9.5,3.03 -15.68,9.13 -6.18,6.1 -11.64,15.08 -16.43,26.91 -4.75,11.82 -7.15,21.67 -7.15,29.56 0,4.64 0.86,8.16 2.54,10.55 1.68,2.36 4.19,3.56 7.48,3.56 8.53,0 17.14,-7.75 25.86,-23.24 8.72,-15.45 13.06,-29.49 13.06,-42.02 0,-4.08 -0.9,-7.52 -2.69,-10.29 -1.8,-2.77 -4.15,-4.15 -7,-4.15z"/>
 </g>
</svg>
