<?xml version="1.0" encoding="UTF-8"?>
<!DOCTYPE svg PUBLIC "-//W3C//DTD SVG 1.1//EN" "http://www.w3.org/Graphics/SVG/1.1/DTD/svg11.dtd">
<!-- Creator: CorelDRAW 2020 (64-Bit) -->
<svg xmlns="http://www.w3.org/2000/svg" xml:space="preserve" width="270.274mm" height="165.025mm" version="1.1" style="shape-rendering:geometricPrecision; text-rendering:geometricPrecision; image-rendering:optimizeQuality; fill-rule:evenodd; clip-rule:evenodd"
viewBox="0 0 10075.74 6152.1"
 xmlns:xlink="http://www.w3.org/1999/xlink"
 xmlns:xodm="http://www.corel.com/coreldraw/odm/2003">
 <defs>
  <style type="text/css">
   <![CDATA[
    .str0 {stroke:#A98F71;stroke-width:157.82;stroke-miterlimit:22.9256}
    .fil0 {fill:#A98F71}
    .fil2 {fill:#E3C9A3}
    .fil1 {fill:white}
   ]]>
  </style>
 </defs>
 <g id="Layer_x0020_1">
  <metadata id="CorelCorpID_0Corel-Layer"/>
  <path class="fil0" d="M488.47 5642.88c80.82,70.43 61.56,-113.68 73.37,147.27l-1.48 361.95 9514.8 -1.27 0.59 -5641.95 -487.28 -5.77c-98.77,-89.67 -65.99,-21.9 -70.57,-241.63 -1.67,-80.02 5.54,-180.07 7.21,-261.48l-9525.1 21.44 2.34 5616.42 486.12 5.01z"/>
  <path class="fil1" d="M837 5942.26l8969.1 -8.18 5.61 -5149.34 -9009.14 -0.07c0,856.94 0,1716.12 0,2575.32 0,544.18 -67.45,2162.46 34.43,2582.28z"/>
  <path class="fil2 str0" d="M4821.35 1725.02c-2128.81,568.26 -1305.14,3779.79 821.71,3255.41 796.84,-196.45 1436.4,-990.46 1231.92,-1988.97 -166.72,-814.11 -1028.79,-1540.01 -2053.62,-1266.44z"/>
  <path class="fil2" d="M251.98 5399.91c402.96,0.45 282.77,116.35 282.77,-1005.82l-1.22 -3858.97 8747.65 -27.04 -2.89 -272.75 -9004.9 -8.34 -21.41 5172.93z"/>
  <path class="fil1" d="M5116.39 2334.33c-334.54,100.67 -753.26,447.96 -425.57,876.01 235.45,307.57 901.44,305.9 743.89,679.21 -212.24,203.58 -518.01,78.24 -777,-1.41l-78.13 386.99 508.03 106.27c68.39,230.1 -44,237.66 142.04,269.66 228.25,39.25 156.47,-88.54 154.55,-294.94 375.73,-105.91 734.72,-415.23 483.19,-870.6 -224.28,-406.02 -808.67,-237.56 -800.48,-692.08 237.81,-142.98 430.46,-65 696.04,-23.41l85.48 -337.49c-193.93,-103.79 -258.74,-95.93 -472.08,-111.52 -5.13,-307.88 69.87,-278.13 -160.98,-301.96 -160.33,69.75 -98.98,57.06 -98.98,315.27z"/>
  <path class="fil0" d="M8984.53 5158.61l-1030.75 4.26c2.51,352.17 -116.67,265.89 1282.35,253.04 11.44,-266.86 58.06,-1116.53 -39.4,-1284.28l-210.25 -0.21 -1.95 1027.18z"/>
  <polygon class="fil0" points="8021.3,1537.95 9041.6,1551.68 9043.11,2578.55 9306.03,2582.85 9306,1290.74 8016.96,1292.73 "/>
  <path class="fil0" d="M1556.76 1562.78l1039.15 -14c0.35,-253.62 133.01,-270.98 -482.05,-259.34 -265.49,5.03 -534.02,1.29 -799.84,1.29 3.09,204.24 -45.04,1119.18 32.09,1232.74 64.74,95.3 120.04,96.6 184.07,0 62.29,-94.01 27.83,-824.36 26.57,-960.69z"/>
  <polygon class="fil0" points="2586.21,5174.57 1549.3,5159.66 1547.6,4124.94 1315.67,4132.84 1318.51,5419.57 2585.03,5417.42 "/>
 </g>
</svg>
