<!--?xml version="1.0" encoding="UTF-8"?-->

<!-- Creator: CorelDRAW 2020 (64-Bit) -->
<svg xmlns="http://www.w3.org/2000/svg" xml:space="preserve" width="39.9725mm" height="44.2804mm" version="1.1" style="shape-rendering: geometricprecision; text-rendering: geometricprecision; fill-rule: evenodd; clip-rule: evenodd;" viewBox="0 0 1858.69 2059.01" xmlns:xlink="http://www.w3.org/1999/xlink" xmlns:xodm="http://www.corel.com/coreldraw/odm/2003">
 <defs>
  <style type="text/css">
   
    .str0 {stroke:#373435;stroke-width:16.4;stroke-miterlimit:22.9256}
    .str1 {stroke:#373435;stroke-width:9.3;stroke-miterlimit:22.9256}
    .fil2 {fill:none}
    .fil7 {fill:#D2AE6D}
    .fil1 {fill:#F2E5D2}
    .fil0 {fill:#E8D4B4}
    .fil3 {fill:#1A1A1A}
    .fil5 {fill:#AD284D}
    .fil6 {fill:#CDEDF1}
    .fil4 {fill:white}
   
  </style>
 </defs>
 <g id="Layer_x0020_1">
  <metadata id="CorelCorpID_0Corel-Layer"></metadata>
  <path class="fil0 str0 OgjNskUj_0" transform="matrix(0.932374 -0.0925689 0.0925689 0.932374 466.159 96.6596)" width="996.54" height="1427.14" d="M 43,0 L 953.54,0 A 43,43,0,0,1,996.54,43 L 996.54,1384.14 A 43,43,0,0,1,953.54,1427.14 L 43,1427.14 A 43,43,0,0,1,0,1384.14 L 0,43 A 43,43,0,0,1,43,0"></path>
  <path class="fil1 str1 OgjNskUj_1" transform="matrix(0.155379 -0.0154265 0.00209467 0.021098 403.971 257.772)" width="996.54" height="1427.14" d="M 43,0 L 953.54,0 A 43,43,0,0,1,996.54,43 L 996.54,1384.14 A 43,43,0,0,1,953.54,1427.14 L 43,1427.14 A 43,43,0,0,1,0,1384.14 L 0,43 A 43,43,0,0,1,43,0"></path>
  <path class="fil1 str1 OgjNskUj_2" transform="matrix(0.155379 -0.0154265 0.00209467 0.021098 413.295 351.691)" width="996.54" height="1427.14" d="M 43,0 L 953.54,0 A 43,43,0,0,1,996.54,43 L 996.54,1384.14 A 43,43,0,0,1,953.54,1427.14 L 43,1427.14 A 43,43,0,0,1,0,1384.14 L 0,43 A 43,43,0,0,1,43,0"></path>
  <path class="fil1 str1 OgjNskUj_3" transform="matrix(0.155379 -0.0154265 0.00209467 0.021098 422.62 445.611)" width="996.54" height="1427.14" d="M 43,0 L 953.54,0 A 43,43,0,0,1,996.54,43 L 996.54,1384.14 A 43,43,0,0,1,953.54,1427.14 L 43,1427.14 A 43,43,0,0,1,0,1384.14 L 0,43 A 43,43,0,0,1,43,0"></path>
  <path class="fil1 str1 OgjNskUj_4" transform="matrix(0.155379 -0.0154265 0.00209467 0.021098 431.945 539.53)" width="996.54" height="1427.14" d="M 43,0 L 953.54,0 A 43,43,0,0,1,996.54,43 L 996.54,1384.14 A 43,43,0,0,1,953.54,1427.14 L 43,1427.14 A 43,43,0,0,1,0,1384.14 L 0,43 A 43,43,0,0,1,43,0"></path>
  <path class="fil1 str1 OgjNskUj_5" transform="matrix(0.155379 -0.0154265 0.00209467 0.021098 441.269 633.45)" width="996.54" height="1427.14" d="M 43,0 L 953.54,0 A 43,43,0,0,1,996.54,43 L 996.54,1384.14 A 43,43,0,0,1,953.54,1427.14 L 43,1427.14 A 43,43,0,0,1,0,1384.14 L 0,43 A 43,43,0,0,1,43,0"></path>
  <path class="fil1 str1 OgjNskUj_6" transform="matrix(0.155379 -0.0154265 0.00209467 0.021098 468.317 905.882)" width="996.54" height="1427.14" d="M 43,0 L 953.54,0 A 43,43,0,0,1,996.54,43 L 996.54,1384.14 A 43,43,0,0,1,953.54,1427.14 L 43,1427.14 A 43,43,0,0,1,0,1384.14 L 0,43 A 43,43,0,0,1,43,0"></path>
  <path class="fil1 str1 OgjNskUj_7" transform="matrix(0.155379 -0.0154265 0.00209467 0.021098 477.642 999.802)" width="996.54" height="1427.14" d="M 43,0 L 953.54,0 A 43,43,0,0,1,996.54,43 L 996.54,1384.14 A 43,43,0,0,1,953.54,1427.14 L 43,1427.14 A 43,43,0,0,1,0,1384.14 L 0,43 A 43,43,0,0,1,43,0"></path>
  <path class="fil1 str1 OgjNskUj_8" transform="matrix(0.155379 -0.0154265 0.00209467 0.021098 486.966 1093.72)" width="996.54" height="1427.14" d="M 43,0 L 953.54,0 A 43,43,0,0,1,996.54,43 L 996.54,1384.14 A 43,43,0,0,1,953.54,1427.14 L 43,1427.14 A 43,43,0,0,1,0,1384.14 L 0,43 A 43,43,0,0,1,43,0"></path>
  <path class="fil1 str1 OgjNskUj_9" transform="matrix(0.155379 -0.0154265 0.00209467 0.021098 496.291 1187.64)" width="996.54" height="1427.14" d="M 43,0 L 953.54,0 A 43,43,0,0,1,996.54,43 L 996.54,1384.14 A 43,43,0,0,1,953.54,1427.14 L 43,1427.14 A 43,43,0,0,1,0,1384.14 L 0,43 A 43,43,0,0,1,43,0"></path>
  <path class="fil1 str1 OgjNskUj_10" transform="matrix(0.155379 -0.0154265 0.00209467 0.021098 505.616 1281.56)" width="996.54" height="1427.14" d="M 43,0 L 953.54,0 A 43,43,0,0,1,996.54,43 L 996.54,1384.14 A 43,43,0,0,1,953.54,1427.14 L 43,1427.14 A 43,43,0,0,1,0,1384.14 L 0,43 A 43,43,0,0,1,43,0"></path>
  <path class="fil2 str0 OgjNskUj_11" d="M893.24,1402.78L726.07,1791.31L1021.4,1955.92L940.85,2053.8"></path>
  <path class="fil2 str0 OgjNskUj_12" d="M1259.26,1361.67L1126.44,1689.03L1491.05,1644.69L1495.98,1762.94"></path>
  <path class="fil2 str0 OgjNskUj_13" d="M1434.36 397.72l42.25 -1.76 350.63 18.46c-24.87,12.44 -26.26,7.81 -43.06,24.61l-553.63 455.21"></path>
  <path class="fil2 str0 OgjNskUj_14" d="M538.65,696.4L263.13,886.2L66.14,597"></path>
  <g id="_1960447598720">
   <path class="fil3 OgjNskUj_15" d="M768.97 490.75c-44.05,9.6 -75.94,32.46 -100.62,66.76 -24.77,34.43 -34.46,82.95 -25.35,126.51 17.32,82.83 98.78,144.83 192.71,126.16 38,-7.55 62.18,-24.69 86.49,-48.9 36.16,-36.03 50.59,-95.37 40.15,-144.74 -5.09,-24.06 -13.69,-41.32 -25.32,-59.05 -6.83,-10.4 -15.4,-19.22 -23.69,-27.01l-11.43 -9.69c-2.12,-1.51 -3.76,-3.19 -5.92,-4.53 -38.53,-23.95 -77.84,-36.22 -127.02,-25.5z"></path>
   <path class="fil4 OgjNskUj_16" d="M946.64 595.62c-38.52,-100.09 -165.75,-133.17 -247.74,-58.91 -22.97,20.81 -46.12,55.95 -49.57,100.64 -6.65,86.27 57.14,159.62 140.65,166.39 120.97,9.82 194.3,-110.32 156.66,-208.13z"></path>
   <path class="fil3 OgjNskUj_17" d="M1045.81 750.05c2.82,2.25 6.85,4.68 10.52,6.88 3.89,2.33 7.45,4.22 11.71,6.38 26.59,13.52 59.04,18.66 90,13.69 77.37,-12.42 134.87,-82.11 126.49,-164.44 -11.74,-115.48 -144.88,-175.38 -240.31,-105.02 -20.36,15.01 -37.39,36.65 -48.25,61.24 -26.75,60.6 0.17,141.69 49.82,181.26z"></path>
   <path class="fil4 OgjNskUj_18" d="M1110.08 488.21c-28.98,4.64 -53.39,18.32 -73.19,36.78 -19.2,17.89 -32.3,40.61 -39.48,66.08 -4.87,17.26 -7.25,43.1 -2.99,62.26 1.09,4.88 1.88,10.74 3.61,14.88 6.49,15.51 5.78,19.58 17.47,37.46 11.08,16.94 20.16,25.09 34.93,36.92 27.66,22.15 71.04,32.21 108.58,25.58 27.26,-4.8 54.55,-18.31 72.99,-36.51 32.64,-32.21 51.62,-74.45 42.57,-128.41 -4.57,-27.23 -21.84,-60.56 -40.94,-77.28 -2.32,-2.03 -2.73,-2.03 -4.73,-4.03 -7.55,-7.55 -21.71,-16.43 -31.66,-21.4 -7.97,-3.97 -16.23,-6.87 -25.28,-9.56 -18.88,-5.61 -40.96,-6.12 -61.89,-2.78z"></path>
   <path class="fil3 OgjNskUj_19" d="M984.23 792.28c-21.13,3.94 -38.16,15.73 -53.13,28.32 -4.38,3.69 -10.73,9.64 -13.57,13.07 -16.57,20.02 -30.47,37.08 -37.23,65.56 -6.71,28.27 -5.45,63.61 32.76,65.29 30.38,1.34 64.47,-12.89 95.95,-14.72 46.03,-2.67 114.33,15.53 114.17,-36 -0.2,-63.27 -82.22,-132.1 -138.94,-121.52z"></path>
   <path class="fil3 OgjNskUj_20" d="M846.62 588.07c-28.92,7.33 -51.2,36.11 -42.33,71 7.11,28.03 37.32,50.12 71.02,41.13 28.14,-7.51 49.44,-37.21 41.09,-70.34 -6.99,-27.74 -36.27,-50.28 -69.78,-41.79z"></path>
   <path class="fil3 OgjNskUj_21" d="M1049.94 572.1c-25.46,7.29 -45.25,34.68 -36.56,66.05 6.99,25.22 35.07,46.19 66.76,36.55 25.09,-7.64 45.07,-34.02 36.22,-65.53 -7.29,-25.97 -34.89,-46.11 -66.43,-37.07z"></path>
   <path class="fil5 OgjNskUj_22" d="M891.67 949.73c24.1,14.65 76.89,-4.53 107.73,-8.3 40.54,-4.95 78.88,7.7 110.78,-8.73 -0.13,-8.52 -12.9,-17.53 -18.42,-20.85 -24.92,-15.04 -63.09,-18.89 -93.83,-16.15 -31.75,2.83 -66.48,11.93 -90.65,31.67 -4.67,3.81 -16.12,15.69 -15.62,22.37z"></path>
   <path class="fil6 OgjNskUj_23" d="M942.4 662.54c-3.71,1.75 -3.61,6.6 -4.71,10.17 -6.2,20.1 -21.18,42.93 -36.62,57.1 -15.05,13.8 -30.19,23.7 -50.82,30.77 -5.22,1.79 -7.26,3.62 -12.72,4.32 -16.34,2.1 -27.56,4.66 -45.46,3.22 -34.51,-2.78 -64.18,-19.13 -84.84,-38.38 -26.39,-24.58 -38.05,-52.74 -43.49,-88.17 -0.15,0.24 -0.33,0.34 -0.36,0.78 -0.02,0.45 -0.81,0.64 -1,7.02 -1.68,56.05 27.96,108.2 76.72,131.52 19.09,9.13 30.24,12.36 53.23,15.1 28.29,3.38 63.97,-6.75 87.49,-22.22 22.24,-14.62 38.82,-32.71 50.3,-57.05 7.78,-16.49 11.62,-28.34 13.29,-46.01 0.33,-3.45 1.04,-6.02 -1.01,-8.17z"></path>
   <path class="fil6 OgjNskUj_24" d="M1010.66 663.89c-1.09,1.51 -0.64,-1.89 -0.88,2.71 -0.52,10.07 15.9,37.72 20.79,44.32 13.64,18.44 43.81,42.18 67.51,46.45 8.4,1.52 4.14,2.17 12.69,3.45 55.72,8.33 107.77,-12.76 136.28,-61.19 13.45,-22.85 20.33,-49.14 17.92,-77.31 -0.65,-7.54 -2.72,-25.24 -5.93,-30.33 -1.92,4.1 2.46,26.99 -4.58,50.47 -2.1,6.98 -4.77,14.14 -7.6,20.4 -14.44,31.89 -43.35,58.14 -80.06,69.44 -59.11,18.2 -122.67,-9.39 -150.33,-58.94 -1.45,-2.59 -4.12,-8.1 -5.78,-9.45z"></path>
   <path class="fil3 OgjNskUj_25" d="M953.3 334.91c44.28,-7.84 79.7,-13.67 123.09,-5.63l79.19 16c6.96,1.56 19.8,5.3 26.01,5.67 -6.43,-4.51 -18.72,-9.88 -26.73,-13.61 -39.98,-18.58 -112.41,-48.31 -155.71,-41.04 -16.51,2.77 -44.63,20.43 -45.85,38.61z"></path>
   <path class="fil3 OgjNskUj_26" d="M695.2 394.84l49.34 -20.49c70.85,-28.96 90.25,-36.33 172.59,-36.16 -4.5,-17.28 -34.59,-29.86 -51.74,-29.81 -39,0.13 -89.49,31.83 -120.96,51.21 -9.8,6.04 -42.41,28.33 -49.23,35.25z"></path>
   <path class="fil3 OgjNskUj_27" d="M944.93 999.39c33.62,-13.43 82.06,-18.56 119.39,-14.6 4.91,0.52 11.53,2.12 16,2.1 -9.2,-24.09 -80.75,-19.32 -110.34,-8.01 -9.5,3.63 -25.87,11.46 -25.04,20.51z"></path>
   <path class="fil4 OgjNskUj_28" d="M883.18 620.3c-20.58,7.5 -8.68,36.54 10.47,29.42 18.77,-6.97 8.92,-36.49 -10.47,-29.42z"></path>
   <path class="fil4 OgjNskUj_29" d="M1034.44 607.79c-3.95,2.22 -5.46,2.92 -7.09,7.46 -4.3,11.97 8.17,24.14 20.52,17.9 16.59,-8.38 3.72,-35 -13.43,-25.37z"></path>
  </g>
  <path class="fil7 str1 OgjNskUj_30" d="M1179.13 864.46c26.87,-0.69 51.2,9.85 64.4,30.71 22.32,35.27 4.39,86.65 -40.05,114.78 -44.44,28.13 -98.56,22.34 -120.88,-12.92 -19.13,-30.23 -8.69,-72.32 22.7,-101.44 -14.13,-12.02 -20.3,-29.52 -14.01,-44.24 8.19,-19.19 34.44,-26.38 58.63,-16.06 14.46,6.17 24.9,17.2 29.22,29.17z"></path>
  <path class="fil7 str1 OgjNskUj_31" d="M152.73 636.99c-8.4,25.53 -26.52,44.89 -50.61,50.29 -40.72,9.14 -83.06,-25.06 -94.58,-76.38 -11.51,-51.32 12.16,-100.33 52.89,-109.46 34.91,-7.83 71.02,16.19 87.87,55.54 16.07,-9.25 34.64,-9.17 46.38,1.72 15.31,14.18 13.24,41.31 -4.63,60.61 -10.68,11.54 -24.58,17.65 -37.31,17.69z"></path>
 </g>
<style data-made-with="vivus-instant">.OgjNskUj_0{stroke-dasharray:4774 4776;stroke-dashoffset:4775;animation:OgjNskUj_draw 2000ms linear 0ms forwards;}.OgjNskUj_1{stroke-dasharray:4774 4776;stroke-dashoffset:4775;animation:OgjNskUj_draw 2000ms linear 32ms forwards;}.OgjNskUj_2{stroke-dasharray:4774 4776;stroke-dashoffset:4775;animation:OgjNskUj_draw 2000ms linear 64ms forwards;}.OgjNskUj_3{stroke-dasharray:4774 4776;stroke-dashoffset:4775;animation:OgjNskUj_draw 2000ms linear 96ms forwards;}.OgjNskUj_4{stroke-dasharray:4774 4776;stroke-dashoffset:4775;animation:OgjNskUj_draw 2000ms linear 129ms forwards;}.OgjNskUj_5{stroke-dasharray:4774 4776;stroke-dashoffset:4775;animation:OgjNskUj_draw 2000ms linear 161ms forwards;}.OgjNskUj_6{stroke-dasharray:4774 4776;stroke-dashoffset:4775;animation:OgjNskUj_draw 2000ms linear 193ms forwards;}.OgjNskUj_7{stroke-dasharray:4774 4776;stroke-dashoffset:4775;animation:OgjNskUj_draw 2000ms linear 225ms forwards;}.OgjNskUj_8{stroke-dasharray:4774 4776;stroke-dashoffset:4775;animation:OgjNskUj_draw 2000ms linear 258ms forwards;}.OgjNskUj_9{stroke-dasharray:4774 4776;stroke-dashoffset:4775;animation:OgjNskUj_draw 2000ms linear 290ms forwards;}.OgjNskUj_10{stroke-dasharray:4774 4776;stroke-dashoffset:4775;animation:OgjNskUj_draw 2000ms linear 322ms forwards;}.OgjNskUj_11{stroke-dasharray:888 890;stroke-dashoffset:889;animation:OgjNskUj_draw 2000ms linear 354ms forwards;}.OgjNskUj_12{stroke-dasharray:839 841;stroke-dashoffset:840;animation:OgjNskUj_draw 2000ms linear 387ms forwards;}.OgjNskUj_13{stroke-dasharray:1161 1163;stroke-dashoffset:1162;animation:OgjNskUj_draw 2000ms linear 419ms forwards;}.OgjNskUj_14{stroke-dasharray:685 687;stroke-dashoffset:686;animation:OgjNskUj_draw 2000ms linear 451ms forwards;}.OgjNskUj_15{stroke-dasharray:1026 1028;stroke-dashoffset:1027;animation:OgjNskUj_draw 2000ms linear 483ms forwards;}.OgjNskUj_16{stroke-dasharray:968 970;stroke-dashoffset:969;animation:OgjNskUj_draw 2000ms linear 516ms forwards;}.OgjNskUj_17{stroke-dasharray:946 948;stroke-dashoffset:947;animation:OgjNskUj_draw 2000ms linear 548ms forwards;}.OgjNskUj_18{stroke-dasharray:894 896;stroke-dashoffset:895;animation:OgjNskUj_draw 2000ms linear 580ms forwards;}.OgjNskUj_19{stroke-dasharray:678 680;stroke-dashoffset:679;animation:OgjNskUj_draw 2000ms linear 612ms forwards;}.OgjNskUj_20{stroke-dasharray:364 366;stroke-dashoffset:365;animation:OgjNskUj_draw 2000ms linear 645ms forwards;}.OgjNskUj_21{stroke-dasharray:337 339;stroke-dashoffset:338;animation:OgjNskUj_draw 2000ms linear 677ms forwards;}.OgjNskUj_22{stroke-dasharray:473 475;stroke-dashoffset:474;animation:OgjNskUj_draw 2000ms linear 709ms forwards;}.OgjNskUj_23{stroke-dasharray:845 847;stroke-dashoffset:846;animation:OgjNskUj_draw 2000ms linear 741ms forwards;}.OgjNskUj_24{stroke-dasharray:788 790;stroke-dashoffset:789;animation:OgjNskUj_draw 2000ms linear 774ms forwards;}.OgjNskUj_25{stroke-dasharray:488 490;stroke-dashoffset:489;animation:OgjNskUj_draw 2000ms linear 806ms forwards;}.OgjNskUj_26{stroke-dasharray:488 490;stroke-dashoffset:489;animation:OgjNskUj_draw 2000ms linear 838ms forwards;}.OgjNskUj_27{stroke-dasharray:289 291;stroke-dashoffset:290;animation:OgjNskUj_draw 2000ms linear 870ms forwards;}.OgjNskUj_28{stroke-dasharray:99 101;stroke-dashoffset:100;animation:OgjNskUj_draw 2000ms linear 903ms forwards;}.OgjNskUj_29{stroke-dasharray:92 94;stroke-dashoffset:93;animation:OgjNskUj_draw 2000ms linear 935ms forwards;}.OgjNskUj_30{stroke-dasharray:617 619;stroke-dashoffset:618;animation:OgjNskUj_draw 2000ms linear 967ms forwards;}.OgjNskUj_31{stroke-dasharray:617 619;stroke-dashoffset:618;animation:OgjNskUj_draw 2000ms linear 1000ms forwards;}@keyframes OgjNskUj_draw{100%{stroke-dashoffset:0;}}@keyframes OgjNskUj_fade{0%{stroke-opacity:1;}94.44444444444444%{stroke-opacity:1;}100%{stroke-opacity:0;}}</style></svg>
