<?xml version="1.0" encoding="UTF-8"?>
<!DOCTYPE svg PUBLIC "-//W3C//DTD SVG 1.1//EN" "http://www.w3.org/Graphics/SVG/1.1/DTD/svg11.dtd">
<!-- Creator: CorelDRAW 2020 (64-Bit) -->
<svg xmlns="http://www.w3.org/2000/svg" xml:space="preserve" width="177.662mm" height="177.733mm" version="1.1" style="shape-rendering:geometricPrecision; text-rendering:geometricPrecision; image-rendering:optimizeQuality; fill-rule:evenodd; clip-rule:evenodd"
viewBox="0 0 3273.05 3274.37"
 xmlns:xlink="http://www.w3.org/1999/xlink"
 xmlns:xodm="http://www.corel.com/coreldraw/odm/2003">
 <defs>
  <style type="text/css">
   <![CDATA[
    .str1 {stroke:#FEFEFE;stroke-width:51.99;stroke-miterlimit:22.9256}
    .str0 {stroke:#A98F71;stroke-width:51.99;stroke-miterlimit:22.9256}
    .fil1 {fill:#A98F71}
    .fil0 {fill:#E3C9A3}
   ]]>
  </style>
 </defs>
 <g id="Layer_x0020_1">
  <metadata id="CorelCorpID_0Corel-Layer"/>
  <path class="fil0 str0" d="M684.68 30.8c-245.11,19.22 -415.41,150.58 -516.29,284.52 -152.18,202.07 -140.03,376.6 -140.03,668.69l0 1202.35c0,128.57 -6.79,276.88 2.61,403.11 18.07,242.64 152.35,417.84 283.38,515.94 204.15,152.84 372.54,140.15 665.54,140.15l1208.85 0c126.01,0 277.05,7.46 399.99,-1.88 239.85,-18.23 419.71,-152.54 515.55,-284.71 153.53,-211.71 140.51,-369.68 140.51,-668.61l0 -1202.35c0,-358.36 46.87,-669.62 -286.88,-918.7 -204.09,-152.32 -370.74,-140.46 -665.19,-140.46 -402.95,0 -805.9,0 -1208.85,0 -125.29,0 -277.86,-7.54 -399.2,1.97z"/>
  <path class="fil1 str1" d="M1385.02 1271.92l-190.32 1.18 0.24 385.86 193.32 1.28 0.96 966.39 387.54 0.34 0.43 -966.66 286.58 -0.45 35.23 -387.32 -306.72 -0.01c0.31,-79.93 -19.09,-201.31 40.08,-235.51 50.44,-29.15 199.48,2.64 262.18,-16.23l0.14 -325.88c-77.61,-9.93 -232,-3.69 -315.63,-1.88 -182.72,3.95 -324.01,89.13 -374.4,273.88 -30.23,110.83 -3.7,204.71 -19.62,305.01z"/>
 </g>
</svg>
