<?xml version="1.0" encoding="UTF-8"?>
<!DOCTYPE svg PUBLIC "-//W3C//DTD SVG 1.1//EN" "http://www.w3.org/Graphics/SVG/1.1/DTD/svg11.dtd">
<!-- Creator: CorelDRAW 2020 (64-Bit) -->
<svg xmlns="http://www.w3.org/2000/svg" xml:space="preserve" width="320.123mm" height="259.08mm" version="1.1" style="shape-rendering:geometricPrecision; text-rendering:geometricPrecision; image-rendering:optimizeQuality; fill-rule:evenodd; clip-rule:evenodd"
viewBox="0 0 80689.22 65302.9"
 xmlns:xlink="http://www.w3.org/1999/xlink"
 xmlns:xodm="http://www.corel.com/coreldraw/odm/2003">
 <defs>
  <style type="text/css">
   <![CDATA[
    .fil4 {fill:none}
    .fil0 {fill:#A98F71}
    .fil3 {fill:#A98F71;fill-rule:nonzero}
    .fil2 {fill:#E8D4B4;fill-rule:nonzero}
    .fil1 {fill:#E3C9A3;fill-rule:nonzero}
   ]]>
  </style>
 </defs>
 <g id="Layer_x0020_1">
  <metadata id="CorelCorpID_0Corel-Layer"/>
  <g id="_2330426026416">
   <g>
    <path class="fil0" d="M43271.7 23192.93c0,1014.53 -342.17,1938.87 -1018.96,2695.12 -694.11,775.53 -1604.44,1215.8 -2649.12,1215.8 -1048.2,0 -1967.2,-438.23 -2662.12,-1219.4 -672.66,-756.17 -1005.98,-1680.84 -1005.98,-2691.51 0,-1017.3 329.36,-1946.43 1009.18,-2706.03 695.32,-776.91 1615.13,-1204.88 2658.92,-1204.88 1040.19,0 1951.45,430.03 2645.89,1201.28 684.64,760.35 1022.19,1689.61 1022.19,2709.64zm-5392.58 21178.49c-278.95,43.45 -578.32,84.99 -859.03,84.99 -1206.39,0 -2229.54,-751.78 -2229.54,-2024.75 0,-1273.95 1028.11,-1920.67 2160.2,-2069.01 61.22,-688.47 41.69,-1531.27 41.69,-2135.2 0,-1709.27 -18.95,-3419.86 -77.36,-5128.2 -13.31,-389.1 -22.46,-1078.2 -79.05,-1620.07 -1103.35,-155.54 -2045.49,-838.54 -2045.49,-2048.31 0,-1261.75 1022.59,-1929.39 2155.44,-2038.43l309.1 -33.95 6177.48 -498.39 44.08 1687.12c69.97,2677.15 59.28,5372.89 59.28,8051.05l0 10.21 -44.06 3449.32c0.08,71.23 1.08,174.07 7.28,275.52 1116.41,176.41 2121.21,836.6 2121.21,2087.41 0,1272.84 -1019.02,2035.69 -2229.52,2035.69 -383.86,0 -776.69,-26.16 -1159.51,-53.16 -1003.11,-70.7 -2008.64,-110.85 -3014.3,-110.85 -447.15,0 -893.64,29.44 -1337.92,79.02z"/>
   </g>
   <path class="fil1" d="M41673.38 23192.93c0,634.17 -205.5,1175.42 -611.64,1629.19 -406.11,453.78 -890.52,683.4 -1458.12,683.4 -572.5,0 -1061.81,-229.62 -1467.93,-683.4 -401.22,-453.78 -601.86,-995.02 -601.86,-1629.19 0,-645.11 200.64,-1186.36 601.86,-1640.13 406.11,-448.31 895.43,-672.46 1467.93,-672.46 567.61,0 1052.01,224.15 1458.12,672.46 406.14,453.78 611.64,995.02 611.64,1640.13zm205.5 5396.03c39.14,1497.97 58.73,4165.92 58.73,8009.31l-44.06 3449.72c0,694.34 102.76,1159.03 308.29,1394.13 210.39,235.07 548.02,388.14 1012.84,464.69 538.24,76.55 807.36,246.03 807.36,513.92 0,289.74 -210.39,437.37 -631.2,437.37 -200.64,0 -548.05,-16.41 -1047.12,-49.2 -1052.01,-76.55 -2094.24,-114.81 -3126.69,-114.81 -508.85,0 -1022.64,32.79 -1551.08,92.93 -313.16,49.2 -528.44,71.08 -645.87,71.08 -420.81,0 -631.23,-142.16 -631.23,-426.43 0,-273.38 278.93,-437.39 836.73,-492.04 738.85,-76.55 1149.86,-349.91 1237.93,-825.54 83.2,-475.66 127.24,-1437.86 127.24,-2886.63 0,-1880.7 -24.47,-3608.29 -78.29,-5182.82 -53.84,-1574.52 -151.69,-2471.14 -293.6,-2695.29 -146.8,-224.15 -518.66,-371.76 -1125.41,-448.31 -469.73,-54.65 -704.6,-207.72 -704.6,-470.16 0,-256.95 239.78,-404.55 719.29,-448.31l298.49 -32.79 4472.24 -360.82z"/>
   <path class="fil2" d="M35141.4 52819.25l34.78 9.3 122.05 31.81 122.22 31.03 122.45 30.27 122.83 29.59 123.1 28.81 123.33 28.08 123.68 27.32 123.91 26.57 124.16 25.81 124.54 25.08 124.77 24.32 124.89 23.52 125.35 22.79 125.55 22 125.73 21.27 126.1 20.47 126.36 19.71 126.46 18.9 126.78 18.17 127.11 17.39 127.29 16.59 127.54 15.78 127.72 15.02 128.04 14.22 128.22 13.43 128.35 12.63 128.73 11.87 129 11.01 129.03 10.23 129.31 9.43 129.66 8.62 129.68 7.81 129.94 7.01 130.21 6.18 130.39 5.39 130.57 4.51 130.72 3.76 131.09 2.9 131.04 2.07 131.32 1.26 131.57 0.43c219.04,-0.71 436.79,-4.13 655.73,-10.41 217.5,-7.54 433.59,-17.85 650.79,-30.9 215.86,-14.34 430.31,-31.31 645.72,-51.17 214,-21.07 426.48,-44.64 639.87,-71.08 212.13,-27.65 422.65,-57.8 634,-90.77 210.06,-34.1 418.52,-70.65 627.65,-110.07 207.95,-40.51 414.18,-83.38 621.07,-129.08 205.63,-46.81 409.54,-95.86 613.93,-147.81 203.28,-52.98 404.75,-108.16 606.65,-166.18 200.81,-59.03 399.69,-120.26 598.96,-184.25 198.19,-65.03 394.47,-132.08 590.97,-202 195.47,-70.9 389,-143.77 582.68,-219.49 192.65,-76.65 383.28,-155.19 574.01,-236.56 189.65,-82.3 377.3,-166.43 564.91,-253.34 186.67,-87.84 371.23,-177.47 555.71,-269.83 183.47,-93.31 364.85,-188.29 546.03,-285.98 180.25,-98.63 358.32,-198.87 536.15,-301.86 176.89,-103.85 351.59,-209.26 525.92,-317.36 208.2,-130.84 413.02,-263.88 617.19,-400.95 169.1,-114.96 335.94,-231.39 502.25,-350.41 165.42,-119.88 328.56,-241.14 491.08,-364.98 161.67,-124.67 320.94,-250.65 479.56,-379.19 157.76,-129.38 313.13,-259.97 467.77,-393.11 153.7,-133.99 305.01,-269.07 455.54,-406.67 149.67,-138.48 296.92,-278.02 443.24,-420.05 174.62,-171.52 345.52,-344.46 514.93,-521.13 140.27,-147.98 277.99,-296.87 414.71,-448.13 135.81,-152.17 269.07,-305.14 401.25,-460.46 157.66,-187.56 311.47,-376.25 463.46,-568.44 125.73,-160.99 248.91,-322.61 370.73,-486.6 145.26,-197.86 286.56,-396.56 425.77,-598.74 115.11,-169.26 227.58,-339.02 338.56,-510.99 132.25,-207.62 260.45,-415.79 386.35,-627.32 104.02,-177.15 205.33,-354.57 305.01,-534.18 98.76,-180.52 194.81,-361.22 289.16,-544.06 93.49,-183.83 184.2,-367.78 273.13,-553.84 88.04,-186.98 173.26,-374.03 256.67,-563.12 82.5,-190.1 162.2,-380.18 239.98,-572.27 73.78,-185.44 145.21,-370.83 214.42,-558l-2634.42 -964.65c-84.09,227.38 -172.1,451.51 -264.51,675.61 -96.56,230.41 -196.55,456.95 -301.54,683.63 -75.67,160.84 -152.9,319.86 -232.5,478.78 -112.64,221.61 -228.36,439.28 -348.97,656.66 -86.86,154.23 -175.1,306.6 -265.64,458.69 -127.92,212.06 -258.64,420 -394.17,627.27 -117.03,176.64 -235.87,350.31 -358.17,523.35 -123.15,172.1 -248.02,341.21 -376.3,509.53 -150.78,195.42 -303.73,386.6 -461.44,576.45 -135.96,161.8 -273.41,320.49 -414.18,478.15 -141.61,156.8 -284.65,310.38 -430.87,462.85 -171.73,176.92 -345.17,349.33 -523.12,519.99 -179.01,169.68 -359.53,334.76 -544.52,497.89 -185.97,162.12 -373.37,319.53 -565.04,474.9 -137.55,110.07 -275.65,217.98 -415.79,324.72 -197.41,148.59 -395.88,292.44 -598.53,433.79 -174.57,120.26 -349.73,237.03 -527.83,352 -179.01,114.01 -358.53,224.58 -540.89,333.12 -183.32,107.68 -367.05,211.83 -553.57,313.86 -187.53,101.15 -375.26,198.72 -565.74,294.13 -159.55,78.67 -319.15,154.96 -480.55,229.72 -227.36,103.67 -454.63,202.23 -685.67,297.45 -165.83,67.15 -331.53,131.93 -498.97,194.99 -235.98,87.24 -471.45,169.38 -710.5,247.77 -171.63,55.15 -342.92,107.83 -515.86,158.69 -243.94,70.07 -486.92,135 -733.28,195.97 -176.94,42.6 -353.43,82.75 -531.36,120.89 -251.22,52.23 -501.09,99.29 -754.08,142.01 -218.38,35.51 -435.73,67.3 -655.15,95.88 -221.21,27.42 -441.15,51.12 -663.09,71.56 -186.27,15.93 -371.61,29.47 -558.23,40.68 -263.85,14.24 -525.54,23.29 -789.74,27.47l-227.3 1.44 -113.73 -0.35 -113.6 -1.08 -113.5 -1.79 -113.07 -2.5 -113.07 -3.23 -112.82 -3.93 -112.62 -4.64 -112.42 -5.34 -112.24 -6.05 -112.17 -6.76 -111.71 -7.44 -111.69 -8.14 -111.51 -8.85 -111.13 -9.5 -111.01 -10.21 -110.93 -10.91 -110.63 -11.59 -110.35 -12.28 -110.22 -12.96 -109.97 -13.61 -109.77 -14.32 -109.47 -14.95 -109.32 -15.65 -109.19 -16.33 -108.81 -16.99 -108.59 -17.64 -108.51 -18.32 -108.16 -18.95 -107.91 -19.64 -107.8 -20.32 -107.48 -20.95 -107.17 -21.58 -107.02 -22.26 -106.77 -22.89 -106.49 -23.54 -106.32 -24.17 -106.02 -24.83 -105.74 -25.46 -105.61 -26.11 -105.28 -26.74 -104.88 -27.32 -34.78 -9.3 -716.09 2712.56z"/>
   <path class="fil1" d="M23724.54 21421.88c-288.96,408.86 -559.24,828.51 -817.87,1257.06 -105.03,176.44 -207.39,353.18 -308.11,532.09 -99.81,179.87 -196.93,359.91 -292.36,542.15 -94.55,183.17 -186.32,366.47 -276.36,551.88 -89.13,186.42 -175.48,372.87 -260.02,561.41 -83.58,189.47 -164.42,378.92 -243.34,570.4 -77.91,192.45 -153.1,384.79 -226.27,579.1 -72.24,195.39 -141.66,390.56 -209.03,587.7 -66.39,198.17 -129.94,396.03 -191.39,595.76 -60.44,200.84 -118.01,401.27 -173.44,603.58 -54.39,203.46 -105.91,406.42 -155.22,611.19 -48.22,205.88 -93.56,411.18 -136.61,618.22 -41.94,208.22 -81.04,415.82 -117.71,625.05 -35.57,210.47 -68.26,420.15 -98.5,631.45 -29.09,212.64 -55.33,424.39 -79.02,637.7 -22.46,214.6 -42.14,428.19 -59.16,643.3 -15.83,216.52 -28.76,431.97 -39.07,648.82 -9,218.28 -15.17,435.35 -18.6,653.81l-1.69 262.87c0.68,219.04 4.13,436.79 10.38,655.73 7.56,217.5 17.85,433.59 30.9,650.81 14.34,215.86 31.33,430.29 51.19,645.72 21.05,214 44.64,426.45 71.08,639.85 27.65,212.13 57.77,422.65 90.74,634.02 34.13,210.06 70.7,418.46 110.07,627.62 40.51,207.95 83.41,414.18 129.1,621.07 46.81,205.63 95.88,409.52 147.78,613.93 52.98,203.28 108.16,404.78 166.21,606.7 59.03,200.79 120.23,399.66 184.23,598.94 65.03,198.19 132.13,394.44 202.02,590.97 70.88,195.47 143.77,388.97 219.47,582.65 76.65,192.67 155.22,383.3 236.58,574.03 82.3,189.67 166.43,377.3 253.32,564.91 87.89,186.67 177.5,371.25 269.88,555.73 93.29,183.5 188.26,364.88 285.98,546.03 98.63,180.25 198.87,358.35 301.84,536.15 103.87,176.87 209.26,351.52 317.34,525.82 108.96,173.47 219.49,344.66 332.61,515.43 114.03,169.89 229.47,337.48 347.56,504.59 118.92,166.18 239.18,330.07 362.05,493.3 123.76,162.43 248.75,322.48 376.37,481.88 128.47,158.54 258.11,314.74 390.36,470.14 133.06,154.56 267.26,306.68 403.97,458.01 165.17,180.7 331.96,357.72 502.48,533.38 171.5,174.6 344.44,345.52 521.1,514.9l177.7 167.44c225.84,208.96 453.95,412.84 688.27,612.3l1811.46 -2142.33c-307.71,-261.69 -603.35,-532.9 -893.14,-814.22 -150.7,-148.06 -298.23,-297.3 -444.48,-449.77 -169.66,-179.01 -334.71,-359.53 -497.84,-544.49 -162.12,-186.02 -319.58,-373.4 -474.93,-565.09 -132.18,-165.15 -261,-331.1 -388.19,-500.11 -147.4,-198.37 -290.09,-397.7 -430.26,-601.26 -99.31,-146.02 -196.33,-292.44 -292.06,-440.8 -133.14,-208.98 -261.33,-418.64 -386.81,-632.31 -88.75,-153.3 -175.18,-306.8 -260.22,-462.17 -118.01,-218.94 -231.16,-438.07 -341.13,-661.17 -77.76,-160.06 -153.07,-320.21 -226.9,-482.11 -102.28,-228.11 -199.58,-456.1 -293.39,-687.84 -66.19,-166.33 -129.96,-332.54 -192.04,-500.43 -85.83,-236.68 -166.51,-472.83 -243.54,-712.54 -64.98,-206.66 -126.31,-412.79 -184.83,-621.4 -57.52,-209.96 -111.33,-419.2 -162.32,-630.85 -41.49,-177.4 -80.58,-354.27 -117.66,-532.62 -43.4,-215.58 -83.15,-430.21 -119.75,-647.03 -35.51,-218.41 -67.3,-435.73 -95.88,-655.15 -27.42,-221.23 -51.14,-441.15 -71.56,-663.11 -15.93,-186.24 -29.47,-371.61 -40.68,-558.2 -14.27,-263.88 -23.32,-525.54 -27.5,-789.77l-1.41 -227.3c0.68,-227.23 4.97,-452.69 12.88,-679.8 9.28,-225.04 21.98,-448.18 38.36,-672.82 17.64,-222.74 38.64,-443.52 63.34,-665.58 25.86,-220.32 55.02,-438.53 87.82,-657.92 28.28,-181.38 58.68,-361.37 91.55,-541.97 47.34,-251.4 98.93,-499.63 155.7,-749.06 49.63,-212.08 102.18,-421.87 158.47,-632.28 57.29,-209.13 117.36,-415.82 181.13,-623.06 64.75,-205.96 132.2,-409.44 203.31,-613.3 72.06,-202.63 146.72,-402.69 224.99,-603 79.27,-199.2 160.94,-395.75 246.31,-592.41 86.25,-195.6 174.88,-388.47 267.08,-581.32 77.61,-159.78 156.68,-317.74 238.17,-475.58 115.22,-220.05 233.45,-436.13 356.64,-651.82l106.77 -183.17c239.58,-402.51 491.33,-795.64 761.72,-1178.24l-2295.96 -1612.21z"/>
   <path class="fil3" d="M60668.48 31267.87c-26.24,-285.15 -58.48,-567.91 -95.45,-851.88 -28.96,-211.73 -60.39,-421.87 -94.67,-632.81 -35.41,-209.64 -73.22,-417.58 -113.88,-626.26 -41.79,-207.49 -85.9,-413.3 -132.86,-619.68 -48.04,-205.2 -98.35,-408.63 -151.51,-612.6 -54.22,-202.75 -110.6,-403.69 -169.81,-605.06 -60.24,-200.26 -122.63,-398.68 -187.83,-597.4 -66.22,-197.66 -134.47,-393.39 -205.53,-589.36 -72.06,-194.89 -146.07,-387.76 -222.87,-580.81 -77.78,-192.12 -157.49,-382.17 -239.98,-572.29 -83.41,-189.09 -168.65,-376.12 -256.67,-563.12 -88.95,-186.04 -179.64,-370.02 -273.13,-553.84 -94.34,-182.84 -190.38,-363.57 -289.16,-544.06 -99.66,-179.59 -200.99,-356.99 -304.99,-534.13 -104.88,-176.21 -211.32,-350.21 -320.44,-523.82 -110.02,-172.73 -221.48,-343.2 -335.61,-513.24 -114.99,-169.1 -231.39,-335.94 -350.38,-502.25 -119.93,-165.45 -241.19,-328.61 -365.05,-491.16 -124.64,-161.62 -250.62,-320.92 -379.14,-479.51 -129.41,-157.76 -259.97,-313.1 -393.11,-467.74 -134.02,-153.73 -269.1,-305.09 -406.72,-455.59 -166.23,-179.67 -334,-355.65 -505.53,-530.28 -143.75,-144.6 -288.45,-286.74 -435.63,-427.87 -147.96,-140.24 -296.85,-277.99 -448.11,-414.68 -152.17,-135.81 -305.11,-269.1 -460.46,-401.25 -156.22,-131.35 -313.21,-260.1 -472.56,-387.61 -160.18,-126.68 -321.04,-250.77 -484.23,-373.57 -164.04,-121.92 -328.63,-241.22 -495.54,-359.16 -167.82,-117.11 -336.17,-231.56 -506.79,-344.59 -171.47,-112.11 -343.38,-221.61 -517.47,-329.59 -175.05,-107.02 -350.41,-211.43 -527.96,-314.26 -178.51,-101.93 -357.27,-201.14 -538.19,-298.71 -181.86,-96.66 -363.89,-190.61 -548.05,-282.81 -185.06,-91.27 -370.25,-179.79 -557.47,-266.52 -188.26,-85.8 -376.55,-168.85 -566.85,-250.04 -191.29,-80.25 -382.5,-157.64 -575.7,-233.15 -194.23,-74.56 -388.34,-146.27 -584.37,-216.01 -197.06,-68.71 -393.86,-134.62 -592.59,-198.47 -199.81,-62.84 -399.23,-122.8 -600.55,-180.67 -202.4,-56.79 -404.37,-110.78 -608.14,-162.53 -204.92,-50.66 -409.29,-98.55 -615.42,-144.08 -207.29,-44.46 -413.93,-86.05 -622.28,-125.3 -209.66,-38.14 -418.54,-73.4 -629.06,-106.24 -211.78,-31.68 -422.7,-60.52 -635.21,-86.86 -213.79,-25.13 -426.68,-47.39 -641.06,-67.15 -215.76,-18.48 -430.49,-34.1 -646.65,-47.11 -217.6,-11.75 -434.04,-20.62 -651.84,-26.84 -175.2,-3.91 -349.75,-6.1 -525.01,-6.65 -219.06,0.68 -436.79,4.13 -655.75,10.38 -217.47,7.56 -433.56,17.85 -650.79,30.9 -215.86,14.34 -430.31,31.33 -645.72,51.19 -214,21.05 -426.45,44.64 -639.87,71.08 -212.13,27.65 -422.65,57.77 -634,90.74 -210.06,34.13 -418.49,70.7 -627.62,110.07 -207.97,40.51 -414.2,83.41 -621.07,129.1 -205.65,46.81 -409.52,95.88 -613.93,147.78 -203.31,52.98 -404.78,108.16 -606.7,166.21 -200.79,59.03 -399.69,120.23 -598.94,184.23 -198.19,65.03 -394.44,132.13 -590.97,202.02 -195.47,70.88 -388.97,143.77 -582.65,219.47 -192.65,76.63 -383.25,155.19 -573.96,236.53 -189.7,82.32 -377.35,166.46 -564.99,253.37 -186.67,87.89 -371.25,177.5 -555.76,269.88 -183.47,93.29 -364.85,188.26 -546.01,285.98 -104.45,57.14 -208.38,114.76 -312.15,173.16l1383.84 2440.44c212.84,-119.88 426.35,-234.69 643.4,-346.73 190.23,-96.69 380.53,-189.82 573.61,-280.67 161.64,-74.89 323.29,-147.4 486.75,-218.28 230.35,-98.3 460.48,-191.46 694.32,-281.19 167.77,-63.19 335.34,-123.99 504.62,-182.99 238.7,-81.57 476.77,-158.12 718.34,-230.76 208.32,-61.25 416.07,-118.87 626.18,-173.62 211.55,-53.74 422.35,-103.75 635.46,-150.88 178.63,-38.29 356.71,-74.13 536.25,-107.96 253.47,-46.13 505.47,-87.04 760.48,-123.53 220.25,-30.1 439.31,-56.56 660.41,-79.7 222.92,-21.9 444.48,-40.18 667.98,-55.07 187.68,-11.29 374.38,-20.16 562.26,-26.69 189.32,-5.42 377.58,-8.37 566.98,-8.95 227.2,0.68 452.69,4.97 679.77,12.88 225.04,9.28 448.21,21.98 672.84,38.36 222.74,17.64 443.52,38.64 665.58,63.34 220.32,25.86 438.53,55.02 657.92,87.82 181.38,28.28 361.37,58.68 541.97,91.55 251.4,47.34 499.6,98.93 749.04,155.7 212.11,49.66 421.87,102.18 632.31,158.47 209.11,57.29 415.82,117.36 623.03,181.13 205.98,64.75 409.47,132.2 613.33,203.31 202.63,72.06 402.69,146.72 603,225.01 165.93,66.04 330.17,133.69 494.46,203.79 228.94,99.31 454.11,201.95 679.27,309.58 159.78,77.61 317.74,156.68 475.58,238.17 220.05,115.22 436.13,233.45 651.82,356.64 153.12,88.62 304.33,178.66 455.26,271.01 210.39,130.41 416.62,263.55 622.15,401.48 145.92,99.23 289.84,199.65 433.34,302.34 199.98,144.91 395.65,292.21 590.32,444.22 165.85,131.15 328.61,263.83 490.45,399.86 161.01,136.97 318.8,275.35 475.68,417 181.98,166.41 359.53,334.66 535.44,507.47 174.88,173.82 345.22,349.35 513.77,529.32 167.49,181 330.45,363.47 491.31,550.39 136.99,161.01 270.66,322.99 402.76,488.06 131.25,165.93 259.09,332.69 385.29,502.5 125.27,170.72 247.17,342.09 367.27,516.49 99.29,146.02 196.3,292.44 292.06,440.8 133.11,209.01 261.31,418.64 386.78,632.28 88.72,153.3 175.18,306.8 260.2,462.2 118.09,218.89 231.19,438.1 341.18,661.17 93.34,192.22 183.12,384.49 270.53,579.45 86.48,196 169.36,391.95 249.76,590.52 66.19,166.31 129.96,332.54 192.02,500.43 85.85,236.68 166.53,472.83 243.56,712.51 64.98,206.69 126.28,412.79 184.83,621.4 57.52,209.94 111.36,419.22 162.3,630.87 49.86,213.06 96.08,425.3 139.26,639.8 42.12,216.06 80.51,431.14 115.82,648.42 28.43,182.21 54.39,363.72 78.24,546.56 26.31,212.36 49.53,423.76 69.14,636.82l2792.84 -265.97z"/>
  </g>
  <rect class="fil4" x="-0.01" y="-0.02" width="80689.23" height="65302.9"/>
 </g>
</svg>
