<?xml version="1.0" encoding="UTF-8"?>
<!DOCTYPE svg PUBLIC "-//W3C//DTD SVG 1.1//EN" "http://www.w3.org/Graphics/SVG/1.1/DTD/svg11.dtd">
<!-- Creator: CorelDRAW 2020 (64-Bit) -->
<svg xmlns="http://www.w3.org/2000/svg" xml:space="preserve" width="23.4938mm" height="19.2716mm" version="1.1" style="shape-rendering:geometricPrecision; text-rendering:geometricPrecision; image-rendering:optimizeQuality; fill-rule:evenodd; clip-rule:evenodd"
viewBox="0 0 2329.14 1910.55"
 xmlns:xlink="http://www.w3.org/1999/xlink"
 xmlns:xodm="http://www.corel.com/coreldraw/odm/2003">
 <defs>
  <style type="text/css">
   <![CDATA[
    .str0 {stroke:#D2AE6D;stroke-width:26.23;stroke-miterlimit:22.9256}
    .str1 {stroke:#D2AE6D;stroke-width:7.55;stroke-miterlimit:22.9256}
    .fil1 {fill:#D2AE6D}
    .fil0 {fill:#F2E5D2}
   ]]>
  </style>
 </defs>
 <g id="Layer_x0020_1">
  <metadata id="CorelCorpID_0Corel-Layer"/>
  <path class="fil0 str0" d="M52.49 653.83l601.35 -601.35c52.49,-52.49 138.4,-52.49 190.9,0l1011.8 1011.81c52.5,52.49 52.5,138.4 0,190.9l-601.35 601.35c-52.5,52.49 -138.4,52.49 -190.9,0l-1011.8 -1011.81c-52.5,-52.49 -52.5,-138.4 0,-190.9z"/>
  <path class="fil1 str1" d="M12.49 930.07l133.92 -133.92c1.51,-1.5 3.96,-1.5 5.45,0l17.22 17.22c1.5,1.5 1.5,3.95 0,5.45l-133.92 133.92c-1.5,1.5 -3.96,1.5 -5.45,0l-17.22 -17.22c-1.5,-1.5 -1.5,-3.96 0,-5.45z"/>
  <path class="fil1 str1" d="M82.89 1000.46l133.92 -133.92c1.5,-1.5 3.96,-1.5 5.45,0l17.22 17.21c1.5,1.51 1.5,3.96 0,5.46l-133.92 133.91c-1.5,1.51 -3.96,1.51 -5.45,0l-17.22 -17.21c-1.5,-1.5 -1.5,-3.96 0,-5.45z"/>
  <path class="fil1 str1" d="M153.29 1070.85l133.92 -133.91c1.5,-1.51 3.96,-1.51 5.45,0l17.21 17.21c1.5,1.5 1.5,3.96 0,5.45l-133.91 133.92c-1.51,1.5 -3.96,1.5 -5.46,0l-17.21 -17.21c-1.5,-1.51 -1.5,-3.96 0,-5.46z"/>
  <path class="fil1 str1" d="M223.69 1141.25l133.91 -133.92c1.51,-1.5 3.97,-1.5 5.46,0l17.21 17.22c1.5,1.5 1.5,3.95 0,5.45l-133.92 133.92c-1.5,1.5 -3.96,1.5 -5.45,0l-17.21 -17.21c-1.5,-1.51 -1.5,-3.97 0,-5.46z"/>
  <path class="fil1 str1" d="M294.08 1211.65l133.91 -133.92c1.5,-1.51 3.96,-1.51 5.45,0l17.22 17.21c1.5,1.51 1.5,3.96 0,5.45l-133.92 133.92c-1.51,1.51 -3.96,1.51 -5.45,0l-17.21 -17.21c-1.51,-1.5 -1.51,-3.96 0,-5.45z"/>
  <path class="fil0 str0" d="M2276.64 655.36l-601.35 -601.34c-52.5,-52.5 -138.41,-52.5 -190.9,0l-1011.81 1011.8c-52.49,52.5 -52.49,138.41 0,190.9l601.35 601.35c52.5,52.49 138.41,52.49 190.9,0l1011.81 -1011.81c52.49,-52.49 52.49,-138.4 0,-190.9z"/>
  <path class="fil1 str1" d="M2316.63 931.6l-133.92 -133.92c-1.51,-1.5 -3.96,-1.5 -5.46,0l-17.21 17.22c-1.5,1.5 -1.5,3.96 0,5.45l133.92 133.92c1.5,1.5 3.96,1.5 5.46,0l17.21 -17.22c1.5,-1.5 1.5,-3.96 0,-5.45z"/>
  <path class="fil1 str1" d="M2246.24 1002l-133.92 -133.92c-1.5,-1.5 -3.96,-1.5 -5.45,0l-17.21 17.22c-1.51,1.5 -1.51,3.95 0,5.45l133.91 133.92c1.51,1.5 3.96,1.5 5.46,0l17.21 -17.22c1.5,-1.5 1.5,-3.96 0,-5.45z"/>
  <path class="fil1 str1" d="M2175.84 1072.39l-133.91 -133.91c-1.51,-1.5 -3.96,-1.5 -5.46,0l-17.21 17.21c-1.5,1.51 -1.5,3.96 0,5.46l133.92 133.91c1.5,1.5 3.96,1.5 5.45,0l17.21 -17.21c1.51,-1.5 1.51,-3.96 0,-5.46z"/>
  <path class="fil1 str1" d="M2105.45 1142.79l-133.92 -133.91c-1.51,-1.51 -3.96,-1.51 -5.45,0l-17.22 17.21c-1.5,1.5 -1.5,3.96 0,5.45l133.92 133.92c1.5,1.5 3.96,1.5 5.45,0l17.22 -17.21c1.5,-1.51 1.5,-3.97 0,-5.46z"/>
  <path class="fil1 str1" d="M2035.05 1213.19l-133.92 -133.92c-1.5,-1.5 -3.96,-1.5 -5.45,0l-17.21 17.21c-1.51,1.51 -1.51,3.96 0,5.46l133.91 133.92c1.5,1.5 3.96,1.5 5.46,0l17.21 -17.22c1.5,-1.5 1.5,-3.96 0,-5.45z"/>
  <path class="fil1 str1" d="M1775.54 1472.7l-133.92 -133.92c-1.51,-1.5 -3.96,-1.5 -5.46,0l-17.21 17.22c-1.5,1.5 -1.5,3.96 0,5.45l133.92 133.92c1.5,1.5 3.96,1.5 5.45,0l17.22 -17.22c1.5,-1.5 1.5,-3.95 0,-5.45z"/>
  <path class="fil1 str1" d="M1705.14 1543.1l-133.92 -133.92c-1.5,-1.5 -3.96,-1.5 -5.45,0l-17.21 17.22c-1.51,1.5 -1.51,3.95 0,5.45l133.91 133.92c1.51,1.5 3.96,1.5 5.46,0l17.21 -17.22c1.5,-1.5 1.5,-3.96 0,-5.45z"/>
  <path class="fil1 str1" d="M1634.74 1613.5l-133.92 -133.92c-1.5,-1.5 -3.95,-1.5 -5.45,0l-17.21 17.21c-1.5,1.51 -1.5,3.96 0,5.46l133.92 133.91c1.5,1.5 3.96,1.5 5.45,0l17.21 -17.21c1.51,-1.5 1.51,-3.96 0,-5.45z"/>
  <path class="fil1 str1" d="M1564.35 1683.88l-133.92 -133.91c-1.51,-1.51 -3.96,-1.51 -5.45,0l-17.22 17.21c-1.5,1.5 -1.5,3.96 0,5.45l133.92 133.92c1.5,1.5 3.96,1.5 5.45,0l17.22 -17.21c1.5,-1.51 1.5,-3.97 0,-5.46z"/>
  <path class="fil1 str1" d="M1493.96 1754.28l-133.92 -133.92c-1.5,-1.5 -3.96,-1.5 -5.45,0l-17.21 17.22c-1.51,1.5 -1.51,3.95 0,5.45l133.91 133.92c1.5,1.5 3.96,1.5 5.46,0l17.21 -17.22c1.5,-1.5 1.5,-3.96 0,-5.45z"/>
 </g>
</svg>
