<?xml version="1.0" encoding="UTF-8"?>
<!DOCTYPE svg PUBLIC "-//W3C//DTD SVG 1.1//EN" "http://www.w3.org/Graphics/SVG/1.1/DTD/svg11.dtd">
<!-- Creator: CorelDRAW 2020 (64-Bit) -->
<svg xmlns="http://www.w3.org/2000/svg" xml:space="preserve" width="40.4741mm" height="33.3077mm" version="1.1" style="shape-rendering:geometricPrecision; text-rendering:geometricPrecision; image-rendering:optimizeQuality; fill-rule:evenodd; clip-rule:evenodd"
viewBox="0 0 356.66 293.51"
 xmlns:xlink="http://www.w3.org/1999/xlink"
 xmlns:xodm="http://www.corel.com/coreldraw/odm/2003">
 <defs>
  <style type="text/css">
   <![CDATA[
    .str2 {stroke:#FEFEFE;stroke-width:9.33;stroke-miterlimit:22.9256}
    .str0 {stroke:#FEFEFE;stroke-width:6.22;stroke-miterlimit:22.9256}
    .str3 {stroke:#FEFEFE;stroke-width:4.66;stroke-miterlimit:22.9256}
    .str1 {stroke:#FEFEFE;stroke-width:0.67;stroke-miterlimit:22.9256}
    .fil0 {fill:none}
    .fil1 {fill:#FEFEFE}
   ]]>
  </style>
 </defs>
 <g id="Layer_x0020_1">
  <metadata id="CorelCorpID_0Corel-Layer"/>
  <path class="fil0 str0" d="M73.3 191.5l-12.87 -12.61m-3.45 -3.38l-7.27 -7.13m-3.46 -3.38l-7.27 -7.13m-3.45 -3.38l-7.27 -7.12m-3.45 -3.38l-7.27 -7.13m-3.45 -3.38l-3.45 -3.38c-7.99,-7.84 -7.92,-20.87 0,-28.79l90.69 -90.69c7.92,-7.92 20.87,-7.92 28.79,0l49.14 49.14"/>
  <path class="fil1 str1" d="M4.6 142.95l20.2 -20.2c0.23,-0.23 0.6,-0.23 0.82,0l2.6 2.6c0.23,0.23 0.23,0.6 0,0.82l-20.2 20.2c-0.23,0.23 -0.6,0.23 -0.82,0l-2.6 -2.6c-0.23,-0.23 -0.23,-0.6 0,-0.82z"/>
  <path class="fil1 str1" d="M15.21 153.57l20.2 -20.2c0.23,-0.23 0.6,-0.23 0.82,0l2.6 2.6c0.23,0.23 0.23,0.6 0,0.82l-20.2 20.2c-0.23,0.23 -0.6,0.23 -0.82,0l-2.6 -2.6c-0.23,-0.23 -0.23,-0.6 0,-0.82z"/>
  <path class="fil1 str1" d="M25.83 164.19l20.2 -20.2c0.23,-0.23 0.6,-0.23 0.82,0l2.6 2.6c0.23,0.23 0.23,0.6 0,0.82l-20.2 20.2c-0.23,0.23 -0.6,0.23 -0.82,0l-2.6 -2.6c-0.23,-0.23 -0.23,-0.6 0,-0.82z"/>
  <path class="fil1 str1" d="M36.45 174.8l20.2 -20.2c0.23,-0.23 0.6,-0.23 0.82,0l2.6 2.6c0.23,0.23 0.23,0.6 0,0.82l-20.2 20.2c-0.23,0.23 -0.6,0.23 -0.82,0l-2.6 -2.6c-0.23,-0.23 -0.23,-0.6 0,-0.82z"/>
  <path class="fil1 str1" d="M47.06 185.42l20.2 -20.2c0.23,-0.23 0.6,-0.23 0.82,0l2.6 2.6c0.23,0.23 0.23,0.6 0,0.82l-20.2 20.2c-0.23,0.23 -0.6,0.23 -0.82,0l-2.6 -2.6c-0.23,-0.23 -0.23,-0.6 0,-0.82z"/>
  <path class="fil0 str0" d="M346.06 101.53l-90.69 -90.69c-7.92,-7.92 -20.87,-7.92 -28.79,0l-152.59 152.59c-7.92,7.92 -7.92,20.87 0,28.79l90.69 90.69c7.92,7.92 20.87,7.92 28.79,0l152.59 -152.59c7.92,-7.92 7.92,-20.87 0,-28.79z"/>
  <g id="_1734889418272">
   <path class="fil1 str1" d="M352.09 143.19l-20.2 -20.2c-0.23,-0.23 -0.6,-0.23 -0.82,0l-2.6 2.6c-0.23,0.23 -0.23,0.6 0,0.82l20.2 20.2c0.23,0.23 0.6,0.23 0.82,0l2.6 -2.6c0.23,-0.23 0.23,-0.6 0,-0.82z"/>
   <path class="fil1 str1" d="M341.48 153.8l-20.2 -20.2c-0.23,-0.23 -0.6,-0.23 -0.82,0l-2.6 2.6c-0.23,0.23 -0.23,0.6 0,0.82l20.2 20.2c0.23,0.23 0.6,0.23 0.82,0l2.6 -2.6c0.23,-0.23 0.23,-0.6 0,-0.82z"/>
   <path class="fil1 str1" d="M330.86 164.42l-20.2 -20.2c-0.23,-0.23 -0.6,-0.23 -0.82,0l-2.6 2.6c-0.23,0.23 -0.23,0.6 0,0.82l20.2 20.2c0.23,0.23 0.6,0.23 0.82,0l2.6 -2.6c0.23,-0.23 0.23,-0.6 0,-0.82z"/>
   <path class="fil1 str1" d="M320.24 175.04l-20.2 -20.2c-0.23,-0.23 -0.6,-0.23 -0.82,0l-2.6 2.6c-0.23,0.23 -0.23,0.6 0,0.82l20.2 20.2c0.23,0.23 0.6,0.23 0.82,0l2.6 -2.6c0.23,-0.23 0.23,-0.6 0,-0.82z"/>
   <path class="fil1 str1" d="M309.63 185.65l-20.2 -20.2c-0.23,-0.23 -0.6,-0.23 -0.82,0l-2.6 2.6c-0.23,0.23 -0.23,0.6 0,0.82l20.2 20.2c0.23,0.23 0.6,0.23 0.82,0l2.6 -2.6c0.23,-0.23 0.23,-0.6 0,-0.82z"/>
  </g>
  <path class="fil1 str1" d="M270.49 224.79l-20.2 -20.2c-0.23,-0.23 -0.6,-0.23 -0.82,0l-2.6 2.6c-0.23,0.23 -0.23,0.6 0,0.82l20.2 20.2c0.23,0.23 0.6,0.23 0.82,0l2.6 -2.6c0.23,-0.23 0.23,-0.6 0,-0.82z"/>
  <path class="fil1 str1" d="M259.87 235.41l-20.2 -20.2c-0.23,-0.23 -0.6,-0.23 -0.82,0l-2.6 2.6c-0.23,0.23 -0.23,0.6 0,0.82l20.2 20.2c0.23,0.23 0.6,0.23 0.82,0l2.6 -2.6c0.23,-0.23 0.23,-0.6 0,-0.82z"/>
  <path class="fil1 str1" d="M249.26 246.02l-20.2 -20.2c-0.23,-0.23 -0.6,-0.23 -0.82,0l-2.6 2.6c-0.23,0.23 -0.23,0.6 0,0.82l20.2 20.2c0.23,0.23 0.6,0.23 0.82,0l2.6 -2.6c0.23,-0.23 0.23,-0.6 0,-0.82z"/>
  <path class="fil1 str1" d="M238.64 256.64l-20.2 -20.2c-0.23,-0.23 -0.6,-0.23 -0.82,0l-2.6 2.6c-0.23,0.23 -0.23,0.6 0,0.82l20.2 20.2c0.23,0.23 0.6,0.23 0.82,0l2.6 -2.6c0.23,-0.23 0.23,-0.6 0,-0.82z"/>
  <path class="fil1 str1" d="M228.02 267.26l-20.2 -20.2c-0.23,-0.23 -0.6,-0.23 -0.82,0l-2.6 2.6c-0.23,0.23 -0.23,0.6 0,0.82l20.2 20.2c0.23,0.23 0.6,0.23 0.82,0l2.6 -2.6c0.23,-0.23 0.23,-0.6 0,-0.82z"/>
  <path class="fil0 str2" d="M73.3 191.5l-12.87 -12.61m-3.45 -3.38l-7.27 -7.13m-3.46 -3.38l-7.27 -7.13m-3.45 -3.38l-7.27 -7.12m-3.45 -3.38l-7.27 -7.13m-3.45 -3.38l-3.45 -3.38c-7.99,-7.84 -7.92,-20.87 0,-28.79l90.69 -90.69c7.92,-7.92 20.87,-7.92 28.79,0l49.14 49.14"/>
  <path class="fil1 str3" d="M4.6 142.95l20.2 -20.2c0.23,-0.23 0.6,-0.23 0.82,0l2.6 2.6c0.23,0.23 0.23,0.6 0,0.82l-20.2 20.2c-0.23,0.23 -0.6,0.23 -0.82,0l-2.6 -2.6c-0.23,-0.23 -0.23,-0.6 0,-0.82z"/>
  <path class="fil1 str3" d="M15.21 153.57l20.2 -20.2c0.23,-0.23 0.6,-0.23 0.82,0l2.6 2.6c0.23,0.23 0.23,0.6 0,0.82l-20.2 20.2c-0.23,0.23 -0.6,0.23 -0.82,0l-2.6 -2.6c-0.23,-0.23 -0.23,-0.6 0,-0.82z"/>
  <path class="fil1 str3" d="M25.83 164.19l20.2 -20.2c0.23,-0.23 0.6,-0.23 0.82,0l2.6 2.6c0.23,0.23 0.23,0.6 0,0.82l-20.2 20.2c-0.23,0.23 -0.6,0.23 -0.82,0l-2.6 -2.6c-0.23,-0.23 -0.23,-0.6 0,-0.82z"/>
  <path class="fil1 str3" d="M36.45 174.8l20.2 -20.2c0.23,-0.23 0.6,-0.23 0.82,0l2.6 2.6c0.23,0.23 0.23,0.6 0,0.82l-20.2 20.2c-0.23,0.23 -0.6,0.23 -0.82,0l-2.6 -2.6c-0.23,-0.23 -0.23,-0.6 0,-0.82z"/>
  <path class="fil1 str3" d="M47.06 185.42l20.2 -20.2c0.23,-0.23 0.6,-0.23 0.82,0l2.6 2.6c0.23,0.23 0.23,0.6 0,0.82l-20.2 20.2c-0.23,0.23 -0.6,0.23 -0.82,0l-2.6 -2.6c-0.23,-0.23 -0.23,-0.6 0,-0.82z"/>
  <path class="fil0 str2" d="M346.06 101.53l-90.69 -90.69c-7.92,-7.92 -20.87,-7.92 -28.79,0l-152.59 152.59c-7.92,7.92 -7.92,20.87 0,28.79l90.69 90.69c7.92,7.92 20.87,7.92 28.79,0l152.59 -152.59c7.92,-7.92 7.92,-20.87 0,-28.79z"/>
  <g id="_1734889421872">
   <path class="fil1 str3" d="M352.09 143.19l-20.2 -20.2c-0.23,-0.23 -0.6,-0.23 -0.82,0l-2.6 2.6c-0.23,0.23 -0.23,0.6 0,0.82l20.2 20.2c0.23,0.23 0.6,0.23 0.82,0l2.6 -2.6c0.23,-0.23 0.23,-0.6 0,-0.82z"/>
   <path class="fil1 str3" d="M341.48 153.8l-20.2 -20.2c-0.23,-0.23 -0.6,-0.23 -0.82,0l-2.6 2.6c-0.23,0.23 -0.23,0.6 0,0.82l20.2 20.2c0.23,0.23 0.6,0.23 0.82,0l2.6 -2.6c0.23,-0.23 0.23,-0.6 0,-0.82z"/>
   <path class="fil1 str3" d="M330.86 164.42l-20.2 -20.2c-0.23,-0.23 -0.6,-0.23 -0.82,0l-2.6 2.6c-0.23,0.23 -0.23,0.6 0,0.82l20.2 20.2c0.23,0.23 0.6,0.23 0.82,0l2.6 -2.6c0.23,-0.23 0.23,-0.6 0,-0.82z"/>
   <path class="fil1 str3" d="M320.24 175.04l-20.2 -20.2c-0.23,-0.23 -0.6,-0.23 -0.82,0l-2.6 2.6c-0.23,0.23 -0.23,0.6 0,0.82l20.2 20.2c0.23,0.23 0.6,0.23 0.82,0l2.6 -2.6c0.23,-0.23 0.23,-0.6 0,-0.82z"/>
   <path class="fil1 str3" d="M309.63 185.65l-20.2 -20.2c-0.23,-0.23 -0.6,-0.23 -0.82,0l-2.6 2.6c-0.23,0.23 -0.23,0.6 0,0.82l20.2 20.2c0.23,0.23 0.6,0.23 0.82,0l2.6 -2.6c0.23,-0.23 0.23,-0.6 0,-0.82z"/>
  </g>
  <path class="fil1 str3" d="M270.49 224.79l-20.2 -20.2c-0.23,-0.23 -0.6,-0.23 -0.82,0l-2.6 2.6c-0.23,0.23 -0.23,0.6 0,0.82l20.2 20.2c0.23,0.23 0.6,0.23 0.82,0l2.6 -2.6c0.23,-0.23 0.23,-0.6 0,-0.82z"/>
  <path class="fil1 str3" d="M259.87 235.41l-20.2 -20.2c-0.23,-0.23 -0.6,-0.23 -0.82,0l-2.6 2.6c-0.23,0.23 -0.23,0.6 0,0.82l20.2 20.2c0.23,0.23 0.6,0.23 0.82,0l2.6 -2.6c0.23,-0.23 0.23,-0.6 0,-0.82z"/>
  <path class="fil1 str3" d="M249.26 246.02l-20.2 -20.2c-0.23,-0.23 -0.6,-0.23 -0.82,0l-2.6 2.6c-0.23,0.23 -0.23,0.6 0,0.82l20.2 20.2c0.23,0.23 0.6,0.23 0.82,0l2.6 -2.6c0.23,-0.23 0.23,-0.6 0,-0.82z"/>
  <path class="fil1 str3" d="M238.64 256.64l-20.2 -20.2c-0.23,-0.23 -0.6,-0.23 -0.82,0l-2.6 2.6c-0.23,0.23 -0.23,0.6 0,0.82l20.2 20.2c0.23,0.23 0.6,0.23 0.82,0l2.6 -2.6c0.23,-0.23 0.23,-0.6 0,-0.82z"/>
  <path class="fil1 str3" d="M228.02 267.26l-20.2 -20.2c-0.23,-0.23 -0.6,-0.23 -0.82,0l-2.6 2.6c-0.23,0.23 -0.23,0.6 0,0.82l20.2 20.2c0.23,0.23 0.6,0.23 0.82,0l2.6 -2.6c0.23,-0.23 0.23,-0.6 0,-0.82z"/>
 </g>
</svg>
