<?xml version="1.0" encoding="UTF-8"?>
<!DOCTYPE svg PUBLIC "-//W3C//DTD SVG 1.1//EN" "http://www.w3.org/Graphics/SVG/1.1/DTD/svg11.dtd">
<!-- Creator: CorelDRAW 2020 (64-Bit) -->
<svg xmlns="http://www.w3.org/2000/svg" xml:space="preserve" width="24.689mm" height="421.64mm" version="1.1" style="shape-rendering:geometricPrecision; text-rendering:geometricPrecision; image-rendering:optimizeQuality; fill-rule:evenodd; clip-rule:evenodd"
viewBox="0 0 134.39 2295.19"
 xmlns:xlink="http://www.w3.org/1999/xlink"
 xmlns:xodm="http://www.corel.com/coreldraw/odm/2003">
 <defs>
  <style type="text/css">
   <![CDATA[
    .str1 {stroke:#A27E70;stroke-width:1.44;stroke-miterlimit:22.9256}
    .str0 {stroke:#7E5D52;stroke-width:1.09;stroke-miterlimit:22.9256}
    .fil2 {fill:none}
    .fil1 {fill:#BBA593}
    .fil0 {fill:#201E1E;fill-rule:nonzero}
   ]]>
  </style>
 </defs>
 <g id="Layer_x0020_1">
  <metadata id="CorelCorpID_0Corel-Layer"/>
  <g id="_2331397464304">
   <path class="fil0" d="M2.16 1578.28c0,-11.25 3.53,-20.09 10.6,-26.51 7.07,-6.42 16.1,-9.61 27.13,-9.61 14.23,0 27.37,5.29 39.46,15.89 12.09,10.57 18.12,22.66 18.12,36.24 0,11.13 -3.99,19.95 -11.99,26.48 -8,6.51 -17.35,9.78 -28.07,9.78 -8.58,0 -17.11,-2.28 -25.57,-6.83 -8.48,-4.57 -15.55,-10.79 -21.2,-18.67 -5.65,-7.88 -8.48,-16.8 -8.48,-26.77zm3.32 -3.2c0,5.77 2.38,11.78 7.11,18.03 4.73,6.25 12.43,11.58 23.07,16.05 10.62,4.45 21.41,6.68 32.37,6.68 7.26,0 13.44,-1.59 18.51,-4.78 5.07,-3.2 7.62,-7.93 7.62,-14.23 0,-6.71 -2.74,-13.03 -8.2,-18.94 -5.48,-5.91 -13.75,-10.96 -24.85,-15.17 -11.08,-4.21 -21.13,-6.3 -30.14,-6.3 -6.06,0 -11.82,1.49 -17.3,4.49 -5.46,3 -8.2,7.74 -8.2,14.16zm50.3 -62.61c-6.63,-3.99 -11.58,-7.76 -14.9,-11.3 -3.32,-3.51 -4.97,-6.83 -4.97,-9.95 0,-2.07 0.6,-3.8 1.83,-5.17 1.23,-1.39 2.84,-2.09 4.86,-2.09 1.68,0 3.24,0.55 4.69,1.66 1.47,1.11 2.19,2.52 2.19,4.25 0,3 -1.32,4.88 -3.99,5.62 -1.75,0.48 -2.64,1.11 -2.64,1.9 0,1.47 2.28,3.92 6.87,7.35 4.59,3.44 10.38,6.9 17.38,10.38l30.4 9.95 0 3.8 0.07 3.87 -0.07 0.99c-1.03,-0.24 -5.38,-1.61 -13.1,-4.16 -25.55,-6.8 -39.58,-10.21 -42.06,-10.21 -0.91,0 -1.37,0.36 -1.37,1.08 0,0.89 1.2,2.6 3.6,5.1 2.4,2.5 4.95,4.66 7.64,6.51 2.11,1.47 3.17,2.6 3.17,3.39 0,0.79 -0.38,1.18 -1.13,1.18 -1.13,0 -4.47,-2.43 -10.02,-7.33 -5.55,-4.9 -8.32,-9.18 -8.32,-12.86 0,-1.92 0.58,-3.39 1.73,-4.35 1.15,-0.96 2.36,-1.44 3.63,-1.44 1.44,0 3.77,0.29 6.97,0.84 1.08,0.19 3.61,0.53 7.55,0.99zm-10.05 -78.97c2.16,-1.27 4.61,-1.9 7.38,-1.9 4.23,0 8.24,1.01 12.06,3.03 3.82,2.02 7.02,4.78 9.57,8.29 2.55,3.51 4.21,6.75 4.93,9.73 0.72,2.98 1.13,6.63 1.23,10.98 0.14,8.24 1.47,12.38 3.99,12.38 2.81,0 5,-4.25 6.54,-12.76 1.49,-8.6 2.93,-14.68 4.3,-18.24 1.35,-3.56 3.36,-6.32 6.01,-8.29 2.64,-1.97 5.48,-2.96 8.53,-2.96 6.01,0 11.54,3.32 16.56,9.97 5.05,6.66 7.57,15.21 7.57,25.64 0,8.24 -1.49,14.73 -4.49,19.51 -3,4.78 -6.54,7.16 -10.62,7.16 -3.7,0 -7.55,-2.02 -11.49,-6.06 -3.97,-4.04 -7.16,-9.2 -9.61,-15.45 -2.09,5.7 -5.21,8.53 -9.32,8.53 -2.38,0 -4.52,-1.08 -6.44,-3.22 -1.92,-2.14 -3.24,-5.43 -3.99,-9.88 -2.21,2.62 -4.59,4.59 -7.11,5.91 -2.55,1.32 -5.26,1.99 -8.12,1.99 -7.47,0 -13.96,-2.79 -19.47,-8.36 -5.5,-5.6 -8.24,-12.16 -8.24,-19.71 0,-3.2 0.62,-6.01 1.9,-8.46 1.27,-2.43 3.17,-4.52 5.72,-6.25 -5.26,-4.69 -7.91,-8.82 -7.91,-12.38 0,-2.24 0.72,-4.16 2.14,-5.77 1.42,-1.59 3.03,-2.38 4.85,-2.38 1.23,0 2.4,0.41 3.56,1.23 1.13,0.82 1.71,1.95 1.71,3.34 0,1.63 -1.01,3.27 -3.05,4.85 -1.9,1.49 -2.86,2.84 -2.86,4.01 0,1.25 1.39,3.08 4.21,5.48zm-7.23 17.23c0,4.71 2.86,8.84 8.58,12.43 5.72,3.58 12.26,5.36 19.61,5.36 3.51,0 6.25,-0.91 8.22,-2.76 1.97,-1.83 2.96,-3.92 2.96,-6.27 0,-4.97 -3.08,-9.18 -9.25,-12.57 -6.15,-3.39 -12.21,-5.07 -18.17,-5.07 -3.75,0 -6.68,0.82 -8.77,2.48 -2.11,1.63 -3.17,3.77 -3.17,6.42zm61.72 19.03c1.03,5.91 3.44,10.31 7.21,13.19 3.8,2.86 7.57,4.3 11.34,4.3 3.68,0 6.71,-1.68 9.06,-5.02 2.36,-3.37 3.53,-8.12 3.53,-14.3 0,-7.33 -1.75,-13.43 -5.29,-18.31 -3.51,-4.9 -7.47,-7.35 -11.85,-7.35 -3.44,0 -6.13,1.56 -8.05,4.71 -1.9,3.15 -3.75,9.95 -5.53,20.38l-0.43 2.4zm-63.06 -107.91c2.91,1.32 10.67,3.97 23.31,7.96l19.59 6.2c3.56,1.32 6.58,1.97 9.13,1.97 1.59,0 2.38,-0.77 2.38,-2.33 0,-1.08 -0.77,-2.67 -2.28,-4.76 -1.51,-2.12 -3.44,-4.13 -5.79,-6.13 -1.54,-1.32 -2.31,-2.24 -2.31,-2.76 0,-0.79 0.41,-1.2 1.2,-1.2 1.27,0 4.09,2.57 8.44,7.72 4.35,5.12 6.51,9.69 6.51,13.7 0,2.72 -1.85,4.09 -5.58,4.09 -2.6,0 -5.89,-0.17 -9.88,-0.48 9.83,7.28 14.73,14.92 14.73,22.88 0,3.46 -1.25,5.98 -3.75,7.64 -2.52,1.66 -5.34,2.48 -8.48,2.48 -9.04,0 -19.42,-4.54 -31.17,-13.6 -11.73,-9.06 -17.59,-17.59 -17.59,-25.64 0,-2.14 0.72,-3.82 2.19,-5.05 1.47,-1.25 3.68,-2.04 6.66,-2.38 -2.14,-0.84 -4.95,-2.19 -8.41,-4.01 0.24,-1.49 0.46,-2.93 0.7,-4.3 0.22,-0.99 0.36,-1.63 0.41,-1.97zm2.36 21.65c0,2.74 1.95,6.1 5.86,10.07 3.92,3.97 9.69,7.47 17.28,10.55 7.59,3.05 13.92,4.59 18.99,4.59 2.98,0 5.24,-0.55 6.78,-1.63 1.51,-1.08 2.28,-2.69 2.28,-4.81 0,-5.48 -4.98,-11.01 -14.92,-16.61 -9.93,-5.6 -18.94,-8.39 -26.99,-8.39 -2.62,0 -4.83,0.58 -6.61,1.73 -1.78,1.15 -2.67,2.67 -2.67,4.49zm21.2 -54.63c-8.32,-4.97 -14.56,-9.64 -18.72,-13.99 -4.16,-4.37 -6.22,-8.44 -6.22,-12.18 0,-2.21 0.79,-3.89 2.36,-5.07 1.59,-1.18 3.44,-1.75 5.6,-1.75 2.67,0 5.43,0.38 8.27,1.15 2.84,0.79 8.58,2.72 17.21,5.82 11.61,4.18 18.43,6.27 20.48,6.27 1.56,0 2.33,-0.7 2.33,-2.04 0,-1.23 -1.03,-3.12 -3.12,-5.67 -2.07,-2.55 -4.11,-4.45 -6.13,-5.67 -2.09,-1.23 -3.15,-2.24 -3.15,-3.03 0,-0.79 0.48,-1.2 1.42,-1.2 1.92,0 5.22,2.43 9.88,7.23 4.69,4.81 7.02,9.42 7.02,13.82 0,4.33 -1.83,6.49 -5.46,6.49 -3.77,0 -14.66,-3.46 -32.66,-10.36 -6.95,-2.67 -12.14,-4.01 -15.6,-4.01 -1.08,0 -1.9,0.19 -2.43,0.6 -0.55,0.41 -0.82,1.03 -0.82,1.87 0,1.39 1.8,4.04 5.38,7.91 3.61,3.87 9.97,8.27 19.11,13.19 9.16,4.93 17.57,8.96 25.21,12.11 4.73,1.92 7.11,3.2 7.11,3.8 0,4.61 -0.62,6.9 -1.85,6.9l-0.74 -0.22 -34.39 -11.9c-8.39,-3.1 -14.2,-4.64 -17.42,-4.64 -1.42,0 -2.12,0.65 -2.12,1.97 0,1.18 1.15,3.08 3.46,5.72 2.33,2.64 4.49,4.73 6.56,6.3 1.59,1.2 2.38,2.19 2.38,2.96 0,0.7 -0.38,1.03 -1.13,1.03 -1.49,0 -4.69,-2.55 -9.57,-7.64 -4.88,-5.1 -7.33,-10 -7.33,-14.68 0,-1.51 0.55,-2.67 1.63,-3.46 1.08,-0.79 2.21,-1.2 3.39,-1.2 1.9,0 8.58,1.2 20.07,3.58zm-59.27 -79.84c0,-1.49 0.55,-2.79 1.63,-3.87 1.08,-1.08 2.38,-1.63 3.87,-1.63 1.56,0 2.88,0.55 3.97,1.63 1.08,1.08 1.63,2.38 1.63,3.87 0,1.56 -0.55,2.88 -1.63,3.97 -1.08,1.08 -2.4,1.63 -3.97,1.63 -1.54,0 -2.86,-0.55 -3.92,-1.66 -1.06,-1.11 -1.59,-2.43 -1.59,-3.94zm90.32 22.9c0.82,0 1.42,-0.17 1.8,-0.53 0.41,-0.36 0.6,-0.86 0.6,-1.54 0,-1.47 -0.82,-3.48 -2.48,-6.1 -1.63,-2.6 -3.7,-5.07 -6.13,-7.45 -1.08,-1.03 -1.63,-1.85 -1.63,-2.48 0,-0.84 0.38,-1.27 1.13,-1.27 1.66,0 4.18,2.4 7.59,7.16 3.41,4.76 5.12,9.18 5.12,13.22 0,2.6 -0.53,4.57 -1.59,5.91 -1.06,1.35 -2.28,2.02 -3.7,2.02 -2.12,0 -9.52,-2.6 -22.18,-7.81 -15.96,-6.63 -25.02,-9.93 -27.16,-9.93 -0.86,0 -1.49,0.14 -1.87,0.46 -0.41,0.31 -0.6,0.79 -0.6,1.44 0,2.04 2.14,5.29 6.42,9.78 1.68,1.73 2.52,2.96 2.52,3.68 0,0.65 -0.38,0.96 -1.13,0.96 -1.23,0 -3.7,-2.45 -7.47,-7.4 -3.77,-4.95 -5.67,-9.35 -5.67,-13.22 0,-1.59 0.6,-2.96 1.8,-4.11 1.2,-1.15 2.48,-1.73 3.85,-1.73 1.71,0 3.39,0.29 5.02,0.86 1.66,0.6 10.09,4.11 25.36,10.53 12.81,5.02 19.61,7.55 20.4,7.55zm-41.15 -73.76c-0.19,1.27 -0.29,2.24 -0.29,2.88 0,0.72 0.14,1.9 0.43,3.6 0.29,1.68 0.43,2.93 0.43,3.73 0,2.02 -0.48,3.85 -1.44,5.46 -0.96,1.61 -2.98,4.11 -6.08,7.47 -2.09,2.31 -3.15,4.25 -3.15,5.89 0,2.21 0.89,4.28 2.69,6.18 1.78,1.92 4.16,2.88 7.11,2.88 1.44,0 2.55,-0.26 3.32,-0.79 0.75,-0.55 1.11,-1.35 1.11,-2.43 -5.07,0 -7.59,-1.8 -7.59,-5.43 0,-1.71 0.58,-3.2 1.75,-4.47 1.18,-1.25 2.67,-1.87 4.49,-1.87 2.21,0 3.99,0.79 5.38,2.38 1.37,1.59 2.07,3.44 2.07,5.55 0,2.76 -1.08,5.12 -3.24,7.11 -2.14,1.99 -4.71,2.98 -7.64,2.98 -3.8,0 -7.14,-1.56 -10.02,-4.71 -2.88,-3.15 -4.33,-6.54 -4.33,-10.14 0,-5.07 2.5,-11.75 7.52,-20.07 2.19,-3.65 3.29,-6.37 3.29,-8.1 0,-0.89 -0.5,-1.75 -1.54,-2.6 -6.18,-4.98 -9.28,-8.75 -9.28,-11.27 0,-0.79 0.31,-1.49 0.91,-2.07 0.6,-0.6 1.25,-0.89 1.95,-0.89 2.07,0 4.18,2.12 6.37,6.34 1.15,2.24 2.24,3.97 3.2,5.17 0.96,1.18 4.61,5.09 10.98,11.68 6.37,6.61 10.6,10.89 12.67,12.81 2.48,2.38 4.09,3.94 4.78,4.69 2.16,2.45 3.68,3.65 4.52,3.65l0.77 -0.14c-0.48,-2.48 -0.72,-4.25 -0.72,-5.34 0,-2.79 1.11,-5.74 3.32,-8.89 2.19,-3.1 3.46,-5.07 3.87,-5.91 0.41,-0.84 0.6,-1.92 0.6,-3.24 0,-6.06 -4.3,-10.67 -12.91,-13.87 -1.97,-0.75 -2.96,-1.49 -2.96,-2.26 0,-0.84 0.43,-1.27 1.27,-1.27 0.65,0 3.32,1.13 8,3.39 4.69,2.26 8.48,4.97 11.42,8.15 2.93,3.17 4.4,6.08 4.4,8.77 0,2.62 -0.99,5.67 -2.96,9.11 -1.97,3.46 -4.25,6.51 -6.85,9.2 -2.21,2.26 -3.32,4.04 -3.32,5.36 0,3.46 2.62,6.66 7.84,9.57 3.24,1.83 4.85,3.77 4.85,5.84 0,0.94 -0.38,1.75 -1.15,2.4 -0.77,0.65 -1.66,0.99 -2.64,0.99 -1.99,0 -3.99,-1.85 -5.96,-5.58 -2.86,-5.24 -6.44,-10.07 -10.77,-14.49l-26.48 -27.4zm-13.46 -81.16c2.91,1.32 10.67,3.97 23.31,7.96l19.59 6.2c3.56,1.32 6.58,1.97 9.13,1.97 1.59,0 2.38,-0.77 2.38,-2.33 0,-1.08 -0.77,-2.67 -2.28,-4.76 -1.51,-2.12 -3.44,-4.13 -5.79,-6.13 -1.54,-1.32 -2.31,-2.24 -2.31,-2.76 0,-0.79 0.41,-1.2 1.2,-1.2 1.27,0 4.09,2.57 8.44,7.72 4.35,5.12 6.51,9.69 6.51,13.7 0,2.72 -1.85,4.09 -5.58,4.09 -2.6,0 -5.89,-0.17 -9.88,-0.48 9.83,7.28 14.73,14.92 14.73,22.88 0,3.46 -1.25,5.98 -3.75,7.64 -2.52,1.66 -5.34,2.48 -8.48,2.48 -9.04,0 -19.42,-4.54 -31.17,-13.6 -11.73,-9.06 -17.59,-17.59 -17.59,-25.64 0,-2.14 0.72,-3.82 2.19,-5.05 1.47,-1.25 3.68,-2.04 6.66,-2.38 -2.14,-0.84 -4.95,-2.19 -8.41,-4.01 0.24,-1.49 0.46,-2.93 0.7,-4.3 0.22,-0.99 0.36,-1.63 0.41,-1.97zm2.36 21.65c0,2.74 1.95,6.1 5.86,10.07 3.92,3.97 9.69,7.47 17.28,10.55 7.59,3.05 13.92,4.59 18.99,4.59 2.98,0 5.24,-0.55 6.78,-1.63 1.51,-1.08 2.28,-2.69 2.28,-4.81 0,-5.48 -4.98,-11.01 -14.92,-16.61 -9.93,-5.6 -18.94,-8.39 -26.99,-8.39 -2.62,0 -4.83,0.58 -6.61,1.73 -1.78,1.15 -2.67,2.67 -2.67,4.49zm0.58 -92.19c1.37,0.36 5.1,1.59 11.18,3.68 19.73,6.95 31.75,10.43 36.05,10.43 2.84,0 4.25,-1.06 4.25,-3.17 0,-3.46 -3.99,-8.6 -11.99,-15.45 -1.03,-0.89 -1.56,-1.66 -1.56,-2.33 0,-0.84 0.34,-1.27 0.99,-1.27 1.23,0 4.59,2.91 10.14,8.7 5.55,5.79 8.34,11.8 8.34,18.05 0,2.14 -0.6,3.77 -1.83,4.86 -1.23,1.08 -2.55,1.61 -3.94,1.61 -3.2,0 -7.52,-1.01 -12.95,-3.03 -0.38,-0.14 -13.12,-4.45 -38.24,-12.88l-0.14 6.66 0.14 4.66c0,0.65 -0.31,0.99 -0.96,0.99 -1.32,0 -2.09,-0.14 -2.28,-0.43 -0.22,-0.26 -0.41,-1.54 -0.58,-3.82 -0.19,-2.26 -0.29,-5.38 -0.29,-9.35 -3.89,-1.15 -8.32,-2.6 -13.24,-4.33l-8.05 -2.76c-0.36,-0.14 -0.55,-0.41 -0.55,-0.84 0,-1.68 0.22,-3.34 0.67,-4.95 0.43,-1.63 0.91,-2.43 1.44,-2.43l0.55 0.19 19.54 6.42 0.22 -8.68c0.1,-2.86 0.17,-4.35 0.24,-4.47 0.07,-0.12 0.26,-0.17 0.55,-0.17 2.11,0 3.17,0.36 3.17,1.06l-0.48 5.22 -0.38 7.86zm-3.17 -74.21c2.38,0.77 6.75,2.33 13.12,4.73 21.32,8.15 34.37,12.23 39.15,12.23 0.65,0 1.13,-0.12 1.47,-0.41 0.31,-0.29 0.48,-0.7 0.48,-1.27 0,-1.47 -1.23,-3.44 -3.68,-5.91 -2.45,-2.45 -4.81,-4.4 -7.02,-5.84 -1.71,-1.08 -2.57,-2.02 -2.57,-2.84 0,-0.75 0.38,-1.13 1.13,-1.13 1.9,0 5.41,2.55 10.53,7.59 5.12,5.05 7.67,9.49 7.67,13.34 0,1.63 -0.58,2.88 -1.71,3.7 -1.15,0.82 -2.86,1.23 -5.14,1.23 -4.61,0 -10.21,-0.99 -16.8,-2.96 15.77,10.29 23.65,18.99 23.65,26.12 0,1.78 -0.77,3.36 -2.31,4.76 -1.51,1.37 -3.32,2.07 -5.38,2.07 -2.09,0 -4.18,-0.26 -6.32,-0.77 -2.11,-0.53 -8.17,-2.45 -18.14,-5.77 -9.95,-3.34 -15.79,-5.36 -17.47,-6.06 -2.02,-0.86 -3.75,-1.27 -5.22,-1.27 -0.5,0 -0.89,0.12 -1.15,0.34 -0.26,0.24 -0.38,0.62 -0.38,1.13 0,2.02 3.17,5.7 9.52,11.06 2.5,2.04 3.75,3.39 3.75,3.99 0,0.67 -0.34,0.99 -0.99,0.99 -1.63,0 -4.9,-2.43 -9.76,-7.33 -4.86,-4.9 -7.28,-9.2 -7.28,-12.93 0,-1.73 0.7,-3.24 2.11,-4.52 1.39,-1.3 3,-1.95 4.83,-1.95 2.67,0 7.74,1.54 15.24,4.57 15.26,6.2 25.31,9.3 30.16,9.3 0.89,0 1.73,-0.24 2.48,-0.75 0.74,-0.48 1.13,-1.08 1.13,-1.78 0,-0.94 -0.6,-2.33 -1.83,-4.16 -1.23,-1.83 -4.71,-4.9 -10.5,-9.23 -5.79,-4.33 -12.42,-8.27 -19.92,-11.82l-22.83 -10.77c-0.29,-0.79 -0.43,-1.71 -0.43,-2.69 0,-1.35 0.14,-3.03 0.43,-5zm40.45 -40.3c5.53,0 10.31,1.97 14.35,5.94 4.04,3.97 6.06,8.63 6.06,13.99 0,4.61 -1.25,8.22 -3.73,10.81 -2.48,2.57 -4.81,3.87 -6.95,3.87 -1.42,0 -2.79,-0.51 -4.09,-1.51 -1.32,-1.03 -1.97,-2.36 -1.97,-4.04 0,-1.51 0.48,-2.72 1.42,-3.63 0.94,-0.89 2.07,-1.35 3.39,-1.35 0.7,0 1.56,0.22 2.6,0.65 1.08,0.43 1.9,0.65 2.4,0.65 1.23,0 2.16,-0.53 2.79,-1.59 0.65,-1.06 0.96,-2.64 0.96,-4.73 0,-3.53 -1.01,-6.27 -3,-8.22 -1.99,-1.95 -4.42,-2.91 -7.31,-2.91 -2.81,0 -6.73,1.85 -11.73,5.53 -8,5.94 -14.49,8.89 -19.42,8.89 -4.37,0 -8.41,-1.66 -12.18,-5 -3.75,-3.32 -5.62,-7.38 -5.62,-12.21 0,-3.41 0.96,-6.44 2.86,-9.04 1.92,-2.6 4.04,-3.89 6.32,-3.89 1.49,0 2.79,0.5 3.89,1.51 1.08,1.03 1.63,2.21 1.63,3.61 0,2.64 -1.39,3.97 -4.16,3.97l-3.8 -0.14c-1.03,0 -1.92,0.6 -2.67,1.83 -0.7,1.27 -1.06,2.57 -1.06,3.94 0,2.11 0.72,4.09 2.19,5.91 1.47,1.83 3.58,2.74 6.34,2.74 2.88,0 7.69,-2.64 14.42,-7.96 6.47,-5.07 11.82,-7.62 16.05,-7.62zm-76.21 -118.94c4.42,1.32 14.18,4.59 29.27,9.78 33.36,11.51 52.58,17.26 57.66,17.26 0.87,0 1.51,-0.19 1.95,-0.55 0.46,-0.38 0.67,-0.94 0.67,-1.71 0,-3.03 -3.65,-7.4 -10.98,-13.07 -1.03,-0.77 -1.56,-1.37 -1.56,-1.83 0,-0.24 0.19,-0.53 0.55,-0.89 0.38,-0.36 0.7,-0.53 0.94,-0.53 0.46,0 2.31,1.32 5.55,3.94 3.24,2.62 6.03,5.67 8.36,9.16 2.33,3.46 3.48,6.27 3.48,8.44 0,1.56 -0.86,2.96 -2.57,4.21 -1.71,1.23 -3.85,1.85 -6.42,1.85 -1.3,0 -3.15,-0.12 -5.53,-0.34 9.88,8.22 14.8,15.89 14.8,22.98 0,4.16 -1.13,7.26 -3.41,9.35 -2.28,2.09 -5.7,3.15 -10.26,3.15 -10.05,0 -20.02,-4.25 -29.9,-12.76 -9.88,-8.51 -14.83,-17.33 -14.83,-26.44 0,-1.61 0.14,-3.22 0.43,-4.83 0.26,-1.63 0.72,-3.27 1.35,-4.9l-26.44 -9.01c-2.74,-0.99 -5.02,-1.49 -6.87,-1.49 -1.32,0 -2.31,0.77 -3,2.26 -0.67,1.51 -1.27,4.01 -1.8,7.55 -0.14,1.08 -0.58,1.61 -1.35,1.61 -0.84,0 -1.25,-0.46 -1.25,-1.35 0,-0.89 0.07,-2.02 0.19,-3.36 0.5,-4.81 0.82,-10.93 0.96,-18.46zm40.81 33.24c0,5.5 4.47,11.49 13.39,17.98 8.94,6.49 17.64,9.73 26.1,9.73 3.03,0 5.74,-0.6 8.12,-1.8 2.38,-1.2 3.58,-2.74 3.58,-4.61 0,-2.76 -2.19,-6.47 -6.58,-11.1 -4.4,-4.61 -10.43,-8.65 -18.1,-12.09 -7.67,-3.44 -14.18,-5.14 -19.56,-5.14 -1.92,0 -3.56,0.6 -4.9,1.8 -1.37,1.2 -2.04,2.96 -2.04,5.24zm49.8 -43.02c0.82,0 1.42,-0.17 1.8,-0.53 0.41,-0.36 0.6,-0.86 0.6,-1.51 0,-1.44 -0.82,-3.46 -2.48,-6.06 -1.63,-2.57 -3.7,-5.05 -6.13,-7.38 -1.08,-1.03 -1.63,-1.85 -1.63,-2.48 0,-0.84 0.38,-1.25 1.13,-1.25 1.66,0 4.18,2.36 7.59,7.09 3.41,4.76 5.12,9.13 5.12,13.17 0,2.57 -0.53,4.54 -1.59,5.89 -1.06,1.32 -2.28,1.99 -3.7,1.99 -2.12,0 -9.52,-2.6 -22.18,-7.81 -15.96,-6.63 -25.02,-9.93 -27.16,-9.93 -0.86,0 -1.49,0.14 -1.87,0.46 -0.41,0.31 -0.6,0.79 -0.6,1.44 0,2.04 2.14,5.29 6.42,9.78 1.68,1.73 2.52,2.96 2.52,3.68 0,0.65 -0.38,0.99 -1.13,0.99 -1.23,0 -3.7,-2.48 -7.47,-7.43 -3.77,-4.95 -5.67,-9.35 -5.67,-13.19 0,-1.61 0.6,-2.98 1.8,-4.13 1.2,-1.15 2.48,-1.73 3.85,-1.73 1.71,0 3.39,0.29 5.02,0.89 1.66,0.58 10.09,4.09 25.36,10.5 12.81,5.02 19.61,7.55 20.4,7.55zm-86.28 -28.72c0,-0.99 0.36,-1.95 1.06,-2.86 0.7,-0.91 1.61,-1.37 2.69,-1.37 1.87,0 3.75,1.08 5.6,3.27 1.87,2.19 4.78,6.56 8.77,13.15 3.97,6.58 5.96,10.26 5.96,11.01 0,0.74 -0.34,1.13 -0.99,1.13 -0.58,0 -3.56,-2.38 -8.94,-7.16 -5.38,-4.78 -9.08,-8.29 -11.13,-10.48 -2.02,-2.21 -3.03,-4.45 -3.03,-6.68zm31.68 -57.05c2.91,1.32 10.67,3.97 23.31,7.96l19.59 6.2c3.56,1.32 6.58,1.97 9.13,1.97 1.59,0 2.38,-0.77 2.38,-2.33 0,-1.08 -0.77,-2.67 -2.28,-4.76 -1.51,-2.12 -3.44,-4.13 -5.79,-6.13 -1.54,-1.32 -2.31,-2.24 -2.31,-2.76 0,-0.79 0.41,-1.2 1.2,-1.2 1.27,0 4.09,2.57 8.44,7.72 4.35,5.12 6.51,9.69 6.51,13.7 0,2.72 -1.85,4.09 -5.58,4.09 -2.6,0 -5.89,-0.17 -9.88,-0.48 9.83,7.28 14.73,14.92 14.73,22.88 0,3.46 -1.25,5.98 -3.75,7.64 -2.52,1.66 -5.34,2.48 -8.48,2.48 -9.04,0 -19.42,-4.54 -31.17,-13.6 -11.73,-9.06 -17.59,-17.59 -17.59,-25.64 0,-2.14 0.72,-3.82 2.19,-5.05 1.47,-1.25 3.68,-2.04 6.66,-2.38 -2.14,-0.84 -4.95,-2.19 -8.41,-4.01 0.24,-1.49 0.46,-2.93 0.7,-4.3 0.22,-0.99 0.36,-1.63 0.41,-1.97zm2.36 21.65c0,2.74 1.95,6.1 5.86,10.07 3.92,3.97 9.69,7.47 17.28,10.55 7.59,3.05 13.92,4.59 18.99,4.59 2.98,0 5.24,-0.55 6.78,-1.63 1.51,-1.08 2.28,-2.69 2.28,-4.81 0,-5.48 -4.98,-11.01 -14.92,-16.61 -9.93,-5.6 -18.94,-8.39 -26.99,-8.39 -2.62,0 -4.83,0.58 -6.61,1.73 -1.78,1.15 -2.67,2.67 -2.67,4.49zm37.85 -63.26c5.53,0 10.31,1.97 14.35,5.94 4.04,3.97 6.06,8.63 6.06,13.99 0,4.61 -1.25,8.22 -3.73,10.81 -2.48,2.57 -4.81,3.87 -6.95,3.87 -1.42,0 -2.79,-0.51 -4.09,-1.51 -1.32,-1.03 -1.97,-2.36 -1.97,-4.04 0,-1.51 0.48,-2.72 1.42,-3.63 0.94,-0.89 2.07,-1.35 3.39,-1.35 0.7,0 1.56,0.22 2.6,0.65 1.08,0.43 1.9,0.65 2.4,0.65 1.23,0 2.16,-0.53 2.79,-1.59 0.65,-1.06 0.96,-2.64 0.96,-4.73 0,-3.53 -1.01,-6.27 -3,-8.22 -1.99,-1.95 -4.42,-2.91 -7.31,-2.91 -2.81,0 -6.73,1.85 -11.73,5.53 -8,5.94 -14.49,8.89 -19.42,8.89 -4.37,0 -8.41,-1.66 -12.18,-5 -3.75,-3.32 -5.62,-7.38 -5.62,-12.21 0,-3.41 0.96,-6.44 2.86,-9.04 1.92,-2.6 4.04,-3.89 6.32,-3.89 1.49,0 2.79,0.5 3.89,1.51 1.08,1.03 1.63,2.21 1.63,3.61 0,2.64 -1.39,3.97 -4.16,3.97l-3.8 -0.14c-1.03,0 -1.92,0.6 -2.67,1.83 -0.7,1.27 -1.06,2.57 -1.06,3.94 0,2.11 0.72,4.09 2.19,5.91 1.47,1.83 3.58,2.74 6.34,2.74 2.88,0 7.69,-2.64 14.42,-7.96 6.47,-5.07 11.82,-7.62 16.05,-7.62z"/>
   <path class="fil1 str0" d="M40.12 1659.75c-5.41,0 -9.79,4.38 -9.79,9.79 0,5.41 4.38,9.79 9.79,9.79 5.41,0 9.79,-4.38 9.79,-9.79 0,-5.41 -4.38,-9.79 -9.79,-9.79z"/>
   <path class="fil1 str0" d="M40.12 615.85c-5.41,0 -9.79,4.38 -9.79,9.79 0,5.41 4.38,9.79 9.79,9.79 5.41,0 9.79,-4.38 9.79,-9.79 0,-5.41 -4.38,-9.79 -9.79,-9.79z"/>
   <line class="fil2 str1" x1="40.12" y1="1679.34" x2="40.12" y2= "2295.19" />
   <line class="fil2 str1" x1="40.12" y1="0" x2="40.12" y2= "615.85" />
  </g>
 </g>
</svg>
