<?xml version="1.0" encoding="UTF-8"?>
<!DOCTYPE svg PUBLIC "-//W3C//DTD SVG 1.1//EN" "http://www.w3.org/Graphics/SVG/1.1/DTD/svg11.dtd">
<!-- Creator: CorelDRAW 2020 (64-Bit) -->
<svg xmlns="http://www.w3.org/2000/svg" xml:space="preserve" width="77.2457mm" height="17.6733mm" version="1.1" style="shape-rendering:geometricPrecision; text-rendering:geometricPrecision; image-rendering:optimizeQuality; fill-rule:evenodd; clip-rule:evenodd"
viewBox="0 0 2665.43 609.83"
 xmlns:xlink="http://www.w3.org/1999/xlink"
 xmlns:xodm="http://www.corel.com/coreldraw/odm/2003">
 <defs>
  <style type="text/css">
   <![CDATA[
    .fil2 {fill:#FEFEFE;fill-rule:nonzero}
    .fil1 {fill:#84716B;fill-rule:nonzero}
    .fil0 {fill:#AD9D88;fill-rule:nonzero}
   ]]>
  </style>
 </defs>
 <g id="Desktop">
  <metadata id="CorelCorpID_0Corel-Layer"/>
  <path class="fil0" d="M82.97 609.83c-9.48,0 -17.49,-2.45 -25.18,-6.93 -15.29,-8.9 -27.17,-19.58 -42,-28.74 -7.24,-4.46 -7.94,-11.11 -8.17,-17.17 -0.66,-18.23 -2.92,-36.41 -4.69,-54.57 -0.59,-6.02 -1.11,-12.03 -1.54,-18.04l2440.29 0c1.63,10.63 3.67,21.25 5.08,31.89 2.51,19.2 4.74,38.43 6.94,57.64 0.34,2.83 0.28,5.75 -0.45,8.56 -1.97,7.96 -6.29,11.18 -17.26,11.18 -1.56,0 -3.26,-0.06 -5.1,-0.19 -32.72,-2.26 -65.57,-1.26 -98.31,-1.86 -73.75,-1.39 -147.59,-1.85 -221.19,-4.65 -74.82,-2.85 -149.63,-4.72 -224.52,-6.42 -65.43,-1.5 -130.86,-2.04 -196.26,-2.04 -69.9,0 -139.78,0.61 -209.63,1.3 -91.37,0.92 -182.77,0.11 -274.08,1.83 -106.02,2.03 -212.05,0.82 -318.03,2.37 -48.6,0.72 -97.28,0.26 -145.76,1.99 -40.41,1.41 -80.8,1 -121.18,2.01 -77.2,1.96 -154.44,3.62 -231.55,6.61 -56.09,2.16 -112.27,3.45 -168.26,6.2 -43.73,2.15 -87.79,2.63 -130.9,8.44 -2.86,0.38 -5.61,0.58 -8.24,0.58zm2356.64 -139.28l-2439.03 0c-0.39,-7.9 -0.59,-15.8 -0.57,-23.72 0.02,-18.99 11.61,-29.25 41.3,-35.22 35.77,-7.18 73,-10.25 110.22,-13.05 58.12,-4.38 116.59,-6.32 174.94,-9.09 81.83,-3.86 162.93,-11.01 243.66,-19.87 41.5,-4.54 82.96,-9.24 124.42,-13.94 4.31,-0.49 9.27,-0.16 12.61,-2.68 -58.67,1.08 -117.19,1.3 -175.49,3.47 -50.96,1.88 -101.88,1.19 -152.79,1.83 -60.3,0.78 -120.63,1.12 -180.91,2.44 -22.79,0.49 -45.58,1.41 -68.42,1.77 -0.36,0.01 -0.75,0.01 -1.11,0.01 -8.21,0 -14.63,-1.56 -21.48,-4.45 -17,-7.22 -28.09,-18.08 -44.42,-25.71 -7.19,-3.37 -7.96,-9.48 -9.17,-14.75 -5.98,-26.16 -14.26,-52.1 -19.16,-78.37 -1.29,-6.99 -4.22,-13.85 -5.42,-20.9l2367.49 0c0.66,0.09 1.32,0.17 1.97,0.26 31.57,3.94 62.21,10.21 94.05,13.5 27.12,2.81 54.04,6.39 81.12,9.38 10.43,1.15 20.84,1.98 31.48,1.98 4.01,0 8.07,-0.11 12.16,-0.39 1.65,-0.1 3.22,-0.15 4.74,-0.15 14.36,0 22.52,4.86 24.24,14.4 6.51,36.19 16.58,72.14 19.19,108.58 0.11,1.44 0.21,2.86 0.21,4.3 0,10.07 -1.7,11.68 -17.38,14.44 -22.54,3.99 -45.49,6.9 -68.58,9.33 -41.55,4.33 -83.03,8.98 -124.98,11.76 -20.44,1.36 -22.91,2.85 -21.55,15.69 1.72,16.41 4.22,32.78 6.67,49.16zm-606.67 -266.06l-1803.68 0c2.11,-6.4 8.1,-9.3 22.34,-12.38 4.42,-0.97 9.25,-1.55 13.15,-3.02 37.67,-14.29 80.44,-16.66 122.88,-19.88 91.21,-6.9 182.43,-13.8 273.62,-20.83 66.22,-5.12 132.38,-10.43 198.58,-15.68 3.96,-0.33 7.93,-0.85 13.06,-1.4 -7.28,-1.97 -9.21,-2.69 -15.04,-2.69 -2.06,0 -4.6,0.09 -8.06,0.24 -34.79,1.6 -69.59,1.96 -104.41,1.96 -14.65,0.01 -29.27,-0.06 -43.93,-0.13 -14.61,-0.06 -29.23,-0.12 -43.84,-0.12 -9.14,0 -18.26,0.03 -27.4,0.09 -29.75,0.22 -59.51,0.38 -89.26,0.38 -32.93,0 -65.86,-0.18 -98.77,-0.75 -7.08,-0.1 -14.16,-0.16 -21.21,-0.16 -19.78,0 -39.51,0.36 -59.26,0.47 -0.43,0.02 -0.86,0.02 -1.27,0.02 -25.29,0 -34.61,-4.48 -41.21,-19.86 -4.28,-10 -7.35,-20.22 -10.29,-30.42 -2.05,-7.14 -0.41,-8.9 10.82,-11.22 9.95,-2.05 20.37,-3.26 30.6,-4.75 7.64,-1.09 14.55,-2.74 18.71,-7.18 3.54,-3.81 9.41,-4.95 16.06,-5.64 58.31,-6.06 116.89,-11 175.65,-15.01 57,-3.89 114.08,-7.29 171.2,-10.43 37.31,-2.06 74.74,-3.2 112.06,-4.94 37.92,-1.76 75.82,-3.74 113.74,-5.66 18.66,-0.93 37.39,-1.83 56.04,-2.29 67.84,-1.64 135.58,-4.55 203.52,-5.47 91.9,-1.28 183.8,-2.74 275.69,-4.19 69.1,-1.11 138.21,-3.56 207.33,-3.56 9.89,0 19.78,0.06 29.66,0.17 82.56,0.91 165.11,2.18 247.55,4.42 73.09,1.99 146.1,5.12 219.03,8.47 77.61,3.56 155.11,8.11 232.67,11.99 51.35,2.55 102.76,4.55 154.1,6.99 26.83,1.28 53.66,2.72 80.4,4.6 22,1.53 26.67,4.93 29.3,18.25 6.58,33.32 13.45,66.61 19.94,99.94 1.79,9.2 3.13,18.46 3.95,27.73 0.77,8.67 -3.59,11.65 -18.01,12.34 -22.91,1.11 -45.77,2.51 -68.83,2.51 -0.41,0 -0.84,0 -1.27,0 -20.89,-0.06 -41.75,-0.08 -62.64,-0.08 -45.32,0 -90.65,0.12 -135.96,0.35 -88.38,0.47 -176.79,0.75 -265.12,2.15 -44.09,0.71 -88.16,2.87 -132.2,4.68z"/>
  <path class="fil1" d="M600.81 291.24c-15.11,55.65 -22.67,90 -22.67,102.98 0,15.88 8.47,24.51 25.5,26.03 9.62,0.76 14.43,2.29 14.43,4.66 0,3.28 -2.75,4.96 -8.24,4.96 -7.1,0 -15.8,-0.38 -26.11,-1.15 -9.77,-0.76 -27.03,-1.15 -51.68,-1.15l-33.21 -0.69c-6.95,0.46 -12.14,0.69 -15.34,0.69 -4.35,0 -6.49,-1.6 -6.49,-4.73 0,-2.82 3.74,-4.43 11.15,-4.89 12.06,-0.76 21.76,-4.43 29.09,-10.91 7.4,-6.57 13.82,-18.86 19.31,-36.87 5.5,-18.02 14.28,-51.83 26.34,-101.45 12.14,-49.54 18.17,-79.32 18.17,-89.32 0,-8.32 -2.29,-15.88 -6.95,-22.67 -4.58,-6.79 -11.6,-10.38 -21.15,-10.84 -6.03,-0.31 -9.09,-1.6 -9.09,-4.05 0,-2.82 1.98,-4.2 6.03,-4.2l51.6 0.91 81.53 -1.37c34.43,0 60.54,6.56 78.48,19.77 17.94,13.21 26.95,30.69 26.95,52.45 0,23.82 -10.91,44.05 -32.75,60.76 -21.84,16.72 -57.1,25.04 -105.65,25.04 -16.11,0 -32.52,-1.3 -49.24,-3.97zm2.75 -9.47c14.58,1.91 26.41,2.9 35.5,2.9 34.81,0 60.54,-8.32 77.18,-24.89 16.72,-16.57 25.04,-35.27 25.04,-56.11 0,-13.97 -5.34,-26.95 -16.03,-38.93 -10.69,-11.98 -26.72,-17.94 -47.94,-17.94 -11.76,0 -24.27,1.38 -37.48,4.05 -14.04,46.8 -26.18,90.46 -36.26,130.92zm211.23 67.1c-4.81,20.61 -7.18,36.18 -7.18,46.79 0,6.41 1.83,12.22 5.5,17.33 3.66,5.12 8.7,7.71 14.96,7.71 9.01,0 18.47,-3.74 28.55,-11.15 10.08,-7.48 18.55,-16.57 25.42,-27.25 3.44,-5.27 6.57,-7.86 9.39,-7.86 2.82,0 4.27,1.37 4.27,4.05 0,7.48 -8.32,18.32 -24.81,32.44 -16.49,14.12 -33.74,21.22 -51.68,21.22 -13.74,0 -24.51,-5.04 -32.37,-15.11 -7.86,-10.08 -11.76,-21.68 -11.76,-34.81 0,-28.47 12.9,-60 38.78,-94.66 25.88,-34.58 51.15,-51.91 75.73,-51.91 8.7,0 15.88,3.05 21.6,9.16 5.73,6.18 8.63,12.9 8.63,20.23 0,14.66 -8.09,29.62 -24.27,44.81 -16.26,15.27 -43.13,28.24 -80.76,39.01zm3.36 -10.08c22.52,-9.85 41.38,-22.6 56.49,-38.09 15.19,-15.5 22.75,-29.77 22.75,-42.83 0,-2.83 -1.07,-5.65 -3.28,-8.4 -2.14,-2.82 -5.04,-4.2 -8.78,-4.2 -9.7,0 -20.84,6.57 -33.36,19.7 -12.6,13.13 -23.82,37.71 -33.82,73.82zm194.74 -39.09c12.67,-21.07 24.66,-36.79 35.88,-47.33 11.15,-10.53 21.68,-15.8 31.6,-15.8 6.57,0 12.06,1.91 16.41,5.8 4.43,3.89 6.64,9.01 6.64,15.42 0,5.34 -1.76,10.3 -5.27,14.89 -3.51,4.65 -8.02,6.95 -13.51,6.95 -9.54,0 -15.5,-4.2 -17.86,-12.67 -1.53,-5.57 -3.51,-8.4 -6.03,-8.4 -4.66,0 -12.44,7.25 -23.36,21.83 -10.92,14.58 -21.91,32.98 -32.98,55.19l-31.6 96.57 -12.06 0 -12.29 0.23 -3.13 -0.23c0.76,-3.28 5.11,-17.1 13.21,-41.6 21.6,-81.15 32.44,-125.73 32.44,-133.59 0,-2.9 -1.15,-4.35 -3.44,-4.35 -2.82,0 -8.24,3.82 -16.18,11.45 -7.94,7.63 -14.81,15.72 -20.69,24.27 -4.66,6.72 -8.25,10.08 -10.77,10.08 -2.52,0 -3.74,-1.22 -3.74,-3.59 0,-3.59 7.71,-14.2 23.28,-31.84 15.57,-17.63 29.16,-26.41 40.84,-26.41 6.11,0 10.76,1.83 13.82,5.5 3.05,3.66 4.58,7.48 4.58,11.53 0,4.58 -0.92,11.98 -2.67,22.14 -0.61,3.43 -1.68,11.45 -3.13,23.97zm161.76 -50l20.31 -68.55c10.53,0.15 20.31,0.91 29.24,2.21l-17.4 57.71c7.4,-1.45 14.12,-2.22 20.31,-2.22 20.46,0 35.88,6.41 46.26,19.24 10.38,12.83 15.57,27.64 15.57,44.43 0,33.21 -12.52,61.3 -37.64,84.28 -25.04,22.9 -58.93,37.71 -101.68,44.43 -16.72,48.86 -25.12,79.93 -25.12,93.36 0,9.69 9.54,15.57 28.55,17.48 3.59,0.46 5.34,1.76 5.34,3.89 0,2.9 -1.91,4.35 -5.8,4.35l-49.09 -1.37c-7.86,0 -16.11,0.38 -24.58,1.15 -10.77,0.76 -19.01,1.15 -24.66,1.15 -4.2,0 -6.26,-1.37 -6.26,-4.12 0,-2.75 3.21,-4.35 9.69,-4.81 10.16,-0.61 18.09,-3.05 23.82,-7.48 5.65,-4.35 10.99,-13.59 15.88,-27.56 4.96,-14.05 15.42,-48.17 31.52,-102.37l41.68 -141.3c-7.86,4.05 -17.33,10.92 -28.25,20.69 -10.99,9.69 -18.85,17.63 -23.59,23.74 -5.8,7.63 -9.77,11.45 -11.91,11.45 -2.06,0 -3.05,-1.22 -3.05,-3.59 0,-4.96 7.25,-14.58 21.76,-28.93 14.5,-14.35 30.92,-26.79 49.08,-37.25zm-19.62 167.33c3.82,0.61 6.56,0.91 8.02,0.91 17.78,0 37.63,-9.92 59.54,-29.77 21.91,-19.92 32.9,-45.8 32.9,-77.79 0,-21.45 -3.97,-36.8 -11.91,-46.11 -7.94,-9.31 -17.64,-13.97 -29.09,-13.97 -2.83,0 -6.18,0.53 -10.08,1.53l-49.39 165.2zm198.56 -68.17c-4.81,20.61 -7.18,36.18 -7.18,46.79 0,6.41 1.83,12.22 5.5,17.33 3.66,5.12 8.7,7.71 14.96,7.71 9.01,0 18.47,-3.74 28.55,-11.15 10.08,-7.48 18.55,-16.57 25.42,-27.25 3.44,-5.27 6.57,-7.86 9.39,-7.86 2.82,0 4.27,1.37 4.27,4.05 0,7.48 -8.32,18.32 -24.81,32.44 -16.49,14.12 -33.74,21.22 -51.68,21.22 -13.74,0 -24.51,-5.04 -32.37,-15.11 -7.86,-10.08 -11.76,-21.68 -11.76,-34.81 0,-28.47 12.9,-60 38.78,-94.66 25.88,-34.58 51.15,-51.91 75.73,-51.91 8.7,0 15.88,3.05 21.6,9.16 5.73,6.18 8.63,12.9 8.63,20.23 0,14.66 -8.09,29.62 -24.27,44.81 -16.26,15.27 -43.13,28.24 -80.76,39.01zm3.36 -10.08c22.52,-9.85 41.38,-22.6 56.49,-38.09 15.19,-15.5 22.75,-29.77 22.75,-42.83 0,-2.83 -1.07,-5.65 -3.28,-8.4 -2.14,-2.82 -5.04,-4.2 -8.78,-4.2 -9.7,0 -20.84,6.57 -33.36,19.7 -12.6,13.13 -23.82,37.71 -33.82,73.82zm200.08 -88.94c-1.15,4.35 -5.04,16.18 -11.68,35.5 -22.06,62.67 -33.13,100.84 -33.13,114.51 0,9.01 3.36,13.51 10.08,13.51 10.99,0 27.33,-12.67 49.08,-38.09 2.83,-3.28 5.27,-4.96 7.4,-4.96 2.67,0 4.05,1.07 4.05,3.13 0,3.89 -9.24,14.58 -27.64,32.21 -18.4,17.63 -37.48,26.49 -57.33,26.49 -6.79,0 -11.98,-1.91 -15.42,-5.8 -3.43,-3.89 -5.11,-8.09 -5.11,-12.52 0,-10.16 3.21,-23.9 9.62,-41.15 0.46,-1.22 14.12,-41.68 40.92,-121.45l-21.15 -0.46 -14.81 0.46c-2.06,0 -3.13,-0.99 -3.13,-3.05 0,-4.2 0.46,-6.64 1.37,-7.25 0.84,-0.69 4.89,-1.3 12.14,-1.83 7.17,-0.61 17.1,-0.91 29.7,-0.91 3.66,-12.37 8.24,-26.41 13.74,-42.06l8.78 -25.57c0.46,-1.15 1.3,-1.76 2.67,-1.76 5.34,0 10.61,0.69 15.73,2.14 5.19,1.38 7.71,2.9 7.71,4.58l-0.61 1.76 -20.38 62.06 27.56 0.69c9.08,0.3 13.82,0.53 14.2,0.76 0.38,0.23 0.53,0.84 0.53,1.76 0,6.72 -1.14,10.08 -3.36,10.08l-16.57 -1.53 -24.96 -1.22zm235.73 -10.08c-2.44,7.56 -7.4,21.45 -15.04,41.68 -25.88,67.71 -38.85,109.16 -38.85,124.36 0,2.06 0.38,3.59 1.3,4.65 0.91,0.99 2.21,1.53 4.04,1.53 4.66,0 10.92,-3.89 18.78,-11.68 7.78,-7.79 13.97,-15.27 18.55,-22.29 3.44,-5.42 6.41,-8.17 9.01,-8.17 2.37,0 3.59,1.22 3.59,3.59 0,6.03 -8.09,17.17 -24.12,33.44 -16.03,16.26 -30.15,24.35 -42.37,24.35 -5.19,0 -9.16,-1.83 -11.76,-5.42 -2.59,-3.66 -3.89,-9.09 -3.89,-16.34 0,-14.66 3.13,-32.45 9.39,-53.36 -32.67,50.07 -60.31,75.12 -82.98,75.12 -5.65,0 -10.69,-2.44 -15.11,-7.33 -4.35,-4.81 -6.57,-10.53 -6.57,-17.1 0,-6.64 0.84,-13.28 2.44,-20.08 1.68,-6.72 7.79,-25.96 18.32,-57.64 10.61,-31.6 17.02,-50.15 19.24,-55.5 2.75,-6.41 4.04,-11.91 4.04,-16.57 0,-1.6 -0.38,-2.82 -1.07,-3.66 -0.77,-0.84 -1.99,-1.22 -3.59,-1.22 -6.41,0 -18.09,10.08 -35.12,30.23 -6.49,7.94 -10.76,11.91 -12.67,11.91 -2.14,0 -3.13,-1.07 -3.13,-3.13 0,-5.19 7.71,-15.58 23.28,-30.99 15.57,-15.42 29.24,-23.13 41.07,-23.13 5.49,0 10.3,2.22 14.35,6.72 4.12,4.43 6.18,9.54 6.18,15.34 0,8.47 -4.89,24.58 -14.51,48.4 -19.7,48.47 -29.54,80.38 -29.54,95.81 0,2.82 0.76,5.5 2.36,7.86 1.53,2.37 3.44,3.59 5.65,3.59 2.97,0 7.4,-1.91 13.21,-5.8 5.8,-3.89 15.57,-14.96 29.31,-33.36 13.74,-18.4 26.26,-39.47 37.56,-63.28l34.2 -72.52c2.52,-0.92 5.42,-1.38 8.55,-1.38 4.28,0 9.62,0.46 15.88,1.38zm205.88 0.76c-4.2,9.24 -12.59,33.9 -25.27,74.05l-19.69 62.22c-4.2,11.3 -6.26,20.92 -6.26,29.01 0,5.04 2.44,7.56 7.4,7.56 3.43,0 8.47,-2.44 15.11,-7.25 6.72,-4.81 13.13,-10.91 19.46,-18.4 4.2,-4.89 7.1,-7.33 8.78,-7.33 2.52,0 3.82,1.3 3.82,3.82 0,4.04 -8.17,12.98 -24.51,26.79 -16.26,13.82 -30.77,20.69 -43.51,20.69 -8.63,0 -12.98,-5.88 -12.98,-17.71 0,-8.24 0.53,-18.7 1.53,-31.38 -23.13,31.22 -47.4,46.8 -72.67,46.8 -10.99,0 -19.01,-3.97 -24.27,-11.91 -5.27,-8.02 -7.86,-16.95 -7.86,-26.95 0,-28.7 14.43,-61.68 43.21,-99.01 28.78,-37.25 55.88,-55.88 81.45,-55.88 6.79,0 12.14,2.29 16.03,6.95 3.97,4.66 6.49,11.68 7.56,21.15 2.67,-6.79 6.95,-15.72 12.75,-26.72 4.73,0.76 9.31,1.45 13.66,2.22 3.13,0.69 5.19,1.15 6.26,1.3zm-68.78 7.48c-8.7,0 -19.39,6.18 -31.98,18.63 -12.6,12.44 -23.74,30.77 -33.52,54.89 -9.69,24.12 -14.58,44.2 -14.58,60.31 0,9.46 1.76,16.64 5.19,21.53 3.44,4.81 8.55,7.25 15.27,7.25 17.4,0 34.96,-15.8 52.75,-47.41 17.79,-31.53 26.64,-60.15 26.64,-85.73 0,-8.32 -1.83,-15.34 -5.5,-20.99 -3.66,-5.65 -8.47,-8.47 -14.28,-8.47z"/>
  <path class="fil2" d="M574.62 291.24c-15.11,55.65 -22.67,90 -22.67,102.98 0,15.88 8.47,24.51 25.5,26.03 9.62,0.76 14.43,2.29 14.43,4.66 0,3.28 -2.75,4.96 -8.24,4.96 -7.1,0 -15.8,-0.38 -26.11,-1.15 -9.77,-0.76 -27.03,-1.15 -51.68,-1.15l-33.21 -0.69c-6.95,0.46 -12.14,0.69 -15.34,0.69 -4.35,0 -6.49,-1.6 -6.49,-4.73 0,-2.82 3.74,-4.43 11.15,-4.89 12.06,-0.76 21.76,-4.43 29.09,-10.91 7.4,-6.57 13.82,-18.86 19.31,-36.87 5.5,-18.02 14.28,-51.83 26.34,-101.45 12.14,-49.54 18.17,-79.32 18.17,-89.32 0,-8.32 -2.29,-15.88 -6.95,-22.67 -4.58,-6.79 -11.6,-10.38 -21.15,-10.84 -6.03,-0.31 -9.09,-1.6 -9.09,-4.05 0,-2.82 1.98,-4.2 6.03,-4.2l51.6 0.91 81.53 -1.37c34.43,0 60.54,6.56 78.48,19.77 17.94,13.21 26.95,30.69 26.95,52.45 0,23.82 -10.91,44.05 -32.75,60.76 -21.84,16.72 -57.1,25.04 -105.65,25.04 -16.11,0 -32.52,-1.3 -49.24,-3.97zm2.75 -9.47c14.58,1.91 26.41,2.9 35.5,2.9 34.81,0 60.54,-8.32 77.18,-24.89 16.72,-16.57 25.04,-35.27 25.04,-56.11 0,-13.97 -5.34,-26.95 -16.03,-38.93 -10.69,-11.98 -26.72,-17.94 -47.94,-17.94 -11.76,0 -24.27,1.38 -37.48,4.05 -14.04,46.8 -26.18,90.46 -36.26,130.92zm211.23 67.1c-4.81,20.61 -7.18,36.18 -7.18,46.79 0,6.41 1.83,12.22 5.5,17.33 3.66,5.12 8.7,7.71 14.96,7.71 9.01,0 18.47,-3.74 28.55,-11.15 10.08,-7.48 18.55,-16.57 25.42,-27.25 3.44,-5.27 6.57,-7.86 9.39,-7.86 2.82,0 4.27,1.37 4.27,4.05 0,7.48 -8.32,18.32 -24.81,32.44 -16.49,14.12 -33.74,21.22 -51.68,21.22 -13.74,0 -24.51,-5.04 -32.37,-15.11 -7.86,-10.08 -11.76,-21.68 -11.76,-34.81 0,-28.47 12.9,-60 38.78,-94.66 25.88,-34.58 51.15,-51.91 75.73,-51.91 8.7,0 15.88,3.05 21.6,9.16 5.73,6.18 8.63,12.9 8.63,20.23 0,14.66 -8.09,29.62 -24.27,44.81 -16.26,15.27 -43.13,28.24 -80.76,39.01zm3.36 -10.08c22.52,-9.85 41.38,-22.6 56.49,-38.09 15.19,-15.5 22.75,-29.77 22.75,-42.83 0,-2.83 -1.07,-5.65 -3.28,-8.4 -2.14,-2.82 -5.04,-4.2 -8.78,-4.2 -9.7,0 -20.84,6.57 -33.36,19.7 -12.6,13.13 -23.82,37.71 -33.82,73.82zm194.74 -39.09c12.67,-21.07 24.66,-36.79 35.88,-47.33 11.15,-10.53 21.68,-15.8 31.6,-15.8 6.57,0 12.06,1.91 16.41,5.8 4.43,3.89 6.64,9.01 6.64,15.42 0,5.34 -1.76,10.3 -5.27,14.89 -3.51,4.65 -8.02,6.95 -13.51,6.95 -9.54,0 -15.5,-4.2 -17.86,-12.67 -1.53,-5.57 -3.51,-8.4 -6.03,-8.4 -4.66,0 -12.44,7.25 -23.36,21.83 -10.92,14.58 -21.91,32.98 -32.98,55.19l-31.6 96.57 -12.06 0 -12.29 0.23 -3.13 -0.23c0.76,-3.28 5.11,-17.1 13.21,-41.6 21.6,-81.15 32.44,-125.73 32.44,-133.59 0,-2.9 -1.15,-4.35 -3.44,-4.35 -2.82,0 -8.24,3.82 -16.18,11.45 -7.94,7.63 -14.81,15.72 -20.69,24.27 -4.66,6.72 -8.25,10.08 -10.77,10.08 -2.52,0 -3.74,-1.22 -3.74,-3.59 0,-3.59 7.71,-14.2 23.28,-31.84 15.57,-17.63 29.16,-26.41 40.84,-26.41 6.11,0 10.76,1.83 13.82,5.5 3.05,3.66 4.58,7.48 4.58,11.53 0,4.58 -0.92,11.98 -2.67,22.14 -0.61,3.43 -1.68,11.45 -3.13,23.97zm161.76 -50l20.31 -68.55c10.53,0.15 20.31,0.91 29.24,2.21l-17.4 57.71c7.4,-1.45 14.12,-2.22 20.31,-2.22 20.46,0 35.88,6.41 46.26,19.24 10.38,12.83 15.57,27.64 15.57,44.43 0,33.21 -12.52,61.3 -37.64,84.28 -25.04,22.9 -58.93,37.71 -101.68,44.43 -16.72,48.86 -25.12,79.93 -25.12,93.36 0,9.69 9.54,15.57 28.55,17.48 3.59,0.46 5.34,1.76 5.34,3.89 0,2.9 -1.91,4.35 -5.8,4.35l-49.09 -1.37c-7.86,0 -16.11,0.38 -24.58,1.15 -10.77,0.76 -19.01,1.15 -24.66,1.15 -4.2,0 -6.26,-1.37 -6.26,-4.12 0,-2.75 3.21,-4.35 9.69,-4.81 10.16,-0.61 18.09,-3.05 23.82,-7.48 5.65,-4.35 10.99,-13.59 15.88,-27.56 4.96,-14.05 15.42,-48.17 31.52,-102.37l41.68 -141.3c-7.86,4.05 -17.33,10.92 -28.25,20.69 -10.99,9.69 -18.85,17.63 -23.59,23.74 -5.8,7.63 -9.77,11.45 -11.91,11.45 -2.06,0 -3.05,-1.22 -3.05,-3.59 0,-4.96 7.25,-14.58 21.76,-28.93 14.5,-14.35 30.92,-26.79 49.08,-37.25zm-19.62 167.33c3.82,0.61 6.56,0.91 8.02,0.91 17.78,0 37.63,-9.92 59.54,-29.77 21.91,-19.92 32.9,-45.8 32.9,-77.79 0,-21.45 -3.97,-36.8 -11.91,-46.11 -7.94,-9.31 -17.64,-13.97 -29.09,-13.97 -2.83,0 -6.18,0.53 -10.08,1.53l-49.39 165.2zm198.56 -68.17c-4.81,20.61 -7.18,36.18 -7.18,46.79 0,6.41 1.83,12.22 5.5,17.33 3.66,5.12 8.7,7.71 14.96,7.71 9.01,0 18.47,-3.74 28.55,-11.15 10.08,-7.48 18.55,-16.57 25.42,-27.25 3.44,-5.27 6.57,-7.86 9.39,-7.86 2.82,0 4.27,1.37 4.27,4.05 0,7.48 -8.32,18.32 -24.81,32.44 -16.49,14.12 -33.74,21.22 -51.68,21.22 -13.74,0 -24.51,-5.04 -32.37,-15.11 -7.86,-10.08 -11.76,-21.68 -11.76,-34.81 0,-28.47 12.9,-60 38.78,-94.66 25.88,-34.58 51.15,-51.91 75.73,-51.91 8.7,0 15.88,3.05 21.6,9.16 5.73,6.18 8.63,12.9 8.63,20.23 0,14.66 -8.09,29.62 -24.27,44.81 -16.26,15.27 -43.13,28.24 -80.76,39.01zm3.36 -10.08c22.52,-9.85 41.38,-22.6 56.49,-38.09 15.19,-15.5 22.75,-29.77 22.75,-42.83 0,-2.83 -1.07,-5.65 -3.28,-8.4 -2.14,-2.82 -5.04,-4.2 -8.78,-4.2 -9.7,0 -20.84,6.57 -33.36,19.7 -12.6,13.13 -23.82,37.71 -33.82,73.82zm200.08 -88.94c-1.15,4.35 -5.04,16.18 -11.68,35.5 -22.06,62.67 -33.13,100.84 -33.13,114.51 0,9.01 3.36,13.51 10.08,13.51 10.99,0 27.33,-12.67 49.08,-38.09 2.83,-3.28 5.27,-4.96 7.4,-4.96 2.67,0 4.05,1.07 4.05,3.13 0,3.89 -9.24,14.58 -27.64,32.21 -18.4,17.63 -37.48,26.49 -57.33,26.49 -6.79,0 -11.98,-1.91 -15.42,-5.8 -3.43,-3.89 -5.11,-8.09 -5.11,-12.52 0,-10.16 3.21,-23.9 9.62,-41.15 0.46,-1.22 14.12,-41.68 40.92,-121.45l-21.15 -0.46 -14.81 0.46c-2.06,0 -3.13,-0.99 -3.13,-3.05 0,-4.2 0.46,-6.64 1.37,-7.25 0.84,-0.69 4.89,-1.3 12.14,-1.83 7.17,-0.61 17.1,-0.91 29.7,-0.91 3.66,-12.37 8.24,-26.41 13.74,-42.06l8.78 -25.57c0.46,-1.15 1.3,-1.76 2.67,-1.76 5.34,0 10.61,0.69 15.73,2.14 5.19,1.38 7.71,2.9 7.71,4.58l-0.61 1.76 -20.38 62.06 27.56 0.69c9.08,0.3 13.82,0.53 14.2,0.76 0.38,0.23 0.53,0.84 0.53,1.76 0,6.72 -1.14,10.08 -3.36,10.08l-16.57 -1.53 -24.96 -1.22zm235.73 -10.08c-2.44,7.56 -7.4,21.45 -15.04,41.68 -25.88,67.71 -38.85,109.16 -38.85,124.36 0,2.06 0.38,3.59 1.3,4.65 0.91,0.99 2.21,1.53 4.04,1.53 4.66,0 10.92,-3.89 18.78,-11.68 7.78,-7.79 13.97,-15.27 18.55,-22.29 3.44,-5.42 6.41,-8.17 9.01,-8.17 2.37,0 3.59,1.22 3.59,3.59 0,6.03 -8.09,17.17 -24.12,33.44 -16.03,16.26 -30.15,24.35 -42.37,24.35 -5.19,0 -9.16,-1.83 -11.76,-5.42 -2.59,-3.66 -3.89,-9.09 -3.89,-16.34 0,-14.66 3.13,-32.45 9.39,-53.36 -32.67,50.07 -60.31,75.12 -82.98,75.12 -5.65,0 -10.69,-2.44 -15.11,-7.33 -4.35,-4.81 -6.57,-10.53 -6.57,-17.1 0,-6.64 0.84,-13.28 2.44,-20.08 1.68,-6.72 7.79,-25.96 18.32,-57.64 10.61,-31.6 17.02,-50.15 19.24,-55.5 2.75,-6.41 4.04,-11.91 4.04,-16.57 0,-1.6 -0.38,-2.82 -1.07,-3.66 -0.77,-0.84 -1.99,-1.22 -3.59,-1.22 -6.41,0 -18.09,10.08 -35.12,30.23 -6.49,7.94 -10.76,11.91 -12.67,11.91 -2.14,0 -3.13,-1.07 -3.13,-3.13 0,-5.19 7.71,-15.58 23.28,-30.99 15.57,-15.42 29.24,-23.13 41.07,-23.13 5.49,0 10.3,2.22 14.35,6.72 4.12,4.43 6.18,9.54 6.18,15.34 0,8.47 -4.89,24.58 -14.51,48.4 -19.7,48.47 -29.54,80.38 -29.54,95.81 0,2.82 0.76,5.5 2.36,7.86 1.53,2.37 3.44,3.59 5.65,3.59 2.97,0 7.4,-1.91 13.21,-5.8 5.8,-3.89 15.57,-14.96 29.31,-33.36 13.74,-18.4 26.26,-39.47 37.56,-63.28l34.2 -72.52c2.52,-0.92 5.42,-1.38 8.55,-1.38 4.28,0 9.62,0.46 15.88,1.38zm205.88 0.76c-4.2,9.24 -12.59,33.9 -25.27,74.05l-19.69 62.22c-4.2,11.3 -6.26,20.92 -6.26,29.01 0,5.04 2.44,7.56 7.4,7.56 3.43,0 8.47,-2.44 15.11,-7.25 6.72,-4.81 13.13,-10.91 19.46,-18.4 4.2,-4.89 7.1,-7.33 8.78,-7.33 2.52,0 3.82,1.3 3.82,3.82 0,4.04 -8.17,12.98 -24.51,26.79 -16.26,13.82 -30.77,20.69 -43.51,20.69 -8.63,0 -12.98,-5.88 -12.98,-17.71 0,-8.24 0.53,-18.7 1.53,-31.38 -23.13,31.22 -47.4,46.8 -72.67,46.8 -10.99,0 -19.01,-3.97 -24.27,-11.91 -5.27,-8.02 -7.86,-16.95 -7.86,-26.95 0,-28.7 14.43,-61.68 43.21,-99.01 28.78,-37.25 55.88,-55.88 81.45,-55.88 6.79,0 12.14,2.29 16.03,6.95 3.97,4.66 6.49,11.68 7.56,21.15 2.67,-6.79 6.95,-15.72 12.75,-26.72 4.73,0.76 9.31,1.45 13.66,2.22 3.13,0.69 5.19,1.15 6.26,1.3zm-68.78 7.48c-8.7,0 -19.39,6.18 -31.98,18.63 -12.6,12.44 -23.74,30.77 -33.52,54.89 -9.69,24.12 -14.58,44.2 -14.58,60.31 0,9.46 1.76,16.64 5.19,21.53 3.44,4.81 8.55,7.25 15.27,7.25 17.4,0 34.96,-15.8 52.75,-47.41 17.79,-31.53 26.64,-60.15 26.64,-85.73 0,-8.32 -1.83,-15.34 -5.5,-20.99 -3.66,-5.65 -8.47,-8.47 -14.28,-8.47z"/>
 </g>
</svg>
