<?xml version="1.0" encoding="UTF-8"?>
<!DOCTYPE svg PUBLIC "-//W3C//DTD SVG 1.1//EN" "http://www.w3.org/Graphics/SVG/1.1/DTD/svg11.dtd">
<!-- Creator: CorelDRAW 2020 (64-Bit) -->
<svg xmlns="http://www.w3.org/2000/svg" xml:space="preserve" width="57.0426mm" height="12.6417mm" version="1.1" style="shape-rendering:geometricPrecision; text-rendering:geometricPrecision; image-rendering:optimizeQuality; fill-rule:evenodd; clip-rule:evenodd"
viewBox="0 0 1569.38 347.8"
 xmlns:xlink="http://www.w3.org/1999/xlink"
 xmlns:xodm="http://www.corel.com/coreldraw/odm/2003">
 <defs>
  <style type="text/css">
   <![CDATA[
    .fil1 {fill:#AD9D88}
    .fil2 {fill:#FEFEFE;fill-rule:nonzero}
    .fil0 {fill:#E3D4BF;fill-rule:nonzero}
   ]]>
  </style>
 </defs>
 <g id="Layer_x0020_1">
  <metadata id="CorelCorpID_0Corel-Layer"/>
  <path class="fil0" d="M48.85 256.34c-5.58,0 -10.3,-0.99 -14.82,-2.81 -9,-3.61 -16,-7.95 -24.73,-11.66 -4.26,-1.81 -4.67,-4.51 -4.81,-6.96 -0.29,-5.52 -1.11,-11.02 -1.93,-16.52l-2.56 0 0 -26.97 0 -0.15 0 -0.15 0 -0.15 0 -0.15 0 -0.15 0 -0.15 0 -0.15 0 -0.15c0.02,-7.7 6.84,-11.86 24.32,-14.29 21.06,-2.91 42.99,-4.16 64.9,-5.29 51.75,-5.46 15.77,-14.63 -13.6,-14.63 -4.83,0 -8.61,-0.64 -12.64,-1.8 -10.01,-2.93 -16.54,-7.34 -26.16,-10.43 -4.23,-1.37 -4.69,-3.84 -5.4,-5.98 -2.76,-8.3 -6.34,-16.55 -9.15,-24.85l-5.32 0 0 -15.42 0 -22.78c54.68,0 86.69,-4.28 113.99,-5.73 38.99,-2.08 27.67,-1.48 66.65,-3.61 2.33,-0.13 4.67,-0.34 7.69,-0.57 -4.28,-0.8 -5.42,-1.09 -8.85,-1.09 -1.22,0 -2.71,0.04 -4.75,0.1 -37.69,1.2 -25.16,-2.06 -62.88,-2.06 -5.38,0 -10.75,0.01 -16.13,0.04 -43.78,0.22 165.61,-0.08 17.45,-0.08 -11.64,0 -23.26,0.14 -34.89,0.19 -0.25,0.01 -0.51,0.01 -0.75,0.01 -14.89,0 -20.38,-1.82 -24.27,-8.06 -2.52,-4.06 -4.32,-8.2 -6.06,-12.34 -1.21,-2.89 -0.24,-3.61 6.37,-4.55 5.86,-0.83 11.99,-1.33 18.01,-1.93 4.5,-0.44 8.57,-1.11 11.02,-2.91 2.08,-1.54 5.54,-2.01 9.46,-2.29 34.33,-2.46 68.82,-4.46 103.42,-6.09 33.56,-1.58 67.17,-2.96 100.8,-4.23 21.97,-0.84 44.01,-1.3 65.98,-2.01 22.33,-0.71 44.64,-1.52 66.97,-2.29 10.99,-0.38 22.02,-0.74 32.99,-0.93 39.94,-0.67 79.83,-1.85 119.83,-2.22 54.11,-0.51 108.22,-1.11 162.33,-1.7 40.69,-0.45 81.37,-1.44 122.08,-1.44 5.82,0 11.64,0.02 17.46,0.07 48.61,0.37 97.22,0.88 145.76,1.79 43.04,0.81 86.02,2.08 128.96,3.44 45.7,1.45 91.33,3.29 137,4.86 30.23,1.03 60.5,1.85 90.73,2.83 15.8,0.52 31.6,1.11 47.34,1.87 12.96,0.62 15.7,2 17.25,7.4 3.87,13.52 7.92,27.02 11.74,40.54 1.06,3.74 1.84,7.49 2.32,11.25 0.45,3.52 -2.12,4.72 -10.6,5.01 -13.49,0.45 -26.95,1.02 -40.53,1.02 -0.24,0 -0.5,0 -0.75,0l-18.44 -0.03 0 8.58 0.42 0.04c18.58,1.6 36.63,4.14 55.38,5.47 15.97,1.14 31.82,2.6 47.76,3.81 6.14,0.46 12.27,0.8 18.54,0.8 2.36,0 4.75,-0.05 7.16,-0.16 0.97,-0.04 1.9,-0.06 2.79,-0.06 8.45,0 13.26,1.97 14.27,5.84 3.84,14.68 9.76,29.27 11.3,44.04 0.07,0.58 0.12,1.16 0.12,1.74 0,4.09 -1,4.74 -10.23,5.86 -13.27,1.62 -26.78,2.8 -40.38,3.78 -69.46,4.98 -129.51,22.7 -189.56,24.36l-0.69 3.65 104.09 2.02 8.01 19.6c0.42,2.2 0.83,4.4 1.22,6.59 1,5.59 1.94,11.19 2.87,16.79 0.2,1.14 0.16,2.33 -0.26,3.47 -1.16,3.23 -3.7,4.53 -10.16,4.53 -0.92,0 -1.92,-0.02 -3,-0.07 -19.27,-0.92 -38.61,-0.51 -57.89,-0.75 -43.42,-0.56 -86.9,-0.75 -130.23,-1.88 -44.05,-1.16 -88.1,-1.91 -132.2,-2.61 -38.53,-0.61 -77.05,-0.83 -115.56,-0.83 -41.16,0 -82.3,0.25 -123.43,0.53 -53.8,0.37 -107.62,0.05 -161.37,0.74 -62.43,0.82 -124.85,0.33 -187.25,0.96 -28.62,0.29 -57.28,0.1 -85.82,0.81 -23.8,0.57 -47.58,0.4 -71.35,0.81 -45.45,0.8 -90.93,1.47 -136.33,2.68 -33.03,0.88 -66.1,1.4 -99.07,2.51 -25.75,0.87 -51.69,1.07 -77.07,3.42 -1.68,0.16 -3.3,0.24 -4.85,0.24z"/>
 </g>
 <g id="Desktop">
  <metadata id="CorelCorpID_1Corel-Layer"/>
  <g id="_2354819498016">
   <path class="fil1" d="M237.28 141.52c-4.09,15.2 -8.04,30.51 -11.42,45.85 -1.65,7.49 -4.31,18.75 -4.31,26.4 0,8.59 3.96,11.24 12.25,11.96 7.69,0.66 19.58,2.31 19.58,12.51 0,8.8 -7.47,12.79 -15.4,12.79 -7.15,0 -14.35,-0.4 -21.48,-0.94 -13.25,-1.01 -27.25,-0.89 -40.72,-0.89l-26.09 -0.54c-4.11,0.27 -8.32,0.54 -12.44,0.54 -7.64,0 -14.01,-4.52 -14.01,-12.61 0,-9.52 9.45,-12.23 17.17,-12.71 6.48,-0.41 12.93,-2.1 17.89,-6.5 6.11,-5.41 10.5,-17.8 12.81,-25.37 7.98,-26.17 14.38,-53.82 20.87,-80.41 3.81,-15.62 7.57,-31.34 10.78,-47.1 1.25,-6.16 3.45,-15.77 3.45,-22.02 0,-4.83 -1.3,-9.12 -4.01,-13.11 -2.38,-3.5 -5.88,-4.58 -9.99,-4.79 -7.33,-0.36 -15.64,-3.23 -15.64,-12.05 0,-7.87 6.25,-12.18 13.8,-12.17l40.84 0.73 65.16 -1.09c23,0 48.79,3.48 67.81,17.48 16.38,12.06 25.08,28.54 25.08,48.93 0,23.25 -11.37,41.53 -29.57,55.46 -23.88,18.28 -60.58,21.78 -89.61,21.78 -10.96,0 -21.91,-0.73 -32.78,-2.13zm171.58 43.11c-2.18,9.73 -4.34,20.9 -4.34,30.29 0,3.22 0.86,6.06 2.73,8.67 1.25,1.75 2.6,2.46 4.75,2.46 6.32,0 12.58,-3.51 17.52,-7.16 7.22,-5.34 13.23,-11.88 18.1,-19.42 3.38,-5.23 8.19,-10.31 14.91,-10.31 7.05,0 12.24,4.96 12.24,12.06 0,12.31 -14.28,25.22 -22.87,32.57 -13.39,11.47 -29.08,19.04 -46.95,19.04 -13.24,0 -24.58,-4.95 -32.77,-15.45 -7.57,-9.7 -11.24,-20.9 -11.24,-33.19 0,-29.47 15.49,-57.77 32.68,-80.76 15.79,-21.13 39.03,-44.93 67.46,-44.93 9.24,0 17.37,3.34 23.69,10.12 5.76,6.19 9.25,13.63 9.25,22.15 0,16.83 -10.36,31.11 -22.14,42.17 -16.31,15.31 -41.26,25.13 -62.99,31.68zm163.9 -80.71c2.92,-3.43 5.97,-6.68 9.15,-9.67 8.5,-8.01 19.16,-15 31.25,-15 7.08,0 13.63,2.13 18.95,6.85 5.57,4.94 8.27,11.49 8.27,18.9 0,6.36 -2.16,12.16 -6,17.21 -4.39,5.78 -10.52,9.02 -17.8,9.02 -10.12,0 -18.08,-4.61 -21.75,-13.61 -3.42,3.55 -7.4,8.73 -8.86,10.68 -9.71,12.97 -17.93,27.59 -25.17,42.08l-26.99 82.46 -15.86 -0 -10.21 0.19 -13.19 -0.97 2.33 -10.05c2.48,-10.66 7.19,-23.21 10.67,-33.7 6.57,-24.67 13.12,-49.41 19.15,-74.22 0.91,-3.73 2.62,-10.04 4.03,-16.15 -5.06,5.05 -9.66,10.52 -13.72,16.41 -3.63,5.27 -8.8,11.85 -15.85,11.85 -6.81,0 -11.81,-4.84 -11.81,-11.69 0,-8.68 15.32,-25.06 20.78,-31.23 9.6,-10.87 23.68,-24.05 39.18,-24.05 6.86,0 13.32,2.19 17.8,7.56 3.55,4.26 5.7,9.26 5.7,14.85 0,0.74 -0.02,1.5 -0.05,2.27zm108.09 -11.22l17.1 -57.73 6.69 0.1c8.17,0.12 16.36,0.68 24.46,1.85l10.14 1.47 -12.9 42.78c1.27,-0.06 2.54,-0.1 3.8,-0.1 17.04,0 32.79,5.08 43.75,18.61 9.62,11.89 14.38,25.69 14.38,40.98 0,29.3 -11.29,53.96 -32.88,73.71 -22.41,20.5 -50.89,31.44 -80.39,36.74 -6.16,17.88 -17.84,51.96 -17.84,66.6 0,3.26 12.83,4.95 15.05,5.18 6.48,0.83 11.97,4.86 11.97,11.86 0,7.78 -6.05,12.3 -13.7,12.3l-38.89 -1.09c-6.28,0 -12.56,0.32 -18.97,0.89 -6.7,0.48 -13.56,0.94 -20.28,0.94 -7.32,0 -13.82,-4.11 -13.82,-12.12 0,-8.97 8.45,-12.16 15.99,-12.65 4.63,-0.3 10.38,-1.23 14.16,-4.14 4.18,-3.22 8.04,-13.11 9.73,-17.91 9.27,-26.36 17.09,-54.38 25,-81.19l25.91 -87.83c-0.29,0.25 -0.58,0.51 -0.86,0.76 -5.86,5.2 -12.89,11.48 -17.67,17.7 -3.84,5.02 -9.54,12.59 -16.5,12.59 -6.72,0 -11.27,-5.11 -11.27,-11.69 0,-9.85 13.45,-22.9 19.97,-29.35 11.4,-11.28 24.13,-21.05 37.87,-29.28zm157.6 91.93c-2.18,9.73 -4.34,20.9 -4.34,30.29 0,3.22 0.86,6.06 2.73,8.67 1.25,1.75 2.6,2.46 4.75,2.46 6.32,0 12.58,-3.51 17.52,-7.16 7.22,-5.34 13.23,-11.88 18.1,-19.42 3.38,-5.23 8.19,-10.31 14.91,-10.31 7.05,0 12.24,4.96 12.24,12.06 0,12.31 -14.28,25.22 -22.87,32.57 -13.39,11.47 -29.08,19.04 -46.95,19.04 -13.24,0 -24.58,-4.95 -32.77,-15.45 -7.57,-9.7 -11.24,-20.9 -11.24,-33.19 0,-29.47 15.49,-57.77 32.68,-80.76 15.79,-21.13 39.03,-44.93 67.46,-44.93 9.24,0 17.37,3.34 23.69,10.12 5.76,6.19 9.25,13.63 9.25,22.15 0,16.83 -10.36,31.11 -22.14,42.17 -16.31,15.31 -41.26,25.13 -62.99,31.68zm161.31 -76.8c-2.29,7.41 -5.05,14.97 -7.53,22.06 -6.92,19.75 -13.79,39.75 -19.63,59.86 -2.09,7.22 -6.29,21.06 -6.29,28.52 0,0.41 0.02,1.18 0.1,1.87 8.76,-1.39 26.77,-21.66 31.53,-27.21 3.24,-3.79 7.37,-7.04 12.61,-7.04 6.66,0 12.06,4.44 12.06,11.33 0,9.56 -18.36,25.94 -24.76,32.06 -14.3,13.71 -31.57,23.58 -51.82,23.58 -7.18,0 -14.05,-2.1 -18.92,-7.61 -3.94,-4.47 -6.29,-9.84 -6.29,-15.83 0,-11.67 4.19,-25.04 8.2,-35.82 10.01,-28.1 19.31,-56.85 28.75,-85.25l-4.65 -0.1 -11.85 0.36c-6.51,0 -11.33,-4.73 -11.33,-11.27 0,-4.86 0.58,-10.17 5.04,-13.13 3.62,-2.36 9.81,-2.59 13.87,-2.92 5.89,-0.47 11.87,-0.65 17.82,-0.72 2.88,-9.26 6.01,-18.45 9.16,-27.61l7.07 -20.6 0.08 -0.21c1.73,-4.32 5.68,-6.95 10.33,-6.95 5.03,0 10.02,0.69 14.88,2.02 6.04,1.66 12.64,4.81 12.64,12.17l0 1.49 -0.93 2.67 -12.55 38.2 10.1 0.25c3.85,0.1 12.32,-0.13 15.65,1.87 3.24,1.95 4.7,5.33 4.7,8.97 0,7.38 -2.09,16.87 -11.51,16.87l-0.4 0 -13.43 -1.24 -12.73 -0.62zm148.17 107.56c1.39,-1.2 2.63,-2.38 3.27,-3.01 4.96,-4.94 9.8,-10.4 13.59,-16.3 3.33,-5.16 7.9,-10.56 14.61,-10.56 6.77,0 11.69,4.92 11.69,11.69 0,10.89 -14.64,25.62 -21.78,32.86 -10.3,10.44 -24.61,22.05 -40.07,22.05 -6.63,0 -12.64,-2.55 -16.55,-8.01 -3.74,-5.22 -4.75,-11.88 -4.75,-18.17 0,-1.85 0.06,-3.7 0.16,-5.57 -14.36,16.77 -32,31.74 -50,31.74 -7.39,0 -13.68,-3.32 -18.6,-8.75 -4.96,-5.48 -7.52,-12.17 -7.52,-19.56 0,-6.11 0.76,-12.16 2.2,-18.09 3.67,-15.12 9.87,-31.86 14.81,-46.67 4.55,-13.61 9.19,-29.21 14.65,-42.64 -5.21,5.14 -10.69,11.51 -12.64,13.85 -3.97,4.74 -10.11,12.66 -16.88,12.66 -6.56,0 -11.33,-4.77 -11.33,-11.33 0,-10.23 14.42,-24.3 21.18,-30.99 10.11,-10 24,-21 38.96,-21 7.1,0 13.19,3.02 17.96,8.23 4.67,5.1 7.24,11.26 7.24,18.19 0,11.71 -7.83,31.09 -12.21,41.91 -6.36,15.68 -22.35,54.67 -22.89,72.18 1.24,-0.69 2.49,-1.5 3.16,-1.95 6.07,-4.07 16.79,-18.62 21.21,-24.55 11.37,-15.22 20.94,-31.77 29.04,-48.94l28.82 -61.11 3.41 -1.24c3.14,-1.14 6.5,-1.63 9.84,-1.63 4.63,0 9.37,0.52 13.94,1.19l10.33 1.52 -3.21 9.94c-3.65,11.29 -7.92,22.57 -12.14,33.66 -8.13,21.33 -16.21,42.99 -23.03,64.78 -1.79,5.73 -4.93,15.51 -6.47,23.6zm165.7 3.14c1.46,-0.89 2.91,-1.91 3.65,-2.44 5.2,-3.75 9.81,-8.36 13.95,-13.23 3.45,-4.05 7.97,-8.95 13.73,-8.95 6.89,0 11.87,4.98 11.87,11.87 0,9.69 -15.95,22.41 -22.66,28.1 -11.09,9.4 -25.34,18.59 -40.4,18.59 -13.52,0 -19.18,-10.67 -19.18,-22.95 0,-0.08 0,-0.16 0,-0.24 -13.19,12.34 -29.14,21.37 -47.9,21.37 -11.04,0 -20.56,-4.12 -26.73,-13.46 -5.25,-7.96 -7.73,-16.83 -7.73,-26.35 0,-30.57 18.2,-60.9 36.29,-84.34 16.85,-21.84 42.13,-47.99 71.93,-47.99 7.69,0 14.53,2.75 19.53,8.67 0.02,0.03 0.05,0.06 0.08,0.09 0.52,-0.99 1.04,-1.98 1.55,-2.96l2.96 -5.61 6.26 1.01c3.67,0.59 7.35,1.14 11.02,1.79l0.37 0.07c1.38,0.3 2.95,0.72 4.34,0.92l11.67 1.66 -4.88 10.74c-2.77,6.1 -5.05,13.13 -7.21,19.47 -4.36,12.8 -8.48,25.69 -12.56,38.58l-15.77 49.81 -0.07 0.2c-1.77,4.75 -3.45,10.19 -4.12,15.57zm-1069.63 -101.99c5.77,0.61 11.62,1.05 17.29,1.05 19.03,0 41.19,-3.24 55.31,-17.28 10.71,-10.64 17.35,-23.14 17.35,-38.47 0,-9.74 -4.13,-17.97 -10.54,-25.17 -8,-8.97 -20.1,-11.35 -31.63,-11.35 -7.68,0 -15.38,0.79 -22.97,2.09 -8.81,29.55 -17.19,59.25 -24.81,89.13zm174.77 35.49c8.72,-5.33 16.83,-11.62 24.04,-19 6.76,-6.91 15.62,-17.7 15.62,-27.97 0,-0.23 -0.38,-0.78 -0.71,-1.21 -0.02,0 -0.05,0 -0.07,0 -6.92,0 -15.82,8.38 -20.22,12.98 -7.79,8.15 -14.01,22 -18.66,35.2zm300.22 -44.11l-34.52 115.48c13.4,-2.29 26.75,-12.45 36.15,-20.98 16.34,-14.83 23.34,-33.54 23.34,-55.48 0,-9.33 -1,-23.55 -7.38,-31.03 -4.42,-5.18 -9.62,-8.04 -16.47,-8.04 -0.36,0 -0.73,0.02 -1.11,0.05zm129.38 44.11c8.72,-5.33 16.83,-11.62 24.04,-19 6.76,-6.91 15.62,-17.7 15.62,-27.97 0,-0.23 -0.38,-0.78 -0.71,-1.21 -0.02,0 -0.05,0 -0.07,0 -6.92,0 -15.82,8.38 -20.22,12.98 -7.79,8.15 -14.01,22 -18.66,35.2zm442.11 -45.99c-6.09,0 -15.31,8.36 -19.29,12.3 -11.02,10.89 -19,26.56 -24.74,40.78 -5.41,13.4 -10.98,30.17 -10.98,44.78 0,3.54 0.38,9.05 2.51,12.06 1.21,1.71 2.95,2.06 4.97,2.06 14.36,0 28.38,-22.68 34.36,-33.3 10.76,-19.1 20.11,-41.75 20.11,-64.02 0,-4.11 -0.69,-8.43 -2.96,-11.93 -0.99,-1.53 -2.07,-2.73 -3.97,-2.73z"/>
  </g>
  <path class="fil2" d="M230.79 131.66c-12.05,44.37 -18.08,71.76 -18.08,82.11 0,12.66 6.75,19.54 20.33,20.76 7.67,0.61 11.5,1.83 11.5,3.71 0,2.62 -2.19,3.96 -6.57,3.96 -5.66,0 -12.6,-0.31 -20.82,-0.91 -7.79,-0.61 -21.55,-0.91 -41.21,-0.91l-26.48 -0.55c-5.54,0.37 -9.68,0.55 -12.23,0.55 -3.47,0 -5.18,-1.28 -5.18,-3.77 0,-2.25 2.98,-3.53 8.89,-3.9 9.62,-0.61 17.35,-3.53 23.19,-8.7 5.9,-5.24 11.02,-15.04 15.4,-29.4 4.38,-14.36 11.38,-41.33 21,-80.89 9.68,-39.5 14.49,-63.24 14.49,-71.21 0,-6.63 -1.82,-12.66 -5.54,-18.08 -3.65,-5.42 -9.25,-8.28 -16.86,-8.64 -4.81,-0.24 -7.24,-1.28 -7.24,-3.23 0,-2.25 1.58,-3.35 4.81,-3.35l41.14 0.73 65.01 -1.09c27.45,0 48.27,5.23 62.57,15.76 14.3,10.53 21.48,24.47 21.48,41.82 0,18.99 -8.7,35.12 -26.11,48.45 -17.41,13.33 -45.53,19.96 -84.24,19.96 -12.84,0 -25.93,-1.03 -39.26,-3.16zm2.19 -7.55c11.62,1.52 21.06,2.31 28.3,2.31 27.75,0 48.27,-6.63 61.54,-19.84 13.33,-13.21 19.96,-28.12 19.96,-44.74 0,-11.14 -4.26,-21.48 -12.78,-31.04 -8.52,-9.56 -21.3,-14.3 -38.22,-14.3 -9.37,0 -19.36,1.1 -29.89,3.23 -11.2,37.31 -20.88,72.13 -28.91,104.39zm168.42 53.5c-3.84,16.43 -5.72,28.85 -5.72,37.31 0,5.11 1.46,9.74 4.38,13.82 2.92,4.08 6.94,6.15 11.93,6.15 7.18,0 14.73,-2.98 22.76,-8.89 8.04,-5.96 14.79,-13.21 20.27,-21.73 2.74,-4.2 5.24,-6.27 7.49,-6.27 2.25,0 3.41,1.09 3.41,3.23 0,5.96 -6.63,14.61 -19.78,25.87 -13.15,11.26 -26.9,16.92 -41.21,16.92 -10.96,0 -19.54,-4.02 -25.81,-12.05 -6.27,-8.03 -9.37,-17.29 -9.37,-27.75 0,-22.7 10.28,-47.84 30.92,-75.47 20.63,-27.57 40.78,-41.39 60.38,-41.39 6.94,0 12.66,2.43 17.22,7.3 4.57,4.93 6.88,10.29 6.88,16.13 0,11.69 -6.45,23.62 -19.36,35.73 -12.96,12.17 -34.39,22.52 -64.4,31.1zm2.68 -8.03c17.96,-7.85 32.99,-18.02 45.04,-30.37 12.11,-12.36 18.14,-23.74 18.14,-34.15 0,-2.25 -0.85,-4.5 -2.62,-6.7 -1.71,-2.25 -4.02,-3.35 -7,-3.35 -7.73,0 -16.62,5.24 -26.6,15.7 -10.04,10.47 -18.99,30.07 -26.96,58.86zm155.27 -31.17c10.11,-16.8 19.66,-29.34 28.61,-37.74 8.89,-8.4 17.29,-12.6 25.2,-12.6 5.24,0 9.62,1.52 13.09,4.63 3.53,3.1 5.3,7.18 5.3,12.3 0,4.26 -1.4,8.22 -4.2,11.87 -2.8,3.71 -6.39,5.54 -10.77,5.54 -7.61,0 -12.36,-3.35 -14.24,-10.1 -1.22,-4.44 -2.8,-6.7 -4.81,-6.7 -3.71,0 -9.92,5.78 -18.63,17.41 -8.7,11.63 -17.47,26.29 -26.29,44.01l-25.2 77 -9.62 0 -9.8 0.18 -2.5 -0.18c0.61,-2.62 4.08,-13.63 10.53,-33.17 17.22,-64.7 25.87,-100.25 25.87,-106.52 0,-2.31 -0.91,-3.47 -2.74,-3.47 -2.25,0 -6.57,3.04 -12.9,9.13 -6.33,6.09 -11.81,12.54 -16.49,19.36 -3.71,5.36 -6.58,8.03 -8.58,8.03 -2.01,0 -2.98,-0.97 -2.98,-2.86 0,-2.86 6.15,-11.32 18.57,-25.38 12.42,-14.06 23.25,-21.06 32.56,-21.06 4.87,0 8.58,1.46 11.02,4.38 2.43,2.92 3.65,5.96 3.65,9.19 0,3.65 -0.73,9.56 -2.13,17.65 -0.49,2.74 -1.34,9.13 -2.5,19.11zm128.98 -39.87l16.19 -54.66c8.4,0.12 16.19,0.73 23.31,1.76l-13.88 46.02c5.9,-1.16 11.26,-1.77 16.19,-1.77 16.31,0 28.61,5.11 36.89,15.34 8.28,10.23 12.42,22.03 12.42,35.43 0,26.48 -9.98,48.88 -30.01,67.2 -19.96,18.26 -46.99,30.07 -81.07,35.43 -13.33,38.95 -20.03,63.73 -20.03,74.44 0,7.73 7.61,12.42 22.76,13.94 2.86,0.37 4.26,1.4 4.26,3.1 0,2.31 -1.52,3.47 -4.62,3.47l-39.14 -1.09c-6.27,0 -12.84,0.31 -19.6,0.91 -8.58,0.61 -15.16,0.91 -19.66,0.91 -3.35,0 -4.99,-1.09 -4.99,-3.29 0,-2.19 2.56,-3.47 7.73,-3.84 8.1,-0.49 14.43,-2.43 18.99,-5.96 4.5,-3.47 8.77,-10.83 12.66,-21.97 3.96,-11.2 12.29,-38.41 25.14,-81.62l33.24 -112.66c-6.27,3.23 -13.82,8.7 -22.52,16.5 -8.77,7.73 -15.03,14.06 -18.81,18.93 -4.62,6.09 -7.79,9.13 -9.49,9.13 -1.64,0 -2.43,-0.97 -2.43,-2.86 0,-3.96 5.78,-11.63 17.35,-23.07 11.56,-11.44 24.65,-21.36 39.14,-29.7zm-15.64 133.42c3.04,0.49 5.23,0.73 6.39,0.73 14.18,0 30.01,-7.91 47.48,-23.74 17.47,-15.89 26.23,-36.52 26.23,-62.02 0,-17.1 -3.16,-29.34 -9.49,-36.76 -6.33,-7.43 -14.06,-11.14 -23.19,-11.14 -2.25,0 -4.93,0.42 -8.04,1.22l-39.38 131.72zm158.32 -54.35c-3.84,16.43 -5.72,28.85 -5.72,37.31 0,5.11 1.46,9.74 4.38,13.82 2.92,4.08 6.94,6.15 11.93,6.15 7.18,0 14.73,-2.98 22.76,-8.89 8.04,-5.96 14.79,-13.21 20.27,-21.73 2.74,-4.2 5.24,-6.27 7.49,-6.27 2.25,0 3.41,1.09 3.41,3.23 0,5.96 -6.63,14.61 -19.78,25.87 -13.15,11.26 -26.9,16.92 -41.21,16.92 -10.96,0 -19.54,-4.02 -25.81,-12.05 -6.27,-8.03 -9.37,-17.29 -9.37,-27.75 0,-22.7 10.28,-47.84 30.92,-75.47 20.63,-27.57 40.78,-41.39 60.38,-41.39 6.94,0 12.66,2.43 17.22,7.3 4.57,4.93 6.88,10.29 6.88,16.13 0,11.69 -6.45,23.62 -19.36,35.73 -12.96,12.17 -34.39,22.52 -64.4,31.1zm2.68 -8.03c17.96,-7.85 32.99,-18.02 45.04,-30.37 12.11,-12.36 18.14,-23.74 18.14,-34.15 0,-2.25 -0.85,-4.5 -2.62,-6.7 -1.71,-2.25 -4.02,-3.35 -7,-3.35 -7.73,0 -16.62,5.24 -26.6,15.7 -10.04,10.47 -18.99,30.07 -26.96,58.86zm159.53 -70.91c-0.91,3.47 -4.02,12.9 -9.31,28.3 -17.59,49.97 -26.41,80.41 -26.41,91.3 0,7.18 2.68,10.77 8.03,10.77 8.77,0 21.79,-10.1 39.14,-30.37 2.25,-2.62 4.2,-3.96 5.9,-3.96 2.13,0 3.23,0.85 3.23,2.5 0,3.1 -7.37,11.62 -22.03,25.69 -14.67,14.06 -29.89,21.12 -45.71,21.12 -5.42,0 -9.56,-1.52 -12.3,-4.62 -2.74,-3.1 -4.08,-6.45 -4.08,-9.98 0,-8.1 2.56,-19.05 7.67,-32.81 0.36,-0.97 11.26,-33.23 32.62,-96.84l-16.86 -0.37 -11.81 0.37c-1.65,0 -2.5,-0.79 -2.5,-2.43 0,-3.35 0.36,-5.3 1.09,-5.78 0.67,-0.55 3.9,-1.03 9.68,-1.46 5.72,-0.48 13.63,-0.73 23.68,-0.73 2.92,-9.86 6.57,-21.06 10.96,-33.54l7 -20.39c0.37,-0.91 1.03,-1.4 2.13,-1.4 4.26,0 8.46,0.55 12.54,1.7 4.14,1.1 6.15,2.31 6.15,3.65l-0.49 1.4 -16.25 49.48 21.97 0.55c7.24,0.24 11.02,0.43 11.32,0.61 0.3,0.18 0.42,0.67 0.42,1.4 0,5.36 -0.91,8.03 -2.68,8.03l-13.21 -1.22 -19.9 -0.97zm187.96 -8.03c-1.95,6.03 -5.9,17.1 -11.99,33.23 -20.63,53.99 -30.98,87.04 -30.98,99.15 0,1.64 0.3,2.86 1.03,3.71 0.73,0.79 1.76,1.22 3.22,1.22 3.71,0 8.7,-3.1 14.98,-9.31 6.21,-6.21 11.14,-12.17 14.79,-17.77 2.74,-4.32 5.11,-6.51 7.18,-6.51 1.89,0 2.86,0.97 2.86,2.86 0,4.81 -6.45,13.69 -19.23,26.66 -12.78,12.96 -24.04,19.42 -33.78,19.42 -4.14,0 -7.3,-1.46 -9.37,-4.32 -2.07,-2.92 -3.1,-7.24 -3.1,-13.02 0,-11.69 2.5,-25.87 7.49,-42.55 -26.05,39.93 -48.08,59.89 -66.16,59.89 -4.5,0 -8.52,-1.95 -12.05,-5.84 -3.47,-3.84 -5.24,-8.4 -5.24,-13.64 0,-5.29 0.67,-10.59 1.95,-16.01 1.34,-5.36 6.21,-20.69 14.61,-45.95 8.46,-25.2 13.57,-39.99 15.34,-44.25 2.19,-5.11 3.22,-9.49 3.22,-13.21 0,-1.28 -0.3,-2.25 -0.85,-2.92 -0.61,-0.67 -1.58,-0.97 -2.86,-0.97 -5.11,0 -14.42,8.03 -28,24.1 -5.17,6.33 -8.58,9.5 -10.1,9.5 -1.71,0 -2.5,-0.85 -2.5,-2.5 0,-4.14 6.15,-12.42 18.56,-24.71 12.42,-12.3 23.31,-18.44 32.75,-18.44 4.38,0 8.22,1.77 11.44,5.36 3.28,3.53 4.93,7.61 4.93,12.23 0,6.75 -3.9,19.6 -11.57,38.59 -15.7,38.65 -23.55,64.09 -23.55,76.39 0,2.25 0.61,4.38 1.88,6.27 1.22,1.89 2.74,2.86 4.51,2.86 2.37,0 5.9,-1.52 10.53,-4.62 4.62,-3.1 12.42,-11.93 23.37,-26.6 10.96,-14.67 20.94,-31.47 29.95,-50.46l27.27 -57.82c2.01,-0.73 4.32,-1.1 6.82,-1.1 3.41,0 7.67,0.37 12.66,1.1zm164.16 0.61c-3.35,7.37 -10.04,27.03 -20.15,59.04l-15.7 49.61c-3.35,9.01 -4.99,16.68 -4.99,23.13 0,4.02 1.95,6.03 5.9,6.03 2.74,0 6.75,-1.95 12.05,-5.78 5.36,-3.83 10.47,-8.7 15.52,-14.67 3.35,-3.9 5.66,-5.84 7,-5.84 2.01,0 3.04,1.03 3.04,3.04 0,3.22 -6.51,10.35 -19.54,21.36 -12.96,11.02 -24.53,16.5 -34.69,16.5 -6.88,0 -10.35,-4.69 -10.35,-14.12 0,-6.57 0.43,-14.91 1.22,-25.02 -18.44,24.9 -37.8,37.31 -57.94,37.31 -8.77,0 -15.16,-3.16 -19.36,-9.49 -4.2,-6.39 -6.27,-13.51 -6.27,-21.49 0,-22.88 11.5,-49.18 34.45,-78.94 22.95,-29.7 44.55,-44.55 64.94,-44.55 5.42,0 9.68,1.83 12.78,5.54 3.17,3.71 5.18,9.31 6.03,16.86 2.13,-5.42 5.54,-12.54 10.16,-21.3 3.77,0.61 7.43,1.16 10.89,1.77 2.5,0.55 4.14,0.91 4.99,1.03zm-54.84 5.96c-6.94,0 -15.46,4.93 -25.5,14.85 -10.04,9.92 -18.93,24.53 -26.72,43.76 -7.73,19.23 -11.62,35.24 -11.62,48.08 0,7.55 1.4,13.27 4.14,17.17 2.74,3.84 6.82,5.78 12.17,5.78 13.88,0 27.88,-12.6 42.06,-37.8 14.18,-25.14 21.24,-47.96 21.24,-68.35 0,-6.64 -1.46,-12.23 -4.38,-16.74 -2.92,-4.51 -6.75,-6.76 -11.38,-6.76z"/>
 </g>
</svg>
