<?xml version="1.0" encoding="UTF-8"?>
<!DOCTYPE svg PUBLIC "-//W3C//DTD SVG 1.1//EN" "http://www.w3.org/Graphics/SVG/1.1/DTD/svg11.dtd">
<!-- Creator: CorelDRAW 2020 (64-Bit) -->
<svg xmlns="http://www.w3.org/2000/svg" xml:space="preserve" width="320.123mm" height="259.08mm" version="1.1" style="shape-rendering:geometricPrecision; text-rendering:geometricPrecision; image-rendering:optimizeQuality; fill-rule:evenodd; clip-rule:evenodd"
viewBox="0 0 19966.97 16159.54"
 xmlns:xlink="http://www.w3.org/1999/xlink"
 xmlns:xodm="http://www.corel.com/coreldraw/odm/2003">
 <defs>
  <style type="text/css">
   <![CDATA[
    .str0 {stroke:#A98F71;stroke-width:12.47;stroke-miterlimit:22.9256}
    .str1 {stroke:#A98F71;stroke-width:4.75;stroke-miterlimit:22.9256}
    .fil1 {fill:none}
    .fil0 {fill:#A98F71}
    .fil2 {fill:#E8D4B4;fill-opacity:0.619608}
   ]]>
  </style>
    <clipPath id="id0">
     <path d="M10658.03 8491.98l3422.53 0c426.01,0 774.56,348.55 774.56,774.56l0 2647.97c0,426.01 -348.55,774.56 -774.56,774.56l-2647.97 0c-426.01,0 -774.56,-348.55 -774.56,-774.56l0 -3422.53zm-1349.07 -824.43l-3422.53 0c-426.01,0 -774.56,-348.55 -774.56,-774.55l0 -2647.98c0,-426.01 348.55,-774.56 774.56,-774.56l2647.97 0c426.01,0 774.56,348.55 774.56,774.56l0 3422.53zm599.58 749.48l-3911.46 0c-486.87,0 -885.21,398.35 -885.21,885.21l0 3026.25c0,486.86 398.34,885.21 885.21,885.21l3026.24 0c486.87,0 885.21,-398.35 885.21,-885.21l0 -3911.46zm149.91 -674.54l3911.46 0c486.87,0 885.21,-398.34 885.21,-885.21l0 -3026.24c0,-486.87 -398.34,-885.21 -885.21,-885.21l-3026.24 0c-486.87,0 -885.21,398.34 -885.21,885.21l0 3911.46z"/>
    </clipPath>
    <clipPath id="id1">
     <path d="M10658.03 8491.98l3422.53 0c426.01,0 774.56,348.55 774.56,774.56l0 2647.97c0,426.01 -348.55,774.56 -774.56,774.56l-2647.97 0c-426.01,0 -774.56,-348.55 -774.56,-774.56l0 -3422.53zm-1349.07 -824.43l-3422.53 0c-426.01,0 -774.56,-348.55 -774.56,-774.55l0 -2647.98c0,-426.01 348.55,-774.56 774.56,-774.56l2647.97 0c426.01,0 774.56,348.55 774.56,774.56l0 3422.53zm599.58 749.48l-3911.46 0c-486.87,0 -885.21,398.35 -885.21,885.21l0 3026.25c0,486.86 398.34,885.21 885.21,885.21l3026.24 0c486.87,0 885.21,-398.35 885.21,-885.21l0 -3911.46zm149.91 -674.54l3911.46 0c486.87,0 885.21,-398.34 885.21,-885.21l0 -3026.24c0,-486.87 -398.34,-885.21 -885.21,-885.21l-3026.24 0c-486.87,0 -885.21,398.34 -885.21,885.21l0 3911.46z"/>
    </clipPath>
 </defs>
 <g id="Layer_x0020_1">
  <metadata id="CorelCorpID_0Corel-Layer"/>
  <g id="_2331069240960">
   <path class="fil0" d="M10658.03 8491.98l3422.53 0c426.01,0 774.56,348.55 774.56,774.56l0 2647.97c0,426.01 -348.55,774.56 -774.56,774.56l-2647.97 0c-426.01,0 -774.56,-348.55 -774.56,-774.56l0 -3422.53zm-1349.07 -824.43l-3422.53 0c-426.01,0 -774.56,-348.55 -774.56,-774.55l0 -2647.98c0,-426.01 348.55,-774.56 774.56,-774.56l2647.97 0c426.01,0 774.56,348.55 774.56,774.56l0 3422.53zm599.58 749.48l-3911.46 0c-486.87,0 -885.21,398.35 -885.21,885.21l0 3026.25c0,486.86 398.34,885.21 885.21,885.21l3026.24 0c486.87,0 885.21,-398.35 885.21,-885.21l0 -3911.46zm149.91 -674.54l3911.46 0c486.87,0 885.21,-398.34 885.21,-885.21l0 -3026.24c0,-486.87 -398.34,-885.21 -885.21,-885.21l-3026.24 0c-486.87,0 -885.21,398.34 -885.21,885.21l0 3911.46z"/>
   <g style="clip-path:url(#id0)">
   </g>
   <path id="1" class="fil1 str0" d="M10658.03 8491.98l3422.53 0c426.01,0 774.56,348.55 774.56,774.56l0 2647.97c0,426.01 -348.55,774.56 -774.56,774.56l-2647.97 0c-426.01,0 -774.56,-348.55 -774.56,-774.56l0 -3422.53zm-1349.07 -824.43l-3422.53 0c-426.01,0 -774.56,-348.55 -774.56,-774.55l0 -2647.98c0,-426.01 348.55,-774.56 774.56,-774.56l2647.97 0c426.01,0 774.56,348.55 774.56,774.56l0 3422.53zm599.58 749.48l-3911.46 0c-486.87,0 -885.21,398.35 -885.21,885.21l0 3026.25c0,486.86 398.34,885.21 885.21,885.21l3026.24 0c486.87,0 885.21,-398.35 885.21,-885.21l0 -3911.46zm149.91 -674.54l3911.46 0c486.87,0 885.21,-398.34 885.21,-885.21l0 -3026.24c0,-486.87 -398.34,-885.21 -885.21,-885.21l-3026.24 0c-486.87,0 -885.21,398.34 -885.21,885.21l0 3911.46z"/>
   <g style="clip-path:url(#id1)">
    <path id="2" class="fil1 str1" d="M5111.87 2945.83l9743.25 10267.88m0 -10267.88l-9743.25 10267.88"/>
   </g>
   <path class="fil2" d="M9308.95 7667.55l-2790.91 0c-347.39,0 -631.62,-284.22 -631.62,-631.62l0 -2159.29c0,-347.39 284.23,-631.62 631.62,-631.62l2159.29 0c347.39,0 631.62,284.23 631.62,631.62l0 2790.91z"/>
   <path class="fil2" d="M9908.54 8417.03l-3208.61 0c-399.37,0 -726.14,326.76 -726.14,726.14l0 2482.47c0,399.38 326.77,726.15 726.14,726.15l2482.47 0c399.39,0 726.14,-326.77 726.14,-726.15l0 -3208.61z"/>
   <path class="fil2" d="M10658.03 8491.98l2790.91 0c347.39,0 631.62,284.23 631.62,631.62l0 2159.29c0,347.39 -284.23,631.62 -631.62,631.62l-2159.29 0c-347.39,0 -631.62,-284.23 -631.62,-631.62l0 -2790.91z"/>
   <path class="fil2" d="M10058.44 7742.5l3208.61 0c399.37,0 726.14,-326.76 726.14,-726.14l0 -2482.47c0,-399.37 -326.77,-726.14 -726.14,-726.14l-2482.47 0c-399.39,0 -726.14,326.77 -726.14,726.14l0 3208.61z"/>
  </g>
  <rect class="fil1" x="0" y="-0" width="19966.97" height="16159.54"/>
 </g>
</svg>
