<?xml version="1.0" encoding="UTF-8"?>
<!DOCTYPE svg PUBLIC "-//W3C//DTD SVG 1.1//EN" "http://www.w3.org/Graphics/SVG/1.1/DTD/svg11.dtd">
<!-- Creator: CorelDRAW 2020 (64-Bit) -->
<svg xmlns="http://www.w3.org/2000/svg" xml:space="preserve" width="279.771mm" height="211.676mm" version="1.1" style="shape-rendering:geometricPrecision; text-rendering:geometricPrecision; image-rendering:optimizeQuality; fill-rule:evenodd; clip-rule:evenodd"
viewBox="0 0 10339.43 7822.87"
 xmlns:xlink="http://www.w3.org/1999/xlink"
 xmlns:xodm="http://www.corel.com/coreldraw/odm/2003">
 <defs>
  <style type="text/css">
   <![CDATA[
    .fil2 {fill:#A98F71}
    .fil0 {fill:#E8D4B4}
    .fil1 {fill:#E3C9A3}
   ]]>
  </style>
 </defs>
 <g id="Layer_x0020_1">
  <metadata id="CorelCorpID_0Corel-Layer"/>
  <path class="fil0" d="M9205.3 1585.17l-6804.83 0c-313.04,0 -567,254.04 -567,567.18 0,1512.14 0,3024.27 0,4536.41 0,313.15 254.09,567.18 567,567.18l6804.83 0c313.04,0 567.13,-254.04 567.13,-567.18l-0.13 -4536.41c0,-313.15 -253.96,-567.18 -567,-567.18z"/>
  <path class="fil1" d="M9205.3 1585.17l-3114.3 0c-80.41,124.78 -158.52,252.2 -234.02,382.77 -1045.2,1810.31 -1349,3769.04 -959.56,5288.01l4307.89 0c313.04,0 567.13,-254.04 567.13,-567.18l-0.13 -4536.41c0,-313.15 -253.96,-567.18 -567,-567.18z"/>
  <path class="fil2" d="M7309.25 4845.88l-394.14 0c-107.29,0 -194.9,87.74 -194.9,194.93l0 177.33c0,107.18 87.61,194.93 194.9,194.93l394.14 0c107.29,0 195.03,-87.75 195.03,-194.93l0 -177.33c0,-107.19 -87.74,-194.93 -195.03,-194.93z"/>
  <path class="fil2" d="M9205.3 7255.95l-6804.83 0c-312.91,0 -567,-254.04 -567,-567.18l0 -2551.67 7938.83 0 0.13 2551.67c0,313.15 -254.09,567.18 -567.13,567.18zm-7853.05 -5537.06l-785.12 0 0 -584.78c0,-313.15 253.99,-567.18 567,-567.18l6804.69 0c273.4,0 501.69,193.88 555.15,451.33l-6093.5 0c-472.74,0 -877.94,289.24 -1048.22,700.64zm-85.9 4518.81l-132.22 0c-313.02,0 -567,-254.04 -567,-567.18l0 -2551.67 699.22 0 0 3118.85zm7938.95 -4652.53c313.04,0 567,254.04 567,567.18l0 584.79 -7938.83 0 0 -584.79c0,-313.15 253.96,-567.18 567,-567.18l6804.83 0zm0 -566.92l-138.34 0c-58.01,-571.91 -540.91,-1018.25 -1128.14,-1018.25l-6804.69 0c-626.32,0 -1134.13,507.55 -1134.13,1134.1l0 4536.41c0,626.29 507.81,1134.1 1134.13,1134.1l138.08 0c58.14,571.91 541.07,1018.25 1128.27,1018.25l6804.83 0c626.32,0 1134.13,-507.55 1134.13,-1134.1l0 -4536.41c0,-626.29 -507.81,-1134.1 -1134.13,-1134.1z"/>
  <path class="fil2" d="M6152.94 4845.88l-3521.84 0c-107.29,0 -194.9,87.74 -194.9,194.93l0 177.33c0,107.18 87.61,194.93 194.9,194.93l3521.84 0c107.16,0 194.9,-87.75 194.9,-194.93l0 -177.33c0,-107.19 -87.74,-194.93 -194.9,-194.93z"/>
  <path class="fil0" d="M7938.82 566.92l-6804.69 0c-313.02,0 -567,254.04 -567,567.18l0 584.78 785.12 0c170.29,-411.4 575.48,-700.64 1048.22,-700.64l6093.5 0c-53.46,-257.45 -281.75,-451.33 -555.15,-451.33z"/>
  <path class="fil1" d="M7938.82 566.92l-1080.8 0c-126.6,144.22 -249.68,294.76 -368.84,451.33l2004.79 0c-53.46,-257.45 -281.75,-451.33 -555.15,-451.33z"/>
  <path class="fil0" d="M567.13 5670.51c0,313.15 253.99,567.18 567,567.18l132.22 0 0 -3118.85 -699.22 0 0 2551.67z"/>
 </g>
</svg>
