<?xml version="1.0" encoding="UTF-8"?>
<!DOCTYPE svg PUBLIC "-//W3C//DTD SVG 1.1//EN" "http://www.w3.org/Graphics/SVG/1.1/DTD/svg11.dtd">
<!-- Creator: CorelDRAW 2020 (64-Bit) -->
<svg xmlns="http://www.w3.org/2000/svg" xml:space="preserve" width="77.2457mm" height="17.6733mm" version="1.1" style="shape-rendering:geometricPrecision; text-rendering:geometricPrecision; image-rendering:optimizeQuality; fill-rule:evenodd; clip-rule:evenodd"
viewBox="0 0 160685.58 36763.79"
 xmlns:xlink="http://www.w3.org/1999/xlink"
 xmlns:xodm="http://www.corel.com/coreldraw/odm/2003">
 <defs>
  <style type="text/css">
   <![CDATA[
    .fil2 {fill:#FEFEFE;fill-rule:nonzero}
    .fil1 {fill:#84716B;fill-rule:nonzero}
    .fil0 {fill:#AD9D88;fill-rule:nonzero}
   ]]>
  </style>
 </defs>
 <g id="Desktop">
  <metadata id="CorelCorpID_0Corel-Layer"/>
  <path class="fil0" d="M5001.6 36763.79c-571.64,0 -1054.24,-147.69 -1517.71,-417.7 -921.52,-536.27 -1637.73,-1180.51 -2531.8,-1732.38 -436.42,-268.76 -478.65,-669.82 -492.38,-1034.89 -39.73,-1098.76 -176.19,-2194.81 -282.91,-3289.61 -35.57,-362.99 -66.98,-724.95 -92.98,-1087.52l147112.77 0c98.39,641.11 221.33,1280.77 306.2,1922.51 151.44,1157.42 285.61,2316.71 418.12,3474.75 20.59,170.37 16.64,346.77 -27.04,515.89 -118.99,479.69 -379.01,673.98 -1040.72,673.98 -94.02,0 -196.79,-3.54 -307.66,-11.23 -1972.64,-136.25 -3952.77,-75.72 -5926.87,-112.12 -4446.19,-83.62 -8897.59,-111.71 -13334.42,-280.2 -4510.26,-171.82 -9020.74,-284.36 -13535.37,-387.12 -3944.66,-90.28 -7888.7,-122.94 -11831.69,-122.94 -4214.04,0 -8426.43,37.03 -12637.56,78.63 -5508.34,55.33 -11018.34,6.86 -16522.73,110.04 -6391.59,122.11 -12783.59,49.51 -19172.47,142.91 -2929.94,43.27 -5864.26,15.6 -8787.13,119.82 -2436.32,85.29 -4871.18,60.33 -7305.2,121.27 -4653.8,118.15 -9310.51,218.21 -13958.89,398.36 -3381.55,130.22 -6768.1,207.81 -10143.62,373.81 -2636.22,129.39 -5292.41,158.72 -7891.4,508.81 -172.45,23.09 -338.03,34.95 -496.54,34.95zm142070.18 -8396.26l-147037.05 0c-23.3,-476.16 -35.78,-952.52 -34.53,-1429.71 1.46,-1144.94 700.19,-1763.17 2489.98,-2123.46 2156.11,-432.68 4400.85,-618.02 6644.74,-786.52 3503.87,-264.18 7028.75,-381.09 10546.55,-547.92 4932.96,-232.57 9822.02,-664 14689.25,-1197.56 2502.05,-273.96 5001.4,-557.07 7500.74,-840.6 259.82,-29.33 558.95,-9.36 760.1,-161.84 -3536.94,64.9 -7064.53,78.42 -10579.63,209.06 -3072.23,113.58 -6141.55,71.97 -9211.07,110.04 -3635.34,47.01 -7272.13,67.81 -10906.22,147.07 -1373.96,29.33 -2747.72,85.08 -4124.8,106.92 -21.63,0.62 -44.93,0.62 -66.98,0.62 -494.88,0 -881.79,-94.23 -1294.92,-268.55 -1025.12,-435.18 -1693.69,-1090.23 -2678.03,-1549.74 -433.72,-203.44 -480.11,-571.22 -552.71,-889.28 -360.7,-1576.99 -859.95,-3141.08 -1155.34,-4724.52 -77.8,-421.45 -254.2,-834.99 -326.59,-1259.76l142723.98 0c39.52,5.2 79.46,10.19 118.99,15.39 1902.96,237.56 3750.37,615.53 5669.97,813.98 1635.03,169.33 3257.78,385.46 4890.31,565.6 628.84,69.06 1256.43,119.19 1897.76,119.19 241.93,0 486.76,-6.86 732.85,-23.51 99.64,-5.82 194.29,-9.15 285.61,-9.15 865.57,0 1357.74,292.89 1461.54,868.27 392.53,2181.7 999.53,4349.26 1156.79,6545.73 6.66,86.74 12.48,172.45 12.48,259.19 0,607.21 -102.76,704.14 -1047.58,870.77 -1358.78,240.26 -2742.31,416.25 -4134.37,562.27 -2504.96,260.86 -5005.35,541.47 -7534.65,708.72 -1232.1,81.96 -1380.83,171.62 -1299.08,945.65 103.8,989.34 254.2,1976.18 401.89,2963.64zm-36573.03 -16039.71l-108734.75 0c127.1,-386.08 488.22,-560.4 1346.71,-746.37 266.68,-58.25 557.7,-93.19 792.97,-181.81 2271.15,-861.41 4849.54,-1004.11 7407.76,-1198.6 5498.77,-416.04 10997.75,-832.08 16495.27,-1255.81 3992.3,-308.7 7980.64,-628.84 11971.69,-945.03 239.01,-19.97 478.24,-50.96 787.56,-84.25 -439.13,-118.57 -555.41,-162.05 -906.55,-162.05 -124.4,0 -277.5,5.2 -485.72,14.35 -2097.04,96.73 -4195.53,118.36 -6294.65,118.36 -883.25,0.83 -1764.83,-3.33 -2648.08,-7.7 -880.54,-3.74 -1762.34,-7.28 -2642.88,-7.28 -551.04,0 -1100.63,1.66 -1651.67,5.2 -1793.75,13.31 -3587.7,22.88 -5381.24,22.88 -1985.12,0 -3970.66,-11.02 -5954.12,-44.93 -426.65,-6.24 -853.5,-9.78 -1278.48,-9.78 -1192.16,0 -2381.61,21.63 -3572.51,28.29 -26,1.04 -52,1.04 -76.76,1.04 -1524.36,0 -2086.22,-270.22 -2484.37,-1197.15 -257.94,-602.63 -442.87,-1219.2 -620.31,-1833.89 -123.36,-430.18 -24.96,-536.27 652.14,-676.27 599.93,-123.56 1227.73,-196.79 1844.5,-286.23 460.35,-65.73 877.42,-165.17 1127.67,-432.89 213.22,-229.44 567.48,-298.51 968.12,-340.11 3515.1,-365.49 7046.64,-663.37 10588.99,-905.09 3436.05,-234.23 6877.1,-439.54 10320.85,-628.84 2249.52,-124.4 4505.48,-192.83 6755.62,-297.67 2286.13,-105.88 4570.8,-225.28 6856.72,-341.15 1124.97,-55.96 2254.3,-110.25 3378.23,-137.92 4089.65,-99.02 8173.27,-274.17 12269.36,-329.92 5540.16,-76.97 11080.33,-165.37 16620.08,-252.74 4165.78,-66.98 8331.78,-214.47 12499.02,-214.47 596.18,0 1192.16,3.33 1788.34,10.19 4977.06,55.12 9953.7,131.47 14923.27,266.68 4406.46,120.23 8807.72,308.49 13204.41,510.69 4678.76,214.88 9350.65,489.05 14026.5,722.87 3095.53,153.52 6194.8,274.38 9290.12,421.24 1617.35,77.38 3235.11,164.13 4846.84,277.08 1326.33,92.36 1607.99,297.47 1766.5,1100 396.48,2008.42 810.86,4015.8 1201.93,6024.85 108.17,554.79 188.67,1112.9 237.97,1671.64 46.39,522.75 -216.34,702.27 -1085.65,743.88 -1380.83,66.77 -2758.95,151.02 -4149.56,151.02 -24.75,0 -50.76,0 -76.76,0 -1259.14,-3.33 -2516.82,-4.78 -3775.96,-4.78 -2731.91,0 -5464.86,7.28 -8196.36,21.22 -5328.19,28.5 -10657.64,45.35 -15982.92,129.39 -2657.86,42.85 -5314.67,172.86 -7969.82,281.87z"/>
  <path class="fil1" d="M55312.2 9038.83c-704.14,1817.88 -1578.45,4666.49 -2623.12,8546.04 -1049.25,3879.55 -1569.29,6065.62 -1569.29,6548.85 0,303.71 206.98,547.71 630.5,722.45 423.32,174.94 1260.8,303.71 2508.08,395.86 206.98,18.31 312.86,82.79 312.86,193.25 0,257.74 -230.07,386.5 -690.21,386.5l-3032.91 -55.12 -4974.77 27.67c-377.35,0 -566.02,-82.79 -566.02,-248.58 0,-202.4 248.58,-303.71 745.54,-303.71 892.82,0 1509.38,-138.12 1845.33,-418.74 340.73,-276.25 616.78,-856 833.12,-1735.08l1251.65 -4625.09 1284.1 -4914.86 1104.37 -4381.29c-547.51,-105.88 -1118.31,-161.01 -1702.63,-161.01 -1261.01,0 -2393.05,326.8 -3396.32,980.18 -1007.85,653.6 -1928.33,1481.93 -2765.82,2494.35 -184.1,225.49 -326.8,335.95 -423.53,335.95 -142.7,0 -211.76,-69.06 -211.76,-202.4 0,-152.06 202.61,-713.5 612.2,-1684.54 409.59,-971.03 856,-1849.91 1330.07,-2641.42l8366.52 137.92 6521.18 -165.58c161.01,0 437.05,9.15 832.91,27.67l188.67 2848.61c64.49,658.17 96.52,1228.77 96.52,1716.57 0,216.34 -91.94,322.22 -276.04,322.22 -101.31,0 -165.58,-64.49 -193.25,-188.67 -547.71,-2710.69 -2144.67,-4063.65 -4786.1,-4063.65 -405.01,0 -823.75,36.82 -1251.86,105.67zm16631.93 5416.81c-147.28,455.56 -446.41,1293.04 -906.75,2512.66 -1559.93,4081.95 -2342.29,6580.88 -2342.29,7496.79 0,124.19 22.88,216.34 78.22,280.62 55.12,59.91 133.34,92.15 243.8,92.15 280.83,0 658.17,-234.65 1132.25,-704.14 469.29,-469.5 842.06,-920.48 1118.1,-1343.8 207.19,-326.8 386.71,-492.38 543.14,-492.38 142.7,0 216.34,73.64 216.34,216.34 0,363.41 -487.8,1035.31 -1454.26,2015.7 -966.46,980.18 -1817.88,1467.99 -2554.26,1467.99 -312.86,0 -552.08,-110.46 -708.72,-326.8 -156.43,-220.92 -234.65,-547.71 -234.65,-984.76 0,-883.66 188.67,-1956 566.02,-3216.8 -1969.52,3018.77 -3635.54,4528.36 -5002.44,4528.36 -340.53,0 -644.23,-147.28 -911.12,-441.83 -262.31,-289.98 -395.86,-635.08 -395.86,-1030.94 0,-400.23 50.76,-800.66 147.28,-1210.25 101.31,-405.01 469.5,-1564.72 1104.58,-3474.54 639.66,-1905.24 1026.16,-3023.55 1159.7,-3345.77 165.58,-386.5 243.8,-717.87 243.8,-998.7 0,-96.52 -22.88,-170.16 -64.28,-220.71 -46.18,-50.76 -119.82,-73.64 -216.34,-73.64 -386.71,0 -1090.64,607.41 -2117.01,1822.24 -391.08,478.65 -648.81,718.08 -763.85,718.08 -128.97,0 -188.67,-64.49 -188.67,-188.67 0,-313.07 464.71,-939 1403.5,-1868.42 938.79,-929.64 1762.54,-1394.56 2476.05,-1394.56 331.17,0 621.14,133.55 865.15,405.01 248.37,266.89 372.77,575.17 372.77,925.06 0,510.69 -294.55,1481.93 -874.51,2917.67 -1187.37,2922.25 -1780.85,4846.01 -1780.85,5775.64 0,170.16 45.97,331.37 142.49,473.87 92.15,142.7 207.19,216.34 340.73,216.34 179.31,0 446.2,-115.03 796.09,-349.68 349.68,-234.65 938.79,-901.97 1767.12,-2011.13 828.33,-1109.16 1583.23,-2379.32 2264.28,-3815.06l2061.67 -4371.93c151.85,-55.33 326.8,-83 515.47,-83 257.74,0 579.96,27.67 957.3,83zm6180.45 3612.45c764.05,-1270.16 1486.5,-2218.1 2162.98,-2853.19 671.9,-635.08 1306.98,-952.73 1905.24,-952.73 395.86,0 727.23,115.24 989.55,349.89 266.89,234.65 400.44,542.93 400.44,929.64 0,322.01 -105.88,621.14 -317.64,897.39 -211.76,280.62 -483.23,418.74 -814.6,418.74 -575.17,0 -934.21,-253.16 -1076.91,-763.85 -91.94,-335.95 -211.56,-506.32 -363.41,-506.32 -280.83,0 -750.12,437.26 -1408.29,1316.13 -658.17,879.09 -1320.71,1988.04 -1988.04,3327.26l-1905.24 5821.61 -727.23 0 -740.96 13.94 -188.67 -13.94c45.97,-197.83 308.28,-1030.73 796.3,-2508.08 1302.2,-4891.98 1955.79,-7579.58 1955.79,-8053.66 0,-174.74 -69.06,-262.31 -207.19,-262.31 -170.16,0 -496.96,230.07 -975.61,690.41 -478.65,460.14 -892.82,947.94 -1247.07,1463.41 -280.83,405.01 -497.16,607.41 -649.02,607.41 -151.85,0 -225.49,-73.64 -225.49,-216.13 0,-216.34 464.92,-856 1403.71,-1919.18 938.79,-1062.98 1757.97,-1592.38 2462.11,-1592.38 368.19,0 648.81,110.46 832.91,331.37 184.1,220.92 276.25,450.98 276.25,694.99 0,276.04 -55.33,722.45 -161.21,1334.65 -36.82,206.98 -101.1,690.21 -188.67,1444.9zm10819.47 943.57c952.73,-1592.38 1845.54,-2788.91 2678.45,-3585 837.48,-796.3 1615.27,-1191.95 2333.35,-1191.95 423.32,0 745.54,151.85 971.03,450.98 225.49,303.71 335.95,657.96 335.95,1072.34 0,510.69 -73.64,1039.89 -220.92,1583.02 -151.85,542.93 -520.05,1642.93 -1113.73,3295.02 -800.87,2222.89 -1201.1,3529.87 -1201.1,3920.95 0,299.13 133.34,446.41 391.08,446.41 234.65,0 598.26,-197.83 1086.07,-598.26 487.8,-395.65 851.42,-786.94 1086.07,-1173.43 234.85,-400.44 428.1,-602.84 579.96,-602.84 151.85,0 230.07,91.94 230.07,271.46 0,368.19 -464.71,998.7 -1385.2,1891.51 -920.48,897.39 -1803.94,1343.8 -2646.21,1343.8 -828.33,0 -1242.5,-349.89 -1242.5,-1044.67 0,-722.66 662.54,-2807.42 1983.46,-6254.29 510.89,-1330.07 768.42,-2323.99 768.42,-2986.73 0,-207.19 -36.82,-363.62 -115.03,-464.71 -78.22,-105.88 -197.83,-156.64 -358.83,-156.64 -266.89,0 -773.21,345.31 -1514.17,1030.94 -740.96,690.21 -1583.02,1909.82 -2526.6,3658.63 -943.37,1753.39 -1716.57,3364.08 -2319.41,4827.49 -368.19,906.75 -611.99,1362.32 -727.03,1362.32 -883.66,0 -1320.92,-119.61 -1320.92,-354.46l41.6 -142.49 2278.01 -6585.67c593.48,-1606.11 888.03,-2719.85 888.03,-3336.41 0,-271.67 -124.19,-405.01 -377.35,-405.01 -225.49,0 -589.11,220.92 -1095.22,662.75 -506.32,446.41 -906.55,860.57 -1205.68,1256.23 -230.28,303.71 -418.95,455.56 -566.23,455.56 -133.34,0 -197.83,-73.64 -197.83,-216.13 0,-285.4 487.8,-897.39 1463.41,-1831.61 975.61,-934.21 1914.61,-1403.71 2812,-1403.71 289.77,0 510.69,105.88 662.54,312.86 152.06,207.19 230.28,423.53 230.28,649.02 0,363.41 -230.28,1642.93 -685.84,3842.73zm14685.09 -4721.82c1196.52,0 2130.74,455.56 2816.57,1371.47 681.05,915.7 1021.58,1992.61 1021.58,3239.89 0,1748.81 -616.57,3377.81 -1845.33,4887.4 -1228.77,1509.38 -2696.96,2264.08 -4404.17,2264.08 -1256.43,0 -2162.98,-460.14 -2719.85,-1385.2 -556.87,-920.28 -833.12,-1891.31 -833.12,-2903.94 0,-1334.44 345.31,-2627.69 1035.52,-3884.13 690.41,-1256.23 1495.66,-2167.56 2411.56,-2738.15 915.7,-566.02 1753.39,-851.42 2517.24,-851.42zm262.31 579.96c-506.11,0 -1062.98,289.77 -1670.39,869.73 -607.62,579.96 -1205.88,1624.63 -1794.99,3134.01 -588.9,1509.38 -883.46,2922.25 -883.46,4243.17 0,644.23 147.28,1196.52 446.41,1661.24 294.55,464.92 694.78,694.99 1201.1,694.99 566.02,0 1182.79,-335.95 1840.76,-1003.27 662.75,-671.9 1274.74,-1707.42 1831.61,-3106.34 556.87,-1403.71 837.69,-2733.78 837.69,-3990.01 0,-837.69 -151.85,-1468.2 -450.98,-1882.36 -303.71,-414.17 -754.69,-621.14 -1357.74,-621.14zm11431.67 7331c0,1058.61 -377.55,1974.31 -1136.82,2747.51 -759.27,773.21 -1652.09,1159.7 -2678.45,1159.7 -883.46,0 -1573.87,-239.43 -2070.83,-713.3 -492.38,-474.07 -740.96,-920.48 -740.96,-1330.07 0,-271.46 96.73,-533.78 289.98,-782.36 197.83,-253.16 450.98,-377.35 773,-377.35 289.98,0 520.05,92.15 694.99,271.46 170.37,179.52 257.74,395.86 257.74,649.02 0,133.34 -41.4,299.13 -124.19,496.96 -83,207.19 -124.4,363.62 -124.4,460.14 0,234.85 101.31,414.17 303.71,533.98 202.61,124.19 506.32,184.1 906.75,184.1 676.48,0 1201.1,-193.46 1573.87,-575.38 372.77,-381.92 556.87,-846.84 556.87,-1398.93 0,-538.56 -354.46,-1288.68 -1058.61,-2245.77 -1136.61,-1532.68 -1702.63,-2775.18 -1702.63,-3718.54 0,-837.69 317.44,-1610.69 957.09,-2333.35 635.08,-717.87 1412.86,-1076.91 2337.92,-1076.91 653.6,0 1233.34,184.1 1730.3,547.71 497.16,368.19 745.54,773.21 745.54,1210.46 0,285.19 -96.52,533.78 -289.77,745.54 -198.03,206.98 -423.53,312.86 -690.41,312.86 -506.11,0 -759.27,-266.89 -759.27,-796.09l27.67 -727.23c0,-197.83 -115.03,-368.19 -349.89,-510.89 -243.8,-133.34 -492.38,-202.4 -754.69,-202.4 -405.01,0 -782.36,138.12 -1132.04,418.74 -349.89,280.83 -524.62,685.84 -524.62,1215.04 0,552.29 506.11,1472.57 1523.11,2761.24 971.03,1237.92 1459.04,2264.08 1459.04,3074.1z"/>
  <path class="fil2" d="M53733.75 9038.83c-704.14,1817.88 -1578.45,4666.49 -2623.12,8546.04 -1049.25,3879.55 -1569.29,6065.62 -1569.29,6548.85 0,303.71 206.98,547.71 630.5,722.45 423.32,174.94 1260.8,303.71 2508.08,395.86 206.98,18.31 312.86,82.79 312.86,193.25 0,257.74 -230.07,386.5 -690.21,386.5l-3032.91 -55.12 -4974.77 27.67c-377.35,0 -566.02,-82.79 -566.02,-248.58 0,-202.4 248.58,-303.71 745.54,-303.71 892.82,0 1509.38,-138.12 1845.33,-418.74 340.73,-276.25 616.78,-856 833.12,-1735.08l1251.65 -4625.09 1284.1 -4914.86 1104.37 -4381.29c-547.51,-105.88 -1118.31,-161.01 -1702.63,-161.01 -1261.01,0 -2393.05,326.8 -3396.32,980.18 -1007.85,653.6 -1928.33,1481.93 -2765.82,2494.35 -184.1,225.49 -326.8,335.95 -423.53,335.95 -142.7,0 -211.76,-69.06 -211.76,-202.4 0,-152.06 202.61,-713.5 612.2,-1684.54 409.59,-971.03 856,-1849.91 1330.07,-2641.42l8366.52 137.92 6521.18 -165.58c161.01,0 437.05,9.15 832.91,27.67l188.67 2848.61c64.49,658.17 96.52,1228.77 96.52,1716.57 0,216.34 -91.94,322.22 -276.04,322.22 -101.31,0 -165.58,-64.49 -193.25,-188.67 -547.71,-2710.69 -2144.67,-4063.65 -4786.1,-4063.65 -405.01,0 -823.75,36.82 -1251.86,105.67zm16631.93 5416.81c-147.28,455.56 -446.41,1293.04 -906.75,2512.66 -1559.93,4081.95 -2342.29,6580.88 -2342.29,7496.79 0,124.19 22.88,216.34 78.22,280.62 55.12,59.91 133.34,92.15 243.8,92.15 280.83,0 658.17,-234.65 1132.25,-704.14 469.29,-469.5 842.06,-920.48 1118.1,-1343.8 207.19,-326.8 386.71,-492.38 543.14,-492.38 142.7,0 216.34,73.64 216.34,216.34 0,363.41 -487.8,1035.31 -1454.26,2015.7 -966.46,980.18 -1817.88,1467.99 -2554.26,1467.99 -312.86,0 -552.08,-110.46 -708.72,-326.8 -156.43,-220.92 -234.65,-547.71 -234.65,-984.76 0,-883.66 188.67,-1956 566.02,-3216.8 -1969.52,3018.77 -3635.54,4528.36 -5002.44,4528.36 -340.53,0 -644.23,-147.28 -911.12,-441.83 -262.31,-289.98 -395.86,-635.08 -395.86,-1030.94 0,-400.23 50.76,-800.66 147.28,-1210.25 101.31,-405.01 469.5,-1564.72 1104.58,-3474.54 639.66,-1905.24 1026.16,-3023.55 1159.7,-3345.77 165.58,-386.5 243.8,-717.87 243.8,-998.7 0,-96.52 -22.88,-170.16 -64.28,-220.71 -46.18,-50.76 -119.82,-73.64 -216.34,-73.64 -386.71,0 -1090.64,607.41 -2117.01,1822.24 -391.08,478.65 -648.81,718.08 -763.85,718.08 -128.97,0 -188.67,-64.49 -188.67,-188.67 0,-313.07 464.71,-939 1403.5,-1868.42 938.79,-929.64 1762.54,-1394.56 2476.05,-1394.56 331.17,0 621.14,133.55 865.15,405.01 248.37,266.89 372.77,575.17 372.77,925.06 0,510.69 -294.55,1481.93 -874.51,2917.67 -1187.37,2922.25 -1780.85,4846.01 -1780.85,5775.64 0,170.16 45.97,331.37 142.49,473.87 92.15,142.7 207.19,216.34 340.73,216.34 179.31,0 446.2,-115.03 796.09,-349.68 349.68,-234.65 938.79,-901.97 1767.12,-2011.13 828.33,-1109.16 1583.23,-2379.32 2264.28,-3815.06l2061.67 -4371.93c151.85,-55.33 326.8,-83 515.47,-83 257.74,0 579.96,27.67 957.3,83zm6180.45 3612.45c764.05,-1270.16 1486.5,-2218.1 2162.98,-2853.19 671.9,-635.08 1306.98,-952.73 1905.24,-952.73 395.86,0 727.23,115.24 989.55,349.89 266.89,234.65 400.44,542.93 400.44,929.64 0,322.01 -105.88,621.14 -317.64,897.39 -211.76,280.62 -483.23,418.74 -814.6,418.74 -575.17,0 -934.21,-253.16 -1076.91,-763.85 -91.94,-335.95 -211.56,-506.32 -363.41,-506.32 -280.83,0 -750.12,437.26 -1408.29,1316.13 -658.17,879.09 -1320.71,1988.04 -1988.04,3327.26l-1905.24 5821.61 -727.23 0 -740.96 13.94 -188.67 -13.94c45.97,-197.83 308.28,-1030.73 796.3,-2508.08 1302.2,-4891.98 1955.79,-7579.58 1955.79,-8053.66 0,-174.74 -69.06,-262.31 -207.19,-262.31 -170.16,0 -496.96,230.07 -975.61,690.41 -478.65,460.14 -892.82,947.94 -1247.07,1463.41 -280.83,405.01 -497.16,607.41 -649.02,607.41 -151.85,0 -225.49,-73.64 -225.49,-216.13 0,-216.34 464.92,-856 1403.71,-1919.18 938.79,-1062.98 1757.97,-1592.38 2462.11,-1592.38 368.19,0 648.81,110.46 832.91,331.37 184.1,220.92 276.25,450.98 276.25,694.99 0,276.04 -55.33,722.45 -161.21,1334.65 -36.82,206.98 -101.1,690.21 -188.67,1444.9zm10819.47 943.57c952.73,-1592.38 1845.54,-2788.91 2678.45,-3585 837.48,-796.3 1615.27,-1191.95 2333.35,-1191.95 423.32,0 745.54,151.85 971.03,450.98 225.49,303.71 335.95,657.96 335.95,1072.34 0,510.69 -73.64,1039.89 -220.92,1583.02 -151.85,542.93 -520.05,1642.93 -1113.73,3295.02 -800.87,2222.89 -1201.1,3529.87 -1201.1,3920.95 0,299.13 133.34,446.41 391.08,446.41 234.65,0 598.26,-197.83 1086.07,-598.26 487.8,-395.65 851.42,-786.94 1086.07,-1173.43 234.85,-400.44 428.1,-602.84 579.96,-602.84 151.85,0 230.07,91.94 230.07,271.46 0,368.19 -464.71,998.7 -1385.2,1891.51 -920.48,897.39 -1803.94,1343.8 -2646.21,1343.8 -828.33,0 -1242.5,-349.89 -1242.5,-1044.67 0,-722.66 662.54,-2807.42 1983.46,-6254.29 510.89,-1330.07 768.42,-2323.99 768.42,-2986.73 0,-207.19 -36.82,-363.62 -115.03,-464.71 -78.22,-105.88 -197.83,-156.64 -358.83,-156.64 -266.89,0 -773.21,345.31 -1514.17,1030.94 -740.96,690.21 -1583.02,1909.82 -2526.6,3658.63 -943.37,1753.39 -1716.57,3364.08 -2319.41,4827.49 -368.19,906.75 -611.99,1362.32 -727.03,1362.32 -883.66,0 -1320.92,-119.61 -1320.92,-354.46l41.6 -142.49 2278.01 -6585.67c593.48,-1606.11 888.03,-2719.85 888.03,-3336.41 0,-271.67 -124.19,-405.01 -377.35,-405.01 -225.49,0 -589.11,220.92 -1095.22,662.75 -506.32,446.41 -906.55,860.57 -1205.68,1256.23 -230.28,303.71 -418.95,455.56 -566.23,455.56 -133.34,0 -197.83,-73.64 -197.83,-216.13 0,-285.4 487.8,-897.39 1463.41,-1831.61 975.61,-934.21 1914.61,-1403.71 2812,-1403.71 289.77,0 510.69,105.88 662.54,312.86 152.06,207.19 230.28,423.53 230.28,649.02 0,363.41 -230.28,1642.93 -685.84,3842.73zm14685.09 -4721.82c1196.52,0 2130.74,455.56 2816.57,1371.47 681.05,915.7 1021.58,1992.61 1021.58,3239.89 0,1748.81 -616.57,3377.81 -1845.33,4887.4 -1228.77,1509.38 -2696.96,2264.08 -4404.17,2264.08 -1256.43,0 -2162.98,-460.14 -2719.85,-1385.2 -556.87,-920.28 -833.12,-1891.31 -833.12,-2903.94 0,-1334.44 345.31,-2627.69 1035.52,-3884.13 690.41,-1256.23 1495.66,-2167.56 2411.56,-2738.15 915.7,-566.02 1753.39,-851.42 2517.24,-851.42zm262.31 579.96c-506.11,0 -1062.98,289.77 -1670.39,869.73 -607.62,579.96 -1205.88,1624.63 -1794.99,3134.01 -588.9,1509.38 -883.46,2922.25 -883.46,4243.17 0,644.23 147.28,1196.52 446.41,1661.24 294.55,464.92 694.78,694.99 1201.1,694.99 566.02,0 1182.79,-335.95 1840.76,-1003.27 662.75,-671.9 1274.74,-1707.42 1831.61,-3106.34 556.87,-1403.71 837.69,-2733.78 837.69,-3990.01 0,-837.69 -151.85,-1468.2 -450.98,-1882.36 -303.71,-414.17 -754.69,-621.14 -1357.74,-621.14zm11431.67 7331c0,1058.61 -377.55,1974.31 -1136.82,2747.51 -759.27,773.21 -1652.09,1159.7 -2678.45,1159.7 -883.46,0 -1573.87,-239.43 -2070.83,-713.3 -492.38,-474.07 -740.96,-920.48 -740.96,-1330.07 0,-271.46 96.73,-533.78 289.98,-782.36 197.83,-253.16 450.98,-377.35 773,-377.35 289.98,0 520.05,92.15 694.99,271.46 170.37,179.52 257.74,395.86 257.74,649.02 0,133.34 -41.4,299.13 -124.19,496.96 -83,207.19 -124.4,363.62 -124.4,460.14 0,234.85 101.31,414.17 303.71,533.98 202.61,124.19 506.32,184.1 906.75,184.1 676.48,0 1201.1,-193.46 1573.87,-575.38 372.77,-381.92 556.87,-846.84 556.87,-1398.93 0,-538.56 -354.46,-1288.68 -1058.61,-2245.77 -1136.61,-1532.68 -1702.63,-2775.18 -1702.63,-3718.54 0,-837.69 317.44,-1610.69 957.09,-2333.35 635.08,-717.87 1412.86,-1076.91 2337.92,-1076.91 653.6,0 1233.34,184.1 1730.3,547.71 497.16,368.19 745.54,773.21 745.54,1210.46 0,285.19 -96.52,533.78 -289.77,745.54 -198.03,206.98 -423.53,312.86 -690.41,312.86 -506.11,0 -759.27,-266.89 -759.27,-796.09l27.67 -727.23c0,-197.83 -115.03,-368.19 -349.89,-510.89 -243.8,-133.34 -492.38,-202.4 -754.69,-202.4 -405.01,0 -782.36,138.12 -1132.04,418.74 -349.89,280.83 -524.62,685.84 -524.62,1215.04 0,552.29 506.11,1472.57 1523.11,2761.24 971.03,1237.92 1459.04,2264.08 1459.04,3074.1z"/>
 </g>
</svg>
