<?xml version="1.0" encoding="UTF-8"?>
<!DOCTYPE svg PUBLIC "-//W3C//DTD SVG 1.1//EN" "http://www.w3.org/Graphics/SVG/1.1/DTD/svg11.dtd">
<!-- Creator: CorelDRAW 2020 (64-Bit) -->
<svg xmlns="http://www.w3.org/2000/svg" xml:space="preserve" width="57.0426mm" height="9.6065mm" version="1.1" style="shape-rendering:geometricPrecision; text-rendering:geometricPrecision; image-rendering:optimizeQuality; fill-rule:evenodd; clip-rule:evenodd"
viewBox="0 0 17015.95 2865.64"
 xmlns:xlink="http://www.w3.org/1999/xlink"
 xmlns:xodm="http://www.corel.com/coreldraw/odm/2003">
 <defs>
  <style type="text/css">
   <![CDATA[
    .fil1 {fill:#AD9D88}
    .fil2 {fill:#FEFEFE;fill-rule:nonzero}
    .fil0 {fill:#E3D4BF;fill-rule:nonzero}
   ]]>
  </style>
 </defs>
 <g id="Layer_x0020_1">
  <metadata id="CorelCorpID_0Corel-Layer"/>
  <path class="fil0" d="M529.61 2865.64c-60.53,0 -111.62,-10.77 -160.7,-30.46 -97.6,-39.14 -173.43,-86.15 -268.11,-126.39 -46.21,-19.63 -50.68,-48.89 -52.11,-75.5 -3.16,-59.81 -11.99,-119.47 -20.97,-179.07l-27.71 0 0 -292.4 0 -1.64 0 -1.61 0 -1.64 0 -1.61 0 -1.64 0 -1.64 0 -1.64 0 -1.64c0.18,-83.52 74.16,-128.63 263.67,-154.91 228.35,-31.56 466.07,-45.07 703.67,-57.36 561.05,-59.18 170.99,-158.64 -147.42,-158.64 -52.41,0 -93.37,-6.89 -137.1,-19.57 -108.55,-31.77 -179.37,-79.56 -283.63,-113.09 -45.91,-14.83 -50.83,-41.67 -58.5,-64.88 -29.89,-90.03 -68.76,-179.46 -99.25,-269.46l-57.72 0 0 -167.14 0 -246.96c592.91,0 939.95,-46.45 1235.96,-62.14 422.78,-22.55 300,-16.05 722.64,-39.14 25.3,-1.43 50.62,-3.7 83.35,-6.15 -46.45,-8.65 -58.74,-11.81 -95.93,-11.81 -13.21,0 -29.38,0.39 -51.46,1.04 -408.61,13.01 -272.83,-22.28 -681.74,-22.28 -58.35,0 -116.58,0.12 -174.92,0.39 -474.63,2.39 1795.57,-0.84 189.18,-0.84 -126.24,0 -252.21,1.55 -378.34,2.06 -2.74,0.09 -5.49,0.09 -8.11,0.09 -161.44,0 -220.92,-19.72 -263.1,-87.34 -27.29,-43.97 -46.89,-88.95 -65.66,-133.82 -13.1,-31.38 -2.65,-39.11 69.06,-49.31 63.54,-9.01 130.03,-14.38 195.3,-20.91 48.77,-4.8 92.92,-12.02 119.44,-31.56 22.58,-16.73 60.08,-21.81 102.53,-24.82 372.22,-26.67 746.2,-48.38 1121.29,-66.04 363.9,-17.09 728.28,-32.07 1092.95,-45.85 238.25,-9.1 477.13,-14.08 715.42,-21.75 242.07,-7.73 484.03,-16.44 726.1,-24.88 119.14,-4.09 238.7,-8.05 357.72,-10.05 433.08,-7.22 865.52,-20.02 1299.29,-24.1 586.67,-5.58 1173.34,-12.05 1760.01,-18.41 441.13,-4.89 882.29,-15.66 1323.6,-15.66 63.12,0 126.21,0.27 189.33,0.75 527.07,4.03 1054.08,9.58 1580.35,19.45 466.63,8.8 932.7,22.52 1398.26,37.26 495.48,15.69 990.25,35.71 1485.4,52.74 327.8,11.22 655.97,20.02 983.77,30.73 171.29,5.67 342.57,11.99 513.26,20.22 140.47,6.74 170.27,21.69 187.07,80.24 41.97,146.56 85.85,292.99 127.29,439.55 11.45,40.51 19.99,81.23 25.21,121.98 4.89,38.12 -22.94,51.22 -114.97,54.29 -146.23,4.83 -292.19,11.01 -439.43,11.01 -2.63,0 -5.37,0 -8.11,0l-199.95 -0.3 0 93.04 4.5 0.42c201.5,17.3 397.16,44.89 600.42,59.36 173.13,12.38 344.99,28.16 517.85,41.29 66.61,5.04 133.04,8.71 200.97,8.71 25.62,0 51.55,-0.51 77.62,-1.73 10.56,-0.42 20.55,-0.69 30.25,-0.69 91.67,0 143.75,21.39 154.76,63.36 41.58,159.17 105.84,317.3 122.48,477.55 0.72,6.32 1.34,12.59 1.34,18.91 0,44.3 -10.89,51.4 -110.94,63.54 -143.87,17.54 -290.4,30.37 -437.79,41.02 -753.06,54.02 -1404.2,246.07 -2055.33,264.12l-7.43 39.53 1128.63 21.87 86.84 212.54c4.53,23.83 8.95,47.67 13.18,71.5 10.86,60.62 21.03,121.35 31.11,181.99 2.21,12.41 1.76,25.3 -2.86,37.65 -12.59,34.99 -40.12,49.13 -110.19,49.13 -9.99,0 -20.85,-0.24 -32.57,-0.81 -208.93,-9.93 -418.61,-5.52 -627.66,-8.17 -470.81,-6.12 -942.22,-8.14 -1412.04,-20.43 -477.64,-12.53 -955.25,-20.76 -1433.37,-28.25 -417.71,-6.59 -835.37,-8.98 -1252.9,-8.98 -446.23,0 -892.31,2.71 -1338.27,5.73 -583.33,4.06 -1166.81,0.51 -1749.69,8.02 -676.85,8.92 -1353.73,3.61 -2030.28,10.44 -310.26,3.16 -621.01,1.13 -930.52,8.77 -258,6.2 -515.85,4.39 -773.62,8.83 -492.8,8.62 -985.92,15.93 -1478.18,29.05 -358.08,9.52 -716.7,15.15 -1074.19,27.26 -279.15,9.46 -560.45,11.6 -835.66,37.11 -18.26,1.7 -35.8,2.57 -52.59,2.57z"/>
 </g>
 <g id="Desktop">
  <metadata id="CorelCorpID_1Corel-Layer"/>
  <g id="_2354785796848">
   <path class="fil1" d="M4989.53 297.65c-139.93,372.55 -249.29,779.76 -352.38,1161.77 -58.17,215.55 -116.01,431.94 -168.03,649.08 -14.53,60.64 -53.49,204.37 -55.42,258.57 4.83,6.74 24.28,15.78 31.56,18.79 77.08,31.83 246.01,43.25 329.62,49.61 71.41,5.43 135.58,47.7 135.58,125.59 0,112.07 -99.69,153.57 -198.91,153.54l-432.6 -7.88 -713.39 3.97c-85.05,0.48 -179.85,-32.51 -179.85,-133.79 0,-113.41 113.62,-141.69 205.05,-141.69 49.34,0 161.68,-4.3 202.25,-37.68 42.54,-35.02 74.04,-145.69 87.1,-198.67l179.28 -662.44 183.93 -703.96 131.85 -523.07c-40.69,-4.15 -81.59,-6.17 -122.48,-6.17 -156.94,0 -301.88,39.14 -433.55,124.72 -142.29,92.47 -266.53,207.11 -374.4,337.86 -34.6,41.91 -78.21,83.85 -136.44,83.85 -73.86,0 -128.51,-52.95 -128.51,-127.17 0,-62.55 70.73,-220.95 95.52,-279.72 56.74,-134.53 121.92,-265.76 196.97,-391.07l29.11 -48.62 1254.39 20.67 935.6 -23.72c41.14,0 82.93,2.15 124.03,4.09l87.55 4.09 32.57 492.86c8.32,84.75 14.32,170.54 14.32,255.73 0,81.91 -53.66,144.35 -137.73,144.35 -63.15,0 -110.07,-43.52 -123.91,-105.75 -66.88,-331.09 -247.26,-504.04 -590.13,-504.04 -36.24,0 -72.49,2.27 -108.55,6.32zm1957.34 2033.83c12.86,-11.31 23.98,-21.96 30.13,-28.07 53.63,-53.4 105.99,-112.52 147.06,-176.3 36.54,-56.71 86.69,-115.59 160.4,-115.59 74.72,0 129.16,54.44 129.16,129.16 0,119.02 -158.82,278.85 -236.79,357.96 -112.13,113.71 -267.79,239.75 -436.18,239.75 -72.7,0 -138.59,-28.04 -181.43,-87.88 -40.87,-57.07 -51.99,-129.67 -51.99,-198.34 0,-17.75 0.45,-35.59 1.34,-53.49 -155.24,180.12 -345.23,339.71 -539.39,339.71 -80.81,0 -149.66,-36.24 -203.41,-95.64 -54.2,-59.87 -82.15,-132.95 -82.15,-213.7 0,-66.43 8.2,-132.15 23.89,-196.7 39.82,-163.98 107.03,-345.64 160.7,-506.22 48.12,-143.99 97.13,-308.5 154.49,-451.66 -53.69,53.96 -108.46,117.65 -128.72,141.87 -43.61,52.11 -110.34,138.11 -184.8,138.11 -72.46,0 -125.2,-52.83 -125.2,-125.2 0,-111.89 156.4,-264.48 230.35,-337.68 110.04,-108.97 261.16,-228.38 424.13,-228.38 77.62,0 144.38,33.02 196.49,90 51.04,55.78 79.17,123.05 79.17,198.88 0,127.41 -84.9,337.65 -132.6,455.27 -68.28,168.39 -239.66,586.16 -247.89,777.61 12.05,-6.89 23.74,-14.5 30.34,-18.91 65.45,-43.91 181.67,-201.65 229.45,-265.64 123.17,-164.9 226.83,-344.18 314.56,-530.2l312.89 -663.48 37.94 -13.81c34.33,-12.53 71.06,-17.84 107.51,-17.84 50.29,0 101.78,5.64 151.51,12.95l114.85 16.82 -35.71 110.46c-39.58,122.48 -85.88,244.85 -131.7,365.09 -88.12,231.24 -175.73,466.01 -249.65,702.2 -18.91,60.35 -51.73,162.75 -68.76,248.87zm1391.04 -1209.08c30.37,-35.32 61.99,-68.88 94.86,-99.84 92.65,-87.28 208.69,-163.32 340.51,-163.32 77.29,0 148.91,23.36 207.02,74.87 60.85,53.99 90.45,125.65 90.45,206.75 0,69.5 -23.6,132.89 -65.57,188.11 -48.12,63.24 -115.17,98.77 -194.94,98.77 -109.48,0 -195.87,-49.37 -236.58,-145.66 -36.3,38.18 -77.86,92.24 -93.34,112.94 -105.21,140.5 -194.19,298.78 -272.62,455.69l-293.11 895.59 -173.58 -0.03 -110.79 2.09 -145.9 -10.77 25.92 -111.65c26.88,-115.59 78.01,-251.71 115.71,-365.51 71.15,-267.31 142.08,-535.27 207.5,-804.04 9.52,-39.17 27,-103.78 41.97,-167.53 -52.44,53.01 -100.2,110.28 -142.59,171.7 -39.94,57.9 -96.38,129.52 -173.85,129.52 -75.17,0 -130.48,-53.6 -130.48,-129.14 0,-95.1 166.12,-272.53 225.87,-340.18 104.61,-118.46 257.67,-261.52 426.63,-261.52 75.08,0 145.81,24.01 194.82,82.84 38.87,46.62 62.38,101.33 62.38,162.49 0,5.88 -0.09,11.81 -0.3,17.84zm1589.15 72.58c41.67,-50.5 85.25,-98.26 130.75,-141.63 108.28,-103.24 246.88,-198.04 402.32,-198.04 87.67,0 164.87,33.23 217.82,104.02 46.8,62.55 67.74,134.89 67.74,212.57 0,85.58 -12.5,170.6 -35.2,253.08 -43.82,159.05 -106.08,324.34 -161.98,479.67 -27.24,75.65 -120.93,324.31 -154.37,461.59 16.44,-11.84 31.5,-23.8 39.55,-30.37 48.21,-39.35 101.36,-88.66 133.52,-142.53 36.51,-61.18 87.76,-134.3 167.44,-134.3 78.99,0 131.13,59.99 131.13,137.07 0,118.87 -149.15,264.59 -228.35,341.62 -120.6,117.26 -273.42,220.48 -447.9,220.48 -158.16,0 -276.32,-80.48 -276.32,-247.95 0,-197.89 218.09,-742.09 290.93,-932.02 37.08,-96.68 92.92,-249.26 102.32,-362.14 -42.87,30.28 -98.47,80.75 -118.81,99.63 -133.13,123.62 -257.14,340.54 -342.69,499.3 -119.53,221.85 -232.59,449.6 -328.19,682.9 -32.1,78.39 -89.79,256.3 -195.06,256.3 -101.24,0 -287.56,-6.32 -287.56,-148.97l0 -14.02 10.56 -36.21 328.16 -948.6c32.19,-87.16 91.07,-246.93 112.85,-366.85 -16.59,13.01 -31.74,25.98 -39.88,33.14 -56.95,49.94 -113.56,105.09 -159.38,165.62 -38.66,51.1 -90.42,104.23 -159.44,104.23 -74.49,0 -126.51,-55.54 -126.51,-129.14 0,-109.42 167.02,-263.52 240.13,-333.53 127.43,-122.04 288.31,-228.56 471.11,-228.56 70.16,0 132.36,28.01 174.12,84.96 32.69,44.54 52.05,95.61 52.05,151.12 0,32.22 -4.8,70.25 -10.86,107.57zm1920.23 -331.77c198.31,0 363.45,76.51 482.56,236.11 114.97,154.07 165.98,331.65 165.98,523.31 0,287.24 -106.23,541.18 -286.64,762.82 -182.11,223.7 -415.8,360.86 -707.69,360.86 -198.97,0 -369.24,-72.43 -474.06,-246.07 -86.42,-143.19 -133.58,-299.79 -133.58,-467.14 0,-214.51 57.45,-416.49 160.64,-604.24 92.44,-168.27 215.08,-326.4 380.07,-428.78 123.41,-76.6 265.25,-136.86 412.73,-136.86zm1079.65 1598.04c19.69,8.17 56.05,9.61 73.95,9.61 56.38,0 114.67,-11.13 155.48,-52.92 36.45,-37.38 51.93,-80 51.93,-132.06 0,-75.53 -89.79,-205.86 -132.57,-263.7 -117.17,-158.46 -263.4,-387.29 -263.4,-591.59 0,-153.12 61.21,-285.86 161.89,-399.64 107.99,-122.01 245.44,-187.54 408.76,-187.54 111.74,0 216.18,31.29 306.3,97.63 83.32,61.33 146.88,145.33 146.88,252.63 0,65.48 -23.06,124.69 -68.79,174.75 -45.82,47.91 -103.3,75.17 -169.91,75.17 -129.4,0 -207.02,-84.63 -207.02,-212.3l0.06 -3.73 3.37 -88.42c-0.21,-0.15 -0.45,-0.27 -0.66,-0.42 -18.58,-9.87 -37.77,-15.87 -59.06,-15.87 -38.57,0 -71,14.44 -100.92,38.45 -30.67,24.61 -38.51,59.63 -38.51,97.69 0,77.71 151.15,276.5 197.42,335.29 106.14,134.92 230.23,323.15 230.23,501.51 0,179.37 -65.57,334.87 -191.15,462.76 -124.18,126.48 -276.35,195.69 -454.11,195.69 -134.8,0 -265.49,-34.36 -364.85,-129.55 -71.71,-68.73 -136.5,-158.04 -136.5,-261.61 0,-63.93 23.24,-122.39 62.32,-172.54 46.95,-60.23 111.89,-91.91 188.26,-91.91 65.15,0 124.93,21.78 170.39,69.03 42.48,44.15 64.37,99.87 64.37,161.11 0,37.23 -11.13,74.28 -25.12,108.43 -2.68,6.59 -6.8,16.7 -9.04,24.04zm-1042.03 -1318.59c-60.23,0 -131.07,58.71 -171.76,97.57 -101.27,96.68 -183.69,285.8 -233.75,414.1 -70.97,181.85 -119.98,376.64 -119.98,572.8 0,65.78 12.86,129.43 48.59,185.4 22.22,34.84 47.52,54.35 89.52,54.35 69.86,0 148.41,-68.31 194.08,-114.64 106.7,-108.19 185.87,-273.19 241.36,-412.79 67.6,-170.15 113.18,-351.97 113.18,-535.93 0,-63.6 -6.92,-158.64 -45.88,-212.18 -28.07,-38.57 -69.21,-48.68 -115.35,-48.68z"/>
  </g>
  <path class="fil2" d="M4918.56 208.33c-100.98,260.69 -226.35,669.18 -376.16,1225.52 -150.46,556.33 -225.04,869.82 -225.04,939.12 0,43.55 29.68,78.54 90.42,103.6 60.7,25.09 180.8,43.55 359.66,56.77 29.68,2.63 44.86,11.87 44.86,27.71 0,36.96 -32.99,55.42 -98.98,55.42l-434.93 -7.91 -713.39 3.97c-54.11,0 -81.17,-11.87 -81.17,-35.65 0,-29.02 35.65,-43.55 106.91,-43.55 128.03,0 216.45,-19.81 264.62,-60.05 48.86,-39.61 88.45,-122.75 119.47,-248.81l179.49 -663.25 184.14 -704.8 158.37 -628.28c-78.51,-15.18 -160.37,-23.09 -244.16,-23.09 -180.83,0 -343.17,46.86 -487.04,140.56 -144.53,93.73 -276.53,212.51 -396.62,357.69 -26.4,32.34 -46.86,48.18 -60.73,48.18 -20.46,0 -30.37,-9.9 -30.37,-29.02 0,-21.81 29.05,-102.32 87.79,-241.57 58.74,-139.25 122.75,-265.28 190.73,-378.78l1199.77 19.78 935.15 -23.74c23.09,0 62.67,1.31 119.44,3.97l27.06 408.5c9.25,94.38 13.84,176.21 13.84,246.16 0,31.02 -13.18,46.21 -39.58,46.21 -14.53,0 -23.74,-9.25 -27.71,-27.06 -78.54,-388.72 -307.55,-582.73 -686.33,-582.73 -58.08,0 -118.13,5.28 -179.52,15.15zm2385.05 776.78c-21.12,65.33 -64.02,185.42 -130.03,360.32 -223.7,585.36 -335.89,943.71 -335.89,1075.05 0,17.81 3.28,31.02 11.22,40.24 7.91,8.59 19.12,13.21 34.96,13.21 40.27,0 94.38,-33.65 162.37,-100.98 67.3,-67.33 120.75,-132 160.34,-192.7 29.71,-46.86 55.45,-70.61 77.89,-70.61 20.46,0 31.02,10.56 31.02,31.02 0,52.11 -69.95,148.47 -208.54,289.06 -138.59,140.56 -260.69,210.51 -366.29,210.51 -44.86,0 -79.17,-15.84 -101.63,-46.86 -22.43,-31.68 -33.65,-78.54 -33.65,-141.22 0,-126.72 27.06,-280.49 81.17,-461.3 -282.43,432.9 -521.34,649.37 -717.36,649.37 -48.83,0 -92.38,-21.12 -130.66,-63.36 -37.62,-41.58 -56.77,-91.07 -56.77,-147.84 0,-57.39 7.28,-114.82 21.12,-173.55 14.53,-58.08 67.33,-224.38 158.4,-498.25 91.73,-273.22 147.15,-433.58 166.3,-479.79 23.74,-55.42 34.96,-102.94 34.96,-143.22 0,-13.84 -3.28,-24.4 -9.22,-31.65 -6.62,-7.28 -17.18,-10.56 -31.02,-10.56 -55.45,0 -156.4,87.1 -303.58,261.31 -56.08,68.64 -93.04,102.97 -109.54,102.97 -18.49,0 -27.06,-9.25 -27.06,-27.06 0,-44.89 66.64,-134.65 201.26,-267.94 134.62,-133.31 252.75,-199.98 355.07,-199.98 47.49,0 89.07,19.15 124.06,58.08 35.62,38.27 53.46,82.48 53.46,132.66 0,73.23 -42.24,212.51 -125.41,418.4 -170.27,419.06 -255.38,694.93 -255.38,828.24 0,24.4 6.59,47.52 20.43,67.95 13.21,20.46 29.71,31.02 48.86,31.02 25.71,0 63.99,-16.5 114.16,-50.14 50.14,-33.65 134.62,-129.34 253.41,-288.4 118.78,-159.05 227.04,-341.2 324.7,-547.09l295.65 -626.94c21.78,-7.93 46.86,-11.9 73.92,-11.9 36.96,0 83.17,3.97 137.28,11.9zm886.29 518.03c109.57,-182.14 213.17,-318.08 310.17,-409.15 96.35,-91.07 187.42,-136.62 273.22,-136.62 56.77,0 104.29,16.53 141.9,50.17 38.27,33.65 57.42,77.86 57.42,133.31 0,46.18 -15.18,89.07 -45.55,128.69 -30.37,40.24 -69.3,60.05 -116.82,60.05 -82.48,0 -133.97,-36.3 -154.43,-109.54 -13.18,-48.18 -30.34,-72.61 -52.11,-72.61 -40.27,0 -107.57,62.7 -201.95,188.74 -94.38,126.06 -189.39,285.09 -285.09,477.13l-273.22 834.83 -104.29 0 -106.26 2 -27.06 -2c6.59,-28.37 44.21,-147.81 114.19,-359.66 186.74,-701.52 280.46,-1086.92 280.46,-1154.91 0,-25.06 -9.9,-37.62 -29.71,-37.62 -24.4,0 -71.26,32.99 -139.9,99.01 -68.64,65.98 -128.03,135.94 -178.83,209.86 -40.27,58.08 -71.29,87.1 -93.07,87.1 -21.78,0 -32.34,-10.56 -32.34,-30.99 0,-31.02 66.67,-122.75 201.29,-275.21 134.62,-152.43 252.1,-228.35 353.07,-228.35 52.8,0 93.04,15.84 119.44,47.52 26.4,31.68 39.61,64.67 39.61,99.66 0,39.58 -7.93,103.6 -23.12,191.39 -5.28,29.68 -14.5,98.98 -27.06,207.2zm1551.53 135.31c136.62,-228.35 264.65,-399.93 384.09,-514.09 120.1,-114.19 231.63,-170.93 334.61,-170.93 60.7,0 106.91,21.78 139.25,64.67 32.34,43.55 48.18,94.35 48.18,153.77 0,73.23 -10.56,149.12 -31.68,227.01 -21.78,77.86 -74.58,235.6 -159.71,472.51 -114.85,318.77 -172.24,506.19 -172.24,562.27 0,42.9 19.12,64.02 56.08,64.02 33.65,0 85.79,-28.37 155.74,-85.79 69.95,-56.74 122.1,-112.85 155.74,-168.27 33.68,-57.42 61.39,-86.45 83.17,-86.45 21.78,0 32.99,13.18 32.99,38.93 0,52.8 -66.64,143.22 -198.64,271.25 -132,128.69 -258.69,192.7 -379.47,192.7 -118.78,0 -178.18,-50.17 -178.18,-149.81 0,-103.63 95.01,-402.59 284.43,-896.88 73.26,-190.73 110.19,-333.26 110.19,-428.3 0,-29.71 -5.28,-52.14 -16.5,-66.64 -11.22,-15.18 -28.37,-22.46 -51.46,-22.46 -38.27,0 -110.88,49.52 -217.13,147.84 -106.26,98.98 -227.01,273.87 -362.32,524.65 -135.28,251.44 -246.16,482.41 -332.61,692.27 -52.8,130.03 -87.76,195.36 -104.26,195.36 -126.72,0 -189.42,-17.15 -189.42,-50.83l5.97 -20.43 326.67 -944.4c85.11,-230.32 127.35,-390.03 127.35,-478.45 0,-38.96 -17.81,-58.08 -54.11,-58.08 -32.34,0 -84.48,31.68 -157.06,95.04 -72.61,64.02 -130,123.41 -172.9,180.14 -33.02,43.55 -60.08,65.33 -81.2,65.33 -19.12,0 -28.37,-10.56 -28.37,-30.99 0,-40.93 69.95,-128.69 209.86,-262.66 139.9,-133.97 274.56,-201.29 403.25,-201.29 41.55,0 73.23,15.18 95.01,44.86 21.81,29.71 33.02,60.73 33.02,93.07 0,52.11 -33.02,235.6 -98.35,551.05zm2105.87 -677.12c171.58,0 305.55,65.33 403.9,196.67 97.66,131.31 146.5,285.74 146.5,464.61 0,250.78 -88.42,484.38 -264.62,700.86 -176.21,216.45 -386.75,324.67 -631.57,324.67 -180.17,0 -310.17,-65.98 -390.03,-198.64 -79.86,-131.97 -119.47,-271.22 -119.47,-416.43 0,-191.36 49.52,-376.82 148.49,-556.99 99.01,-180.14 214.48,-310.83 345.82,-392.66 131.31,-81.17 251.44,-122.1 360.98,-122.1zm37.62 83.17c-72.58,0 -152.43,41.55 -239.54,124.72 -87.13,83.17 -172.93,232.97 -257.41,449.42 -84.45,216.45 -126.69,419.06 -126.69,608.48 0,92.38 21.12,171.58 64.02,238.22 42.24,66.67 99.63,99.66 172.24,99.66 81.17,0 169.61,-48.18 263.97,-143.87 95.04,-96.35 182.8,-244.85 262.66,-445.46 79.86,-201.29 120.13,-392.03 120.13,-572.17 0,-120.13 -21.78,-210.54 -64.67,-269.93 -43.55,-59.39 -108.22,-89.07 -194.7,-89.07zm1639.32 1051.28c0,151.81 -54.14,283.12 -163.02,394 -108.88,110.88 -236.91,166.3 -384.09,166.3 -126.69,0 -225.7,-34.33 -296.96,-102.29 -70.61,-67.98 -106.26,-132 -106.26,-190.73 0,-38.93 13.87,-76.54 41.58,-112.19 28.37,-36.3 64.67,-54.11 110.85,-54.11 41.58,0 74.58,13.21 99.66,38.93 24.43,25.74 36.96,56.77 36.96,93.07 0,19.12 -5.94,42.9 -17.81,71.26 -11.9,29.71 -17.84,52.14 -17.84,65.98 0,33.68 14.53,59.39 43.55,76.57 29.05,17.81 72.61,26.4 130.03,26.4 97.01,0 172.24,-27.74 225.7,-82.51 53.46,-54.77 79.86,-121.44 79.86,-200.61 0,-77.23 -50.83,-184.8 -151.81,-322.05 -162.99,-219.79 -244.16,-397.97 -244.16,-533.25 0,-120.13 45.52,-230.98 137.25,-334.61 91.07,-102.94 202.61,-154.43 335.26,-154.43 93.73,0 176.86,26.4 248.13,78.54 71.29,52.8 106.91,110.88 106.91,173.58 0,40.9 -13.84,76.54 -41.55,106.91 -28.4,29.68 -60.73,44.86 -99.01,44.86 -72.58,0 -108.88,-38.27 -108.88,-114.16l3.97 -104.29c0,-28.37 -16.5,-52.8 -50.17,-73.26 -34.96,-19.12 -70.61,-29.02 -108.22,-29.02 -58.08,0 -112.19,19.81 -162.34,60.05 -50.17,40.27 -75.23,98.35 -75.23,174.24 0,79.2 72.58,211.17 218.42,395.97 139.25,177.52 209.23,324.67 209.23,440.83z"/>
 </g>
</svg>
